<svg width="0" height="0" class="hidden">
 <symbol fill="none" xmlns="http://www.w3.org/2000/svg" viewBox="0 0 12 20" id="arrow-down">
    <path d="M1.15 19.1C0.9 18.85 0.775 18.554 0.775 18.212C0.775 17.8707 0.9 17.575 1.15 17.325L8.475 10L1.125 2.65C0.891667 2.41667 0.775 2.125 0.775 1.775C0.775 1.425 0.9 1.125 1.15 0.875C1.4 0.625 1.696 0.5 2.038 0.5C2.37933 0.5 2.675 0.625 2.925 0.875L11.325 9.3C11.425 9.4 11.496 9.50833 11.538 9.625C11.5793 9.74167 11.6 9.86667 11.6 10C11.6 10.1333 11.5793 10.2583 11.538 10.375C11.496 10.4917 11.425 10.6 11.325 10.7L2.9 19.125C2.66667 19.3583 2.37933 19.475 2.038 19.475C1.696 19.475 1.4 19.35 1.15 19.1Z" fill="currentColor"></path>
  </symbol>
  <symbol fill="none" xmlns="http://www.w3.org/2000/svg" viewBox="0 0 24 24" id="heart">
    <path d="M12 9.354L10.659 6.6705C10.326 6.006 9.7485 5.0505 8.931 4.278C8.127 3.5175 7.164 3 6 3C3.486 3 1.5 4.989 1.5 7.38C1.5 9.1965 2.331 10.479 4.302 12.435C4.8075 12.936 5.3835 13.4775 6.021 14.0745C7.683 15.6345 9.75 17.5755 12 20.1705C14.25 17.5755 16.317 15.6345 17.979 14.0745C18.6165 13.4775 19.194 12.9345 19.698 12.435C21.669 10.479 22.5 9.1965 22.5 7.38C22.5 4.989 20.514 3 18 3C16.8345 3 15.873 3.5175 15.069 4.278C14.2515 5.0505 13.674 6.006 13.341 6.6705L12 9.354ZM12.588 21.792C12.5158 21.8776 12.4257 21.9463 12.3242 21.9935C12.2226 22.0407 12.112 22.0651 12 22.0651C11.888 22.0651 11.7774 22.0407 11.6758 21.9935C11.5743 21.9463 11.4842 21.8776 11.412 21.792C9.0105 18.939 6.837 16.899 5.0475 15.2205C1.95 12.312 0 10.4835 0 7.38C0 4.1325 2.685 1.5 6 1.5C8.4 1.5 10.0785 3.075 11.106 4.512C11.496 5.0595 11.793 5.586 12 6C12.2595 5.48186 12.5584 4.9844 12.894 4.512C13.9215 3.0735 15.6 1.5 18 1.5C21.315 1.5 24 4.1325 24 7.38C24 10.4835 22.05 12.312 18.9525 15.2205C17.163 16.9005 14.9895 18.9405 12.588 21.7905V21.792Z" fill="currentColor"></path>
  </symbol>
   <symbol fill="none" xmlns="http://www.w3.org/2000/svg" viewBox="0 0 24 24" id="scales">
    <path d="M23.2411 12.3279L19.9255 4.039H19.9151L19.8841 3.96648C19.8841 3.96373 19.883 3.96109 19.881 3.95915C19.8791 3.95721 19.8764 3.95611 19.8737 3.95611C19.8636 3.93316 19.8495 3.91213 19.8323 3.89395H19.8219L19.7701 3.83178C19.7673 3.83178 19.7647 3.83069 19.7628 3.82875C19.7608 3.8268 19.7597 3.82417 19.7597 3.82142L19.7079 3.77998H19.6872L19.625 3.73853C19.6147 3.73853 19.6043 3.73853 19.6043 3.72817L19.5421 3.70745H19.5214L19.4489 3.68673H19.2106L12.5069 5.14764V2.60917C12.5069 2.44429 12.4414 2.28617 12.3249 2.16958C12.2083 2.053 12.0501 1.9875 11.8853 1.9875C11.7204 1.9875 11.5623 2.053 11.4457 2.16958C11.3291 2.28617 11.2636 2.44429 11.2636 2.60917V5.4274L4.29055 6.9712H4.23875L4.15586 7.00229H4.1455L4.08333 7.04373H4.07297L4.0108 7.08518H4.00044L3.94864 7.14734H3.93827L3.89683 7.20951H3.88647C3.87496 7.23493 3.86108 7.25921 3.84502 7.28204L0.529462 15.5709C0.488244 15.6654 0.473902 15.7694 0.488018 15.8714C0.488018 18.1405 2.90216 18.9798 4.42525 18.9798C5.94833 18.9798 8.36248 18.1405 8.36248 15.8714C8.36472 15.7934 8.3506 15.7157 8.32103 15.6435L5.27486 8.02804L11.2636 6.70182V20.2231H9.39859C9.23372 20.2231 9.07559 20.2886 8.95901 20.4052C8.84242 20.5218 8.77692 20.6799 8.77692 20.8448C8.77692 21.0096 8.84242 21.1678 8.95901 21.2843C9.07559 21.4009 9.23372 21.4664 9.39859 21.4664H14.3719C14.5368 21.4664 14.6949 21.4009 14.8115 21.2843C14.9281 21.1678 14.9936 21.0096 14.9936 20.8448C14.9936 20.6799 14.9281 20.5218 14.8115 20.4052C14.6949 20.2886 14.5368 20.2231 14.3719 20.2231H12.5069V6.42206L18.3299 5.12692L15.4495 12.3279C15.4199 12.4002 15.4058 12.4778 15.408 12.5559C15.408 14.8249 17.8222 15.6642 19.3453 15.6642C20.8684 15.6642 23.2825 14.8249 23.2825 12.5559C23.2847 12.4778 23.2706 12.4002 23.2411 12.3279ZM4.42525 17.7364C3.79048 17.7318 3.16703 17.5679 2.61205 17.2598C2.06291 16.9386 1.7728 16.5242 1.73135 15.9854L4.42525 9.26101L7.11914 15.9854C7.02589 17.4152 5.10908 17.7364 4.42525 17.7364ZM19.3453 14.4209C18.7105 14.4163 18.0871 14.2524 17.5321 13.9442C16.9829 13.6231 16.6928 13.2086 16.6514 12.6698L19.3453 5.94545L22.0392 12.6698C21.9459 14.0997 20.0291 14.4209 19.3453 14.4209Z" fill="currentColor"></path>
  </symbol>
    <symbol fill="none" xmlns="http://www.w3.org/2000/svg" viewBox="0 0 24 24" id="search">
    <g clip-path="url(#clip0_4_65)">
      <path d="M10.8867 3.36667C12.3308 3.36535 13.7428 3.79236 14.9441 4.5937C16.1455 5.39503 17.0822 6.53467 17.6357 7.86845C18.1893 9.20224 18.3348 10.6702 18.0539 12.0867C17.773 13.5032 17.0782 14.8046 16.0576 15.8262C15.0369 16.8478 13.7362 17.5437 12.32 17.8259C10.9037 18.1081 9.43558 17.9639 8.10129 17.4116C6.767 16.8593 5.6265 15.9236 4.82407 14.723C4.02165 13.5224 3.59334 12.1108 3.59334 10.6667C3.60209 8.73444 4.3731 6.88374 5.73878 5.51681C7.10446 4.14988 8.95445 3.37719 10.8867 3.36667ZM10.8867 2C9.17257 2 7.49696 2.50829 6.07173 3.4606C4.6465 4.4129 3.53568 5.76645 2.87972 7.35008C2.22376 8.9337 2.05213 10.6763 2.38653 12.3574C2.72094 14.0386 3.54636 15.5829 4.75841 16.7949C5.97047 18.007 7.51472 18.8324 9.19589 19.1668C10.8771 19.5012 12.6196 19.3296 14.2033 18.6736C15.7869 18.0177 17.1404 16.9068 18.0927 15.4816C19.045 14.0564 19.5533 12.3808 19.5533 10.6667C19.5533 8.36812 18.6402 6.16372 17.0149 4.53841C15.3896 2.91309 13.1852 2 10.8867 2Z" fill="currentColor"></path>
      <path d="M23.3333 22.1933L18.42 17.2467L17.4733 18.1867L22.3867 23.1333C22.4484 23.1955 22.5217 23.2449 22.6026 23.2787C22.6834 23.3125 22.77 23.3301 22.8576 23.3304C22.9452 23.3307 23.032 23.3137 23.1131 23.2805C23.1941 23.2473 23.2678 23.1984 23.33 23.1367C23.3922 23.0749 23.4415 23.0016 23.4754 22.9208C23.5092 22.84 23.5267 22.7533 23.527 22.6657C23.5273 22.5781 23.5104 22.4913 23.4772 22.4102C23.4439 22.3292 23.395 22.2555 23.3333 22.1933Z" fill="currentColor"></path>
    </g>
    <defs>
      <clipPath id="clip0_4_65">
        <rect width="24" height="24" fill="white"></rect>
      </clipPath>
    </defs>
  </symbol>
  <symbol fill="none" xmlns="http://www.w3.org/2000/svg" viewBox="0 0 24 24" id="shopping">
    <path d="M12.15 1.9125C11.6207 1.51554 10.9914 1.27381 10.3324 1.2144C9.67351 1.15498 9.01106 1.28023 8.41931 1.57611C7.82756 1.87198 7.32989 2.3268 6.98206 2.88959C6.63424 3.45237 6.45001 4.1009 6.45001 4.7625V6.9H5.02501C4.64707 6.9 4.28462 7.05014 4.01738 7.31737C3.75014 7.58461 3.60001 7.94707 3.60001 8.325V19.725C3.60001 20.8588 4.05041 21.9462 4.85212 22.7479C5.65384 23.5496 6.7412 24 7.87501 24H17.1375C18.0823 24 18.9885 23.6247 19.6566 22.9566C20.3247 22.2885 20.7 21.3823 20.7 20.4375V8.325C20.7 7.94707 20.5499 7.58461 20.2826 7.31737C20.0154 7.05014 19.6529 6.9 19.275 6.9H17.85V4.7625C17.85 4.1009 17.6658 3.45237 17.3179 2.88959C16.9701 2.3268 16.4725 1.87198 15.8807 1.57611C15.289 1.28023 14.6265 1.15498 13.9676 1.2144C13.3086 1.27381 12.6793 1.51554 12.15 1.9125ZM7.87501 4.7625C7.87501 4.1956 8.1002 3.65192 8.50106 3.25106C8.90192 2.8502 9.4456 2.625 10.0125 2.625C10.5794 2.625 11.1231 2.8502 11.5239 3.25106C11.9248 3.65192 12.15 4.1956 12.15 4.7625V6.9H7.87501V4.7625ZM13.1005 2.9841C13.4224 2.76914 13.7966 2.64562 14.1833 2.62675C14.5699 2.60787 14.9544 2.69434 15.2957 2.87693C15.6371 3.05952 15.9224 3.33136 16.1213 3.66345C16.3202 3.99554 16.4251 4.37541 16.425 4.7625V6.9H13.575V4.7625C13.575 4.11555 13.4026 3.5085 13.1005 2.9841ZM7.87501 22.575C7.11914 22.575 6.39423 22.2747 5.85975 21.7403C5.32527 21.2058 5.02501 20.4809 5.02501 19.725V8.325H13.575V20.4375C13.575 21.2398 13.8401 21.9793 14.2875 22.575H7.87501ZM19.275 20.4375C19.275 21.0044 19.0498 21.5481 18.6489 21.9489C18.2481 22.3498 17.7044 22.575 17.1375 22.575C16.5706 22.575 16.0269 22.3498 15.6261 21.9489C15.2252 21.5481 15 21.0044 15 20.4375V8.325H19.275V20.4375Z" fill="currentColor"></path>
  </symbol>
  <symbol fill="none" xmlns="http://www.w3.org/2000/svg" viewBox="0 0 17 8" id="arrow-long-right">
    <path d="M16.3536 4.35355C16.5488 4.15829 16.5488 3.84171 16.3536 3.64645L13.1716 0.464466C12.9763 0.269204 12.6597 0.269204 12.4645 0.464466C12.2692 0.659728 12.2692 0.976311 12.4645 1.17157L15.2929 4L12.4645 6.82843C12.2692 7.02369 12.2692 7.34027 12.4645 7.53553C12.6597 7.7308 12.9763 7.7308 13.1716 7.53553L16.3536 4.35355ZM0 4.5H16V3.5H0V4.5Z" fill="currentColor"></path>
  </symbol>
    <symbol fill="none" xmlns="http://www.w3.org/2000/svg" viewBox="0 0 41 33" id="header-product01">
    <path d="M10.7152 26.672H7.61922L6.77922 29H5.79522L8.97522 20.468H9.43122L12.6232 29H11.5792L10.7152 26.672ZM7.94322 25.808H10.4152L9.47922 23.252L9.17922 21.98H9.16722L8.86722 23.276L7.94322 25.808ZM13.6428 23H14.3027L14.4827 23.72H14.5308C14.7148 23.44 14.9508 23.228 15.2388 23.084C15.5348 22.932 15.8708 22.856 16.2467 22.856C17.0468 22.856 17.6428 23.092 18.0348 23.564C18.4268 24.036 18.6228 24.808 18.6228 25.88C18.6228 26.384 18.5548 26.84 18.4188 27.248C18.2908 27.648 18.1068 27.988 17.8668 28.268C17.6268 28.548 17.3348 28.764 16.9908 28.916C16.6548 29.068 16.2788 29.144 15.8628 29.144C15.5668 29.144 15.3308 29.124 15.1548 29.084C14.9868 29.052 14.8028 28.992 14.6028 28.904V31.4H13.6428V23ZM16.0668 23.696C15.6588 23.696 15.3348 23.804 15.0948 24.02C14.8628 24.228 14.6988 24.548 14.6028 24.98V27.956C14.7468 28.068 14.9108 28.156 15.0948 28.22C15.2788 28.276 15.5228 28.304 15.8268 28.304C16.3788 28.304 16.8148 28.1 17.1348 27.692C17.4628 27.276 17.6268 26.668 17.6268 25.868C17.6268 25.54 17.5988 25.244 17.5428 24.98C17.4868 24.708 17.3948 24.48 17.2668 24.296C17.1468 24.104 16.9868 23.956 16.7868 23.852C16.5948 23.748 16.3548 23.696 16.0668 23.696ZM20.1349 23H20.7949L20.9749 23.72H21.0229C21.2069 23.44 21.4429 23.228 21.7309 23.084C22.0269 22.932 22.3629 22.856 22.7389 22.856C23.5389 22.856 24.1349 23.092 24.5269 23.564C24.9189 24.036 25.1149 24.808 25.1149 25.88C25.1149 26.384 25.0469 26.84 24.9109 27.248C24.7829 27.648 24.5989 27.988 24.3589 28.268C24.1189 28.548 23.8269 28.764 23.4829 28.916C23.1469 29.068 22.7709 29.144 22.3549 29.144C22.0589 29.144 21.8229 29.124 21.6469 29.084C21.4789 29.052 21.2949 28.992 21.0949 28.904V31.4H20.1349V23ZM22.5589 23.696C22.1509 23.696 21.8269 23.804 21.5869 24.02C21.3549 24.228 21.1909 24.548 21.0949 24.98V27.956C21.2389 28.068 21.4029 28.156 21.5869 28.22C21.7709 28.276 22.0149 28.304 22.3189 28.304C22.8709 28.304 23.3069 28.1 23.6269 27.692C23.9549 27.276 24.1189 26.668 24.1189 25.868C24.1189 25.54 24.0909 25.244 24.0349 24.98C23.9789 24.708 23.8869 24.48 23.7589 24.296C23.6389 24.104 23.4789 23.956 23.2789 23.852C23.0869 23.748 22.8469 23.696 22.5589 23.696ZM27.6951 27.524C27.6951 27.804 27.7431 28.004 27.8391 28.124C27.9351 28.244 28.0711 28.304 28.2471 28.304C28.3511 28.304 28.4631 28.296 28.5831 28.28C28.7031 28.264 28.8391 28.228 28.9911 28.172L29.0991 28.928C28.9711 28.992 28.7911 29.044 28.5591 29.084C28.3351 29.124 28.1391 29.144 27.9711 29.144C27.6111 29.144 27.3151 29.044 27.0831 28.844C26.8511 28.636 26.7351 28.288 26.7351 27.8V20.6H27.6951V27.524ZM34.511 28.52C34.271 28.712 33.967 28.864 33.599 28.976C33.239 29.088 32.855 29.144 32.447 29.144C31.991 29.144 31.595 29.072 31.259 28.928C30.923 28.776 30.647 28.564 30.431 28.292C30.215 28.012 30.055 27.68 29.951 27.296C29.847 26.912 29.795 26.48 29.795 26C29.795 24.976 30.023 24.196 30.479 23.66C30.935 23.124 31.587 22.856 32.435 22.856C32.707 22.856 32.979 22.888 33.251 22.952C33.523 23.008 33.767 23.12 33.983 23.288C34.199 23.456 34.375 23.696 34.511 24.008C34.647 24.312 34.715 24.716 34.715 25.22C34.715 25.484 34.691 25.776 34.643 26.096H30.791C30.791 26.448 30.827 26.76 30.899 27.032C30.971 27.304 31.083 27.536 31.235 27.728C31.387 27.912 31.583 28.056 31.823 28.16C32.071 28.256 32.371 28.304 32.723 28.304C32.995 28.304 33.267 28.256 33.539 28.16C33.811 28.064 34.015 27.952 34.151 27.824L34.511 28.52ZM32.447 23.696C31.975 23.696 31.595 23.82 31.307 24.068C31.027 24.316 30.859 24.74 30.803 25.34H33.779C33.779 24.732 33.663 24.308 33.431 24.068C33.199 23.82 32.871 23.696 32.447 23.696Z" fill="#E5E5E5"></path>
    <g clip-path="url(#clip0_16_109)">
      <path d="M26.7351 11.2991C26.6514 11.5416 26.5637 11.7729 26.4705 11.9948C26.2431 12.5192 25.9746 13.0017 25.6635 13.4447C25.2402 14.0496 24.8927 14.4682 24.625 14.7003C24.2104 15.0818 23.7658 15.2776 23.2897 15.2879C22.9477 15.2879 22.5363 15.1907 22.0562 14.9941C21.5752 14.7975 21.133 14.7003 20.7287 14.7003C20.3046 14.7003 19.8497 14.7975 19.3633 14.9941C18.8761 15.1907 18.4836 15.2942 18.1835 15.3037C17.727 15.3234 17.2722 15.1228 16.8181 14.7003C16.5283 14.4476 16.1658 14.0141 15.7315 13.4005C15.2656 12.7451 14.8826 11.9846 14.5825 11.1175C14.2611 10.1817 14.1 9.27514 14.1 8.39778C14.1 7.3925 14.3171 6.52542 14.7523 5.7989C15.0942 5.21531 15.5491 4.75492 16.1184 4.41693C16.6878 4.07894 17.303 3.90679 17.9655 3.89573C18.328 3.89573 18.8034 4.00787 19.3941 4.2282C19.9832 4.44931 20.3615 4.56145 20.5273 4.56145C20.6513 4.56145 21.0714 4.43036 21.7837 4.16897C22.4573 3.92653 23.0259 3.82624 23.4918 3.86573C24.7537 3.9676 25.7014 4.4651 26.3323 5.36141C25.2039 6.04528 24.6456 7.00318 24.6566 8.23195C24.6669 9.18906 25.0136 9.98586 25.6959 10.6184C26.0054 10.9114 26.3513 11.138 26.7351 11.2991ZM23.5605 0.304993C23.5708 0.405284 23.5755 0.505575 23.5755 0.605077C23.5755 1.35529 23.3015 2.05575 22.7558 2.70409C22.0964 3.47483 21.2988 3.92021 20.4341 3.84993C20.4231 3.75991 20.4167 3.66514 20.4167 3.56564C20.4167 2.84544 20.7303 2.0747 21.287 1.44452C21.565 1.12549 21.9187 0.860148 22.3468 0.648509C22.7748 0.44003 23.1799 0.324735 23.5605 0.304993Z" fill="currentColor"></path>
    </g>
    <defs>
      <clipPath id="clip0_16_109">
        <rect width="13" height="15" fill="white" transform="translate(14)"></rect>
      </clipPath>
    </defs>
  </symbol>
    <symbol fill="none" xmlns="http://www.w3.org/2000/svg" viewBox="0 0 96 33" id="header-product02">
    <path d="M30.0151 26.864C30.0151 26.528 29.9151 26.256 29.7151 26.048C29.5151 25.832 29.2631 25.644 28.9591 25.484C28.6631 25.316 28.3391 25.16 27.9871 25.016C27.6351 24.872 27.3071 24.7 27.0031 24.5C26.7071 24.292 26.4591 24.04 26.2591 23.744C26.0591 23.44 25.9591 23.056 25.9591 22.592C25.9591 21.936 26.1871 21.416 26.6431 21.032C27.0991 20.648 27.7471 20.456 28.5871 20.456C29.0751 20.456 29.5191 20.492 29.9191 20.564C30.3191 20.636 30.6311 20.728 30.8551 20.84L30.5551 21.716C30.3711 21.628 30.0991 21.544 29.7391 21.464C29.3871 21.384 28.9871 21.344 28.5391 21.344C28.0111 21.344 27.6151 21.464 27.3511 21.704C27.0871 21.936 26.9551 22.212 26.9551 22.532C26.9551 22.844 27.0551 23.104 27.2551 23.312C27.4551 23.52 27.7031 23.708 27.9991 23.876C28.3031 24.036 28.6311 24.196 28.9831 24.356C29.3351 24.516 29.6591 24.704 29.9551 24.92C30.2591 25.128 30.5111 25.38 30.7111 25.676C30.9111 25.972 31.0111 26.34 31.0111 26.78C31.0111 27.14 30.9471 27.464 30.8191 27.752C30.6911 28.04 30.5031 28.288 30.2551 28.496C30.0071 28.704 29.7071 28.864 29.3551 28.976C29.0031 29.088 28.6031 29.144 28.1551 29.144C27.5551 29.144 27.0591 29.096 26.6671 29C26.2751 28.912 25.9711 28.812 25.7551 28.7L26.0911 27.8C26.2751 27.904 26.5471 28.008 26.9071 28.112C27.2671 28.208 27.6711 28.256 28.1191 28.256C28.3831 28.256 28.6311 28.232 28.8631 28.184C29.0951 28.128 29.2951 28.044 29.4631 27.932C29.6311 27.812 29.7631 27.664 29.8591 27.488C29.9631 27.312 30.0151 27.104 30.0151 26.864ZM32.4061 23.444C32.7101 23.26 33.0621 23.124 33.4621 23.036C33.8701 22.948 34.2941 22.904 34.7341 22.904C35.1501 22.904 35.4821 22.96 35.7301 23.072C35.9861 23.184 36.1781 23.332 36.3061 23.516C36.4421 23.692 36.5301 23.888 36.5701 24.104C36.6181 24.32 36.6421 24.536 36.6421 24.752C36.6421 25.232 36.6301 25.7 36.6061 26.156C36.5821 26.612 36.5701 27.044 36.5701 27.452C36.5701 27.748 36.5821 28.028 36.6061 28.292C36.6301 28.556 36.6741 28.8 36.7381 29.024H36.0301L35.7781 28.184H35.7181C35.6461 28.296 35.5541 28.408 35.4421 28.52C35.3381 28.624 35.2101 28.72 35.0581 28.808C34.9061 28.888 34.7301 28.956 34.5301 29.012C34.3301 29.068 34.1021 29.096 33.8461 29.096C33.5901 29.096 33.3501 29.056 33.1261 28.976C32.9101 28.896 32.7221 28.784 32.5621 28.64C32.4021 28.488 32.2741 28.308 32.1781 28.1C32.0901 27.892 32.0461 27.656 32.0461 27.392C32.0461 27.04 32.1181 26.748 32.2621 26.516C32.4061 26.276 32.6061 26.088 32.8621 25.952C33.1261 25.808 33.4381 25.708 33.7981 25.652C34.1661 25.588 34.5701 25.556 35.0101 25.556C35.1221 25.556 35.2301 25.556 35.3341 25.556C35.4461 25.556 35.5581 25.564 35.6701 25.58C35.6941 25.34 35.7061 25.124 35.7061 24.932C35.7061 24.492 35.6181 24.184 35.4421 24.008C35.2661 23.832 34.9461 23.744 34.4821 23.744C34.3461 23.744 34.1981 23.756 34.0381 23.78C33.8861 23.796 33.7261 23.824 33.5581 23.864C33.3981 23.896 33.2421 23.94 33.0901 23.996C32.9461 24.044 32.8181 24.1 32.7061 24.164L32.4061 23.444ZM34.1101 28.256C34.3341 28.256 34.5341 28.228 34.7101 28.172C34.8861 28.108 35.0381 28.032 35.1661 27.944C35.2941 27.848 35.3981 27.744 35.4781 27.632C35.5661 27.52 35.6301 27.412 35.6701 27.308V26.312C35.5581 26.304 35.4421 26.3 35.3221 26.3C35.2101 26.292 35.0981 26.288 34.9861 26.288C34.7381 26.288 34.4941 26.304 34.2541 26.336C34.0221 26.36 33.8141 26.412 33.6301 26.492C33.4541 26.564 33.3101 26.668 33.1981 26.804C33.0941 26.932 33.0421 27.096 33.0421 27.296C33.0421 27.576 33.1421 27.808 33.3421 27.992C33.5421 28.168 33.7981 28.256 34.1101 28.256ZM41.9713 29V25.604C41.9713 25.284 41.9553 25.008 41.9233 24.776C41.8993 24.536 41.8473 24.336 41.7673 24.176C41.6873 24.016 41.5713 23.896 41.4193 23.816C41.2753 23.736 41.0833 23.696 40.8433 23.696C40.4753 23.696 40.1673 23.808 39.9193 24.032C39.6793 24.256 39.5113 24.536 39.4153 24.872V29H38.4553V23H39.1273L39.3073 23.732H39.3553C39.5713 23.476 39.8193 23.268 40.0993 23.108C40.3873 22.94 40.7593 22.856 41.2153 22.856C41.5993 22.856 41.9113 22.932 42.1513 23.084C42.3993 23.228 42.5913 23.484 42.7273 23.852C42.9113 23.54 43.1633 23.296 43.4833 23.12C43.8113 22.944 44.1793 22.856 44.5872 22.856C44.9233 22.856 45.2073 22.896 45.4393 22.976C45.6713 23.048 45.8633 23.18 46.0153 23.372C46.1673 23.564 46.2753 23.824 46.3393 24.152C46.4113 24.48 46.4473 24.896 46.4473 25.4V29H45.4873V25.388C45.4873 25.1 45.4713 24.852 45.4393 24.644C45.4153 24.428 45.3593 24.252 45.2713 24.116C45.1913 23.972 45.0753 23.868 44.9233 23.804C44.7793 23.732 44.5873 23.696 44.3473 23.696C43.9473 23.696 43.6353 23.808 43.4113 24.032C43.1873 24.256 43.0273 24.576 42.9313 24.992V29H41.9713ZM50.8335 27.368C50.8335 27.128 50.7615 26.94 50.6175 26.804C50.4735 26.668 50.2935 26.556 50.0775 26.468C49.8695 26.372 49.6375 26.284 49.3815 26.204C49.1335 26.116 48.9015 26.008 48.6855 25.88C48.4775 25.744 48.3015 25.572 48.1575 25.364C48.0135 25.156 47.9415 24.876 47.9415 24.524C47.9415 23.948 48.1055 23.528 48.4335 23.264C48.7615 22.992 49.2175 22.856 49.8015 22.856C50.2335 22.856 50.5935 22.896 50.8815 22.976C51.1775 23.048 51.4335 23.136 51.6495 23.24L51.4215 24.032C51.2375 23.944 51.0135 23.868 50.7495 23.804C50.4935 23.732 50.2175 23.696 49.9215 23.696C49.5695 23.696 49.3095 23.756 49.1415 23.876C48.9815 23.996 48.9015 24.204 48.9015 24.5C48.9015 24.708 48.9735 24.872 49.1175 24.992C49.2615 25.104 49.4375 25.208 49.6455 25.304C49.8615 25.392 50.0935 25.48 50.3415 25.568C50.5975 25.656 50.8295 25.772 51.0375 25.916C51.2535 26.06 51.4335 26.244 51.5775 26.468C51.7215 26.684 51.7935 26.972 51.7935 27.332C51.7935 27.588 51.7495 27.828 51.6615 28.052C51.5815 28.276 51.4535 28.468 51.2775 28.628C51.1015 28.788 50.8815 28.912 50.6175 29C50.3615 29.096 50.0575 29.144 49.7055 29.144C49.2495 29.144 48.8615 29.1 48.5415 29.012C48.2215 28.924 47.9535 28.82 47.7375 28.7L48.0255 27.884C48.2095 27.988 48.4495 28.084 48.7455 28.172C49.0415 28.26 49.3415 28.304 49.6455 28.304C49.9895 28.304 50.2735 28.236 50.4975 28.1C50.7215 27.964 50.8335 27.72 50.8335 27.368ZM54.1083 23V26.42C54.1083 26.732 54.1243 27.008 54.1563 27.248C54.1963 27.48 54.2603 27.676 54.3483 27.836C54.4363 27.988 54.5563 28.104 54.7083 28.184C54.8603 28.264 55.0523 28.304 55.2843 28.304C55.5003 28.304 55.6923 28.272 55.8603 28.208C56.0283 28.136 56.1763 28.04 56.3043 27.92C56.4403 27.8 56.5563 27.664 56.6523 27.512C56.7563 27.352 56.8403 27.184 56.9043 27.008V23H57.8643V27.296C57.8643 27.584 57.8723 27.884 57.8883 28.196C57.9123 28.5 57.9483 28.768 57.9963 29H57.3363L57.0963 28.052H57.0363C56.8523 28.364 56.6043 28.624 56.2923 28.832C55.9803 29.04 55.5843 29.144 55.1043 29.144C54.7843 29.144 54.5003 29.104 54.2523 29.024C54.0123 28.952 53.8083 28.82 53.6403 28.628C53.4803 28.436 53.3563 28.18 53.2683 27.86C53.1883 27.532 53.1483 27.12 53.1483 26.624V23H54.1083ZM63.5651 29V25.58C63.5651 24.956 63.4731 24.488 63.2891 24.176C63.1131 23.856 62.7851 23.696 62.3051 23.696C61.8811 23.696 61.5291 23.812 61.2491 24.044C60.9771 24.268 60.7851 24.552 60.6731 24.896V29H59.7131V23H60.3851L60.5651 23.732H60.6131C60.8051 23.476 61.0611 23.268 61.3811 23.108C61.7091 22.94 62.0971 22.856 62.5451 22.856C62.8731 22.856 63.1611 22.896 63.4091 22.976C63.6571 23.048 63.8611 23.18 64.0211 23.372C64.1891 23.564 64.3131 23.824 64.3931 24.152C64.4811 24.472 64.5251 24.88 64.5251 25.376V29H63.5651ZM70.8716 29.276C70.8716 30.052 70.6636 30.624 70.2476 30.992C69.8396 31.36 69.2316 31.544 68.4236 31.544C67.9436 31.544 67.5556 31.512 67.2596 31.448C66.9716 31.392 66.7236 31.316 66.5156 31.22L66.7676 30.404C66.9516 30.476 67.1556 30.544 67.3796 30.608C67.6036 30.672 67.8956 30.704 68.2556 30.704C68.5916 30.704 68.8636 30.672 69.0716 30.608C69.2876 30.552 69.4596 30.452 69.5876 30.308C69.7156 30.172 69.8036 29.992 69.8516 29.768C69.8996 29.552 69.9236 29.292 69.9236 28.988V28.412H69.8756C69.7156 28.644 69.5116 28.824 69.2636 28.952C69.0156 29.072 68.6916 29.132 68.2916 29.132C67.4836 29.132 66.8876 28.88 66.5036 28.376C66.1276 27.872 65.9396 27.088 65.9396 26.024C65.9396 25 66.1836 24.224 66.6716 23.696C67.1596 23.16 67.8796 22.892 68.8316 22.892C69.2876 22.892 69.6756 22.928 69.9956 23C70.3236 23.072 70.6156 23.156 70.8716 23.252V29.276ZM68.4596 28.292C68.8676 28.292 69.1876 28.192 69.4196 27.992C69.6516 27.784 69.8156 27.464 69.9116 27.032V23.96C69.5916 23.808 69.1836 23.732 68.6876 23.732C68.1436 23.732 67.7156 23.916 67.4036 24.284C67.0916 24.652 66.9356 25.228 66.9356 26.012C66.9356 26.348 66.9636 26.656 67.0196 26.936C67.0756 27.216 67.1636 27.456 67.2836 27.656C67.4036 27.856 67.5596 28.012 67.7516 28.124C67.9436 28.236 68.1796 28.292 68.4596 28.292Z" fill="#E5E5E5"></path>
    <g clip-path="url(#clip0_16_116)">
      <path d="M3.64875 4.2825C3.58275 4.005 3.59925 3.7125 3.63675 3.5625C3.72675 3.1275 4.02675 2.64 4.88925 2.64C5.69925 2.64 6.17925 3.13725 6.17925 3.885V4.73475H9.59925V3.75975C9.59925 0.774754 6.90675 0.294754 4.96425 0.294754C2.52675 0.294754 0.53175 1.10475 0.17175 3.33975C0.075 3.96 0.0525 4.5 0.2025 5.19225C0.8025 7.99725 5.6775 8.8125 6.3825 10.5863C6.5175 10.9163 6.48225 11.3423 6.4125 11.6003C6.30225 12.0623 5.9925 12.5303 5.07525 12.5303C4.21575 12.5303 3.70275 12.0293 3.70275 11.2793L3.69975 9.95175H0V11.0018C0 14.0775 2.4105 15 4.99125 15C7.4715 15 9.50625 14.1578 9.8415 11.8613C10.0065 10.6763 9.8805 9.90375 9.8265 9.6135C9.246 6.7305 4.04025 5.8785 3.64875 4.26975V4.28475V4.2825ZM91.1602 6.7665V8.769H92.5672V10.7565C92.5702 10.9365 92.5598 11.124 92.5312 11.2778C92.4743 11.6498 92.1217 12.2798 91.1273 12.2798C90.1328 12.2798 89.7878 11.6498 89.7292 11.2778C89.6992 11.1248 89.6917 10.9328 89.6917 10.7558V4.485C89.6917 4.2645 89.7067 4.02 89.7517 3.837C89.8118 3.50475 90.1117 2.84325 91.1167 2.84325C92.1667 2.84325 92.4217 3.54075 92.4818 3.84075C92.5117 4.04025 92.5117 4.37175 92.5117 4.37175V5.13675H95.9655V4.68675C95.9655 4.68675 95.9805 4.22175 95.94 3.78675C95.6805 1.218 93.5587 0.396754 91.125 0.396754C88.6875 0.396754 86.6085 1.22175 86.3085 3.78675C86.2785 4.02675 86.238 4.44675 86.238 4.6995V10.4708C86.238 10.7205 86.247 10.9155 86.2935 11.376C86.5185 13.8765 88.692 14.766 91.1213 14.766C93.5588 14.766 95.7142 13.8765 95.9438 11.376C95.9827 10.911 95.9887 10.716 95.9932 10.4685V6.78H91.1482L91.1535 6.77025L91.1602 6.7665ZM67.3275 0.745504H63.8498V10.9028C63.8588 11.0768 63.8498 11.2778 63.8228 11.4218C63.7477 11.7593 63.4597 12.4193 62.5027 12.4193C61.5577 12.4193 61.2622 11.7743 61.1978 11.4293C61.1603 11.2868 61.1572 11.0843 61.1602 10.9118V0.757504H57.69V10.5998C57.687 10.8548 57.705 11.3723 57.72 11.5073C57.96 14.0693 59.979 14.9033 62.505 14.9033C65.0325 14.9033 67.0515 14.0708 67.296 11.5095C67.311 11.3745 67.341 10.854 67.326 10.5975V0.750004L67.3275 0.742504V0.745504ZM35.4323 0.745504L33.6975 11.4728L31.968 0.745504H26.367L26.0715 14.4728H29.502L29.595 1.76625L31.9552 14.4728H35.4202L37.7827 1.76625L37.878 14.4728H41.3167L41.0025 0.745504H35.4173H35.4292H35.4323ZM14.6962 0.745504L12.1522 14.4728H15.8602L17.778 1.76625L19.647 14.4728H23.3295L20.7975 0.745504H14.6962ZM79.4565 11.7968L76.227 0.742504H71.1322V14.325H74.4983L74.3033 2.925L77.7757 14.3288H82.6657V0.746254H79.275L79.4625 11.7968H79.4565ZM48.2925 4.3125C48.228 4.0425 48.2475 3.7575 48.2775 3.6075C48.3765 3.1665 48.672 2.688 49.5195 2.688C50.3145 2.688 50.7765 3.17925 50.7765 3.92175V4.76175H54.1628V3.804C54.1628 0.849004 51.5107 0.384004 49.5915 0.384004C47.1765 0.384004 45.1987 1.194 44.8402 3.414C44.7352 4.0245 44.7202 4.554 44.8703 5.244C45.4552 8.019 50.2852 8.829 50.9917 10.5855C51.1117 10.9155 51.0818 11.34 51.0068 11.5905C50.9018 12.048 50.5793 12.507 49.6792 12.507C48.8242 12.507 48.3142 12.012 48.3142 11.2733V9.95325H44.6693V11.0003C44.6693 14.0378 47.0392 14.9528 49.6042 14.9528C52.0493 14.9528 54.0742 14.1128 54.4043 11.8478C54.5543 10.6778 54.4373 9.91275 54.3743 9.62775C53.8042 6.77775 48.6593 5.92275 48.2692 4.33275L48.2842 4.30575L48.2925 4.3125Z" fill="currentColor"></path>
    </g>
    <defs>
      <clipPath id="clip0_16_116">
        <rect width="96" height="15" fill="white"></rect>
      </clipPath>
    </defs>
  </symbol>
    <symbol fill="none" xmlns="http://www.w3.org/2000/svg" viewBox="0 0 41 33" id="header-product03">
    <path d="M13.4944 20.6H14.4904V27.152C14.4904 27.792 14.3464 28.28 14.0584 28.616C13.7784 28.952 13.3504 29.12 12.7744 29.12C12.7104 29.12 12.6304 29.116 12.5344 29.108C12.4384 29.1 12.3424 29.088 12.2464 29.072C12.1504 29.056 12.0584 29.036 11.9704 29.012C11.8744 28.988 11.7984 28.96 11.7424 28.928L11.9344 28.076C12.1584 28.18 12.4024 28.232 12.6664 28.232C13.0024 28.232 13.2224 28.116 13.3264 27.884C13.4384 27.644 13.4944 27.32 13.4944 26.912V20.6ZM21.7266 22.52C21.7266 22.72 21.6946 22.924 21.6306 23.132C21.5666 23.34 21.4706 23.536 21.3426 23.72C21.2146 23.896 21.0506 24.052 20.8506 24.188C20.6506 24.324 20.4146 24.428 20.1426 24.5V24.548C20.3826 24.588 20.6106 24.656 20.8266 24.752C21.0506 24.848 21.2466 24.98 21.4146 25.148C21.5826 25.316 21.7186 25.52 21.8226 25.76C21.9266 26 21.9786 26.284 21.9786 26.612C21.9786 27.044 21.8866 27.42 21.7026 27.74C21.5266 28.052 21.2906 28.308 20.9946 28.508C20.7066 28.708 20.3746 28.856 19.9986 28.952C19.6226 29.048 19.2386 29.096 18.8466 29.096C18.7106 29.096 18.5506 29.096 18.3666 29.096C18.1826 29.096 17.9906 29.088 17.7906 29.072C17.5906 29.064 17.3906 29.048 17.1906 29.024C16.9906 29.008 16.8146 28.98 16.6626 28.94V20.672C16.9586 20.624 17.3026 20.584 17.6946 20.552C18.0866 20.52 18.5146 20.504 18.9786 20.504C19.2906 20.504 19.6066 20.532 19.9266 20.588C20.2546 20.636 20.5506 20.736 20.8146 20.888C21.0786 21.032 21.2946 21.236 21.4626 21.5C21.6386 21.764 21.7266 22.104 21.7266 22.52ZM18.9426 28.232C19.1986 28.232 19.4466 28.204 19.6866 28.148C19.9266 28.084 20.1386 27.988 20.3226 27.86C20.5066 27.724 20.6506 27.56 20.7546 27.368C20.8666 27.176 20.9226 26.948 20.9226 26.684C20.9226 26.356 20.8546 26.092 20.7186 25.892C20.5906 25.692 20.4186 25.536 20.2026 25.424C19.9946 25.312 19.7586 25.236 19.4946 25.196C19.2306 25.156 18.9666 25.136 18.7026 25.136H17.6586V28.148C17.7146 28.164 17.7946 28.176 17.8986 28.184C18.0026 28.192 18.1146 28.2 18.2346 28.208C18.3546 28.216 18.4786 28.224 18.6066 28.232C18.7346 28.232 18.8466 28.232 18.9426 28.232ZM18.2826 24.296C18.4186 24.296 18.5826 24.292 18.7746 24.284C18.9666 24.276 19.1266 24.264 19.2546 24.248C19.4466 24.184 19.6266 24.108 19.7946 24.02C19.9626 23.924 20.1106 23.816 20.2386 23.696C20.3746 23.568 20.4786 23.424 20.5506 23.264C20.6306 23.096 20.6706 22.916 20.6706 22.724C20.6706 22.46 20.6186 22.244 20.5146 22.076C20.4186 21.9 20.2866 21.76 20.1186 21.656C19.9506 21.552 19.7586 21.48 19.5426 21.44C19.3266 21.392 19.1066 21.368 18.8826 21.368C18.6186 21.368 18.3746 21.376 18.1506 21.392C17.9346 21.4 17.7706 21.416 17.6586 21.44V24.296H18.2826ZM28.6384 29H23.6704V20.6H24.6664V28.112H28.6384V29Z" fill="#E5E5E5"></path>
    <path d="M7 0.000111501L9.2516 5.11016L11.5027 0.000111501H7ZM9.2516 8.46379C10.029 8.46379 10.6608 7.83411 10.6608 7.06011C10.6608 6.28234 10.029 5.65511 9.2516 5.65511C8.47182 5.65511 7.8418 6.28234 7.8418 7.06011C7.8418 7.83411 8.47182 8.4639 9.2516 8.4639V8.46379ZM8.03377 12.2062C8.03377 13.2721 8.9936 15 11.7241 15C14.4554 15 15.4158 13.6781 15.4158 12.2062V0.000111501H12.9787L12.9799 12.6303C12.9799 13.3202 12.419 13.8988 11.726 13.8988C11.0322 13.8988 10.4701 13.337 10.4701 12.6472L10.4683 10.0741H8.03377V12.2062ZM17.263 14.7805V0.000111501H22.134C23.0739 0.000111501 24.5692 0.771763 24.5692 2.40838V4.9261C24.5692 5.66234 23.9236 6.96692 22.9644 6.96692C23.9236 6.96692 24.5692 7.79335 24.5692 8.41947V12.8498C24.5692 13.6033 23.9609 14.7805 22.134 14.7805H17.263ZM21.0268 6.36362C21.9126 6.36362 22.1341 6.21441 22.1341 3.89757C22.1341 1.58139 21.9125 1.39666 21.0268 1.39666H19.6964V6.36006L21.0268 6.36362ZM22.1341 10.6069C22.1341 8.28953 22.1341 7.61096 21.1724 7.61096H19.6964V13.5662L21.1723 13.5692C22.134 13.5692 22.134 12.9226 22.134 10.6069H22.1341ZM26.342 14.7805H33.7239V10.0741H31.2869L31.2887 12.6471C31.2887 13.337 30.7267 13.8988 30.0334 13.8988C29.3408 13.8988 28.7782 13.337 28.7782 12.6472V0H26.3418L26.342 14.7805Z" fill="currentColor"></path>
  </symbol>
    <symbol fill="none" xmlns="http://www.w3.org/2000/svg" viewBox="0 0 59 33" id="header-product04">
    <path d="M14.4272 23.36L14.5472 22.1H14.4872L14.0312 23.252L11.8472 27.044H11.5472L9.23117 23.24L8.79917 22.1H8.73917L8.90717 23.348V29H7.97117V20.6H8.71517L11.3432 24.896L11.7392 25.832H11.7632L12.1352 24.872L14.6432 20.6H15.4232V29H14.4272V23.36ZM17.2714 23.444C17.5754 23.26 17.9274 23.124 18.3274 23.036C18.7354 22.948 19.1594 22.904 19.5994 22.904C20.0154 22.904 20.3474 22.96 20.5954 23.072C20.8514 23.184 21.0434 23.332 21.1714 23.516C21.3074 23.692 21.3954 23.888 21.4354 24.104C21.4834 24.32 21.5074 24.536 21.5074 24.752C21.5074 25.232 21.4954 25.7 21.4714 26.156C21.4474 26.612 21.4354 27.044 21.4354 27.452C21.4354 27.748 21.4474 28.028 21.4714 28.292C21.4954 28.556 21.5394 28.8 21.6034 29.024H20.8954L20.6434 28.184H20.5834C20.5114 28.296 20.4194 28.408 20.3074 28.52C20.2034 28.624 20.0754 28.72 19.9234 28.808C19.7714 28.888 19.5954 28.956 19.3954 29.012C19.1954 29.068 18.9674 29.096 18.7114 29.096C18.4554 29.096 18.2154 29.056 17.9914 28.976C17.7754 28.896 17.5874 28.784 17.4274 28.64C17.2674 28.488 17.1394 28.308 17.0434 28.1C16.9554 27.892 16.9114 27.656 16.9114 27.392C16.9114 27.04 16.9834 26.748 17.1274 26.516C17.2714 26.276 17.4714 26.088 17.7274 25.952C17.9914 25.808 18.3034 25.708 18.6634 25.652C19.0314 25.588 19.4354 25.556 19.8754 25.556C19.9874 25.556 20.0954 25.556 20.1994 25.556C20.3114 25.556 20.4234 25.564 20.5354 25.58C20.5594 25.34 20.5714 25.124 20.5714 24.932C20.5714 24.492 20.4834 24.184 20.3074 24.008C20.1314 23.832 19.8114 23.744 19.3474 23.744C19.2114 23.744 19.0634 23.756 18.9034 23.78C18.7514 23.796 18.5914 23.824 18.4234 23.864C18.2634 23.896 18.1074 23.94 17.9554 23.996C17.8114 24.044 17.6834 24.1 17.5714 24.164L17.2714 23.444ZM18.9754 28.256C19.1994 28.256 19.3994 28.228 19.5754 28.172C19.7514 28.108 19.9034 28.032 20.0314 27.944C20.1594 27.848 20.2634 27.744 20.3434 27.632C20.4314 27.52 20.4954 27.412 20.5354 27.308V26.312C20.4234 26.304 20.3074 26.3 20.1874 26.3C20.0754 26.292 19.9634 26.288 19.8514 26.288C19.6034 26.288 19.3594 26.304 19.1194 26.336C18.8874 26.36 18.6794 26.412 18.4954 26.492C18.3194 26.564 18.1754 26.668 18.0634 26.804C17.9594 26.932 17.9074 27.096 17.9074 27.296C17.9074 27.576 18.0074 27.808 18.2074 27.992C18.4074 28.168 18.6634 28.256 18.9754 28.256ZM26.1525 23.924C25.9125 23.844 25.6845 23.804 25.4685 23.804C25.1245 23.804 24.8525 23.9 24.6525 24.092C24.4525 24.276 24.3285 24.512 24.2805 24.8V29H23.3205V23H23.9925L24.1725 23.732H24.2205C24.3725 23.46 24.5525 23.252 24.7605 23.108C24.9765 22.956 25.2485 22.88 25.5765 22.88C25.8085 22.88 26.0685 22.92 26.3565 23L26.1525 23.924ZM30.0386 27.368C30.0386 27.128 29.9666 26.94 29.8226 26.804C29.6786 26.668 29.4986 26.556 29.2826 26.468C29.0746 26.372 28.8426 26.284 28.5866 26.204C28.3386 26.116 28.1066 26.008 27.8906 25.88C27.6826 25.744 27.5066 25.572 27.3626 25.364C27.2186 25.156 27.1466 24.876 27.1466 24.524C27.1466 23.948 27.3106 23.528 27.6386 23.264C27.9666 22.992 28.4226 22.856 29.0066 22.856C29.4386 22.856 29.7986 22.896 30.0866 22.976C30.3826 23.048 30.6386 23.136 30.8546 23.24L30.6266 24.032C30.4426 23.944 30.2186 23.868 29.9546 23.804C29.6986 23.732 29.4226 23.696 29.1266 23.696C28.7746 23.696 28.5146 23.756 28.3466 23.876C28.1866 23.996 28.1066 24.204 28.1066 24.5C28.1066 24.708 28.1786 24.872 28.3226 24.992C28.4666 25.104 28.6426 25.208 28.8506 25.304C29.0666 25.392 29.2986 25.48 29.5466 25.568C29.8026 25.656 30.0346 25.772 30.2426 25.916C30.4586 26.06 30.6386 26.244 30.7826 26.468C30.9266 26.684 30.9986 26.972 30.9986 27.332C30.9986 27.588 30.9546 27.828 30.8666 28.052C30.7866 28.276 30.6586 28.468 30.4826 28.628C30.3066 28.788 30.0866 28.912 29.8226 29C29.5666 29.096 29.2626 29.144 28.9106 29.144C28.4546 29.144 28.0666 29.1 27.7466 29.012C27.4266 28.924 27.1586 28.82 26.9426 28.7L27.2306 27.884C27.4146 27.988 27.6546 28.084 27.9506 28.172C28.2466 28.26 28.5466 28.304 28.8506 28.304C29.1946 28.304 29.4786 28.236 29.7026 28.1C29.9266 27.964 30.0386 27.72 30.0386 27.368ZM36.3014 29V25.58C36.3014 25.268 36.2814 24.996 36.2414 24.764C36.2094 24.524 36.1454 24.328 36.0494 24.176C35.9534 24.016 35.8214 23.896 35.6534 23.816C35.4934 23.736 35.2814 23.696 35.0174 23.696C34.6414 23.696 34.3014 23.82 33.9974 24.068C33.6934 24.308 33.4974 24.62 33.4094 25.004V29H32.4494V20.6H33.4094V23.672H33.4574C33.6654 23.424 33.9134 23.228 34.2014 23.084C34.4974 22.932 34.8614 22.856 35.2934 22.856C35.6294 22.856 35.9214 22.896 36.1694 22.976C36.4174 23.048 36.6214 23.18 36.7814 23.372C36.9494 23.564 37.0694 23.824 37.1414 24.152C37.2214 24.472 37.2614 24.88 37.2614 25.376V29H36.3014ZM38.9159 23.444C39.2199 23.26 39.5719 23.124 39.9719 23.036C40.3799 22.948 40.8039 22.904 41.2439 22.904C41.6599 22.904 41.9919 22.96 42.2399 23.072C42.4959 23.184 42.6879 23.332 42.8159 23.516C42.9519 23.692 43.0399 23.888 43.0799 24.104C43.1279 24.32 43.1519 24.536 43.1519 24.752C43.1519 25.232 43.1399 25.7 43.1159 26.156C43.0919 26.612 43.0799 27.044 43.0799 27.452C43.0799 27.748 43.0919 28.028 43.1159 28.292C43.1399 28.556 43.1839 28.8 43.2479 29.024H42.5399L42.2879 28.184H42.2279C42.1559 28.296 42.0639 28.408 41.9519 28.52C41.8479 28.624 41.7199 28.72 41.5679 28.808C41.4159 28.888 41.2399 28.956 41.0399 29.012C40.8399 29.068 40.6119 29.096 40.3559 29.096C40.0999 29.096 39.8599 29.056 39.6359 28.976C39.4199 28.896 39.2319 28.784 39.0719 28.64C38.9119 28.488 38.7839 28.308 38.6879 28.1C38.5999 27.892 38.5559 27.656 38.5559 27.392C38.5559 27.04 38.6279 26.748 38.7719 26.516C38.9159 26.276 39.1159 26.088 39.3719 25.952C39.6359 25.808 39.9479 25.708 40.3079 25.652C40.6759 25.588 41.0799 25.556 41.5199 25.556C41.6319 25.556 41.7399 25.556 41.8439 25.556C41.9559 25.556 42.0679 25.564 42.1799 25.58C42.2039 25.34 42.2159 25.124 42.2159 24.932C42.2159 24.492 42.1279 24.184 41.9519 24.008C41.7759 23.832 41.4559 23.744 40.9919 23.744C40.8559 23.744 40.7079 23.756 40.5479 23.78C40.3959 23.796 40.2359 23.824 40.0679 23.864C39.9079 23.896 39.7519 23.94 39.5999 23.996C39.4559 24.044 39.3279 24.1 39.2159 24.164L38.9159 23.444ZM40.6199 28.256C40.8439 28.256 41.0439 28.228 41.2199 28.172C41.3959 28.108 41.5479 28.032 41.6759 27.944C41.8039 27.848 41.9079 27.744 41.9879 27.632C42.0759 27.52 42.1399 27.412 42.1799 27.308V26.312C42.0679 26.304 41.9519 26.3 41.8319 26.3C41.7199 26.292 41.6079 26.288 41.4959 26.288C41.2479 26.288 41.0039 26.304 40.7639 26.336C40.5319 26.36 40.3239 26.412 40.1399 26.492C39.9639 26.564 39.8199 26.668 39.7079 26.804C39.6039 26.932 39.5519 27.096 39.5519 27.296C39.5519 27.576 39.6519 27.808 39.8519 27.992C40.0519 28.168 40.3079 28.256 40.6199 28.256ZM46.033 27.524C46.033 27.804 46.081 28.004 46.177 28.124C46.273 28.244 46.409 28.304 46.585 28.304C46.689 28.304 46.801 28.296 46.921 28.28C47.041 28.264 47.177 28.228 47.329 28.172L47.437 28.928C47.309 28.992 47.129 29.044 46.897 29.084C46.673 29.124 46.477 29.144 46.309 29.144C45.949 29.144 45.653 29.044 45.421 28.844C45.189 28.636 45.073 28.288 45.073 27.8V20.6H46.033V27.524ZM49.5369 27.524C49.5369 27.804 49.5849 28.004 49.6809 28.124C49.7769 28.244 49.9129 28.304 50.0889 28.304C50.1929 28.304 50.3049 28.296 50.4249 28.28C50.5449 28.264 50.6809 28.228 50.8329 28.172L50.9409 28.928C50.8129 28.992 50.6329 29.044 50.4009 29.084C50.1769 29.124 49.9809 29.144 49.8129 29.144C49.4529 29.144 49.1569 29.044 48.9249 28.844C48.6929 28.636 48.5769 28.288 48.5769 27.8V20.6H49.5369V27.524Z" fill="#E5E5E5"></path>
    <g clip-path="url(#clip0_16_123)">
      <path d="M7.91682 14.8056C7.65674 14.6154 7.66239 14.5658 8.17491 12.5428C8.46311 11.4053 8.72889 10.1131 8.76554 9.67129L8.83217 8.86805L8.1456 10.2001C6.92268 12.5727 6.02215 13.7248 4.85664 14.4078C4.12625 14.8359 2.77306 14.98 1.86676 14.7262C0.0189364 14.2089 -0.640733 11.7362 0.731596 10.4712C1.55805 9.7094 3.92193 10.0146 3.65713 10.8489C3.56988 11.1238 3.49842 11.1459 2.95942 11.0651C2.43415 10.9863 2.31473 11.0192 2.00626 11.3277C1.73344 11.6005 1.65361 11.8194 1.65361 12.2945C1.65361 12.811 1.72094 12.9652 2.07758 13.2653C2.80882 13.8806 3.93231 13.6787 4.83742 12.7694C5.46273 12.1412 6.53891 10.1633 7.91681 7.10992C9.34845 3.93744 10.2102 2.22479 10.9587 1.06449C11.6372 0.0127543 11.7449 -0.0762353 12.2008 0.0381819C12.717 0.167747 12.744 0.632571 12.2935 1.63858C11.4441 3.53571 10.8334 5.76551 10.6721 7.55898L10.5792 8.59245L11.9261 6.6633C13.6353 4.21507 14.6233 2.9895 16.1748 1.39257C17.1651 0.373371 17.4918 0.117954 17.8055 0.117954C18.299 0.117954 18.4466 0.458294 18.1592 0.933493C18.0408 1.12915 17.3424 2.28136 16.6071 3.49397C13.8817 7.98857 12.6478 11.2881 13.0851 12.9122C13.2733 13.6111 13.5903 13.7231 14.3616 13.3633C15.2029 12.9709 15.6289 12.5325 16.1261 11.5476C17.0352 9.7465 18.8386 8.38576 20.3164 8.38576C20.7043 8.38576 21.1456 8.47258 21.2971 8.57869C21.5332 8.74406 21.6102 8.74406 21.8364 8.57869C22.1802 8.32725 22.7958 8.33186 23.008 8.58746C23.1439 8.7513 23.0327 9.06814 22.4152 10.2755C21.9972 11.0929 21.5118 12.021 21.3365 12.3378C21.1613 12.6547 21.0603 12.9563 21.1121 13.0081C21.4275 13.3235 22.852 11.8088 24.3021 9.61601C24.8034 8.85798 24.8072 8.84183 24.6 8.34582C24.3306 7.70118 24.3302 6.42095 24.5991 5.90091C24.825 5.46411 25.4393 5.07864 25.9096 5.07864C26.0708 5.07864 26.3839 5.25989 26.6054 5.48143C26.9343 5.81029 27.0082 6.00098 27.0082 6.52039C27.0082 6.88463 26.8904 7.38748 26.7326 7.69677C26.3698 8.40794 26.3777 8.43469 26.9245 8.34596C27.4903 8.25413 27.9728 8.54599 27.9728 8.98016C27.9728 9.14745 27.5351 9.83879 26.9962 10.5226C25.1724 12.8368 24.878 13.9976 26.2613 13.4196C27.1628 13.043 27.6192 12.5936 29.7648 9.96961C31.3274 8.05862 31.925 7.42118 32.1537 7.42118C32.506 7.42118 33.0713 7.77905 33.0713 8.00211C33.0713 8.08566 32.8132 8.49581 32.4978 8.91356L31.9243 9.6731L32.1073 10.304C32.2079 10.6511 32.3172 11.1985 32.3501 11.5206C32.3831 11.8427 32.4404 12.1063 32.4776 12.1063C32.5148 12.1063 32.9022 11.8558 33.3385 11.5498C33.9715 11.1058 34.2034 10.8342 34.4859 10.2063C36.0307 6.77219 37.255 4.13282 37.4237 3.87292C37.6618 3.50607 38.4502 3.44332 38.721 3.76966C38.9039 3.99001 38.9007 3.999 37.4305 7.45915L36.7996 8.94399L37.3934 8.59598C38.0447 8.21429 38.5514 8.15453 38.8837 8.42021C39.1967 8.67049 39.4133 9.43358 39.3159 9.94276C39.228 10.4029 38.5779 11.7557 37.9619 12.7608C37.7476 13.1104 37.6698 13.3464 37.7688 13.3464C38.1407 13.3464 39.1132 12.3589 39.4804 11.6083C39.963 10.6219 41.4547 9.0968 42.3725 8.65128C43.2427 8.2289 44.3444 8.19462 44.7666 8.57676C45.0165 8.80284 45.0645 8.80894 45.1356 8.62365C45.3092 8.17115 46.5753 8.2444 46.5753 8.70694C46.5753 8.81155 46.1413 9.73487 45.6108 10.7587C45.0802 11.7826 44.6462 12.7547 44.6462 12.9188C44.6462 13.4456 45.0241 13.4018 45.7542 12.7906C46.315 12.321 46.5835 11.9329 47.1227 10.8128C48.4642 8.0258 50.5005 5.4585 52.361 4.20861C53.4442 3.48082 54.4298 3.55643 54.4298 4.36734C54.4298 4.79777 53.5374 6.72182 52.9248 7.6122C52.2988 8.52197 50.8976 9.83302 49.597 10.7258C48.1676 11.707 48.1132 11.7689 48.0083 12.5339C47.9061 13.2799 48.259 13.7135 48.8481 13.5657C49.4626 13.4115 50.7249 11.9735 51.5306 10.51C52.5907 8.58418 53.1175 7.76612 53.9948 6.68342C54.9136 5.54952 56.8739 3.89857 57.4525 3.7715C58.0168 3.64755 58.4095 3.79441 58.5023 4.16411C58.5995 4.55133 58.0538 6.07085 57.4444 7.10989C56.8712 8.08704 54.9752 9.98921 53.563 11.0039C52.4537 11.8009 52.2201 12.2077 52.4182 12.9971C52.6738 14.0157 53.8498 13.5903 55.1389 12.0127C55.8876 11.0964 56.0049 11.0042 56.1882 11.1875C56.4862 11.4855 56.3315 11.897 55.5146 12.9792C54.7411 14.0039 53.687 14.7924 52.9018 14.9335C52.0367 15.0889 51.1162 14.4855 50.8032 13.5577C50.7785 13.4844 50.5457 13.6249 50.2859 13.8699C49.6326 14.486 48.5546 15 47.9157 15C47.5084 15 47.2849 14.904 46.9781 14.5972C46.7566 14.3757 46.5753 14.0656 46.5753 13.9082C46.5753 13.7508 46.5417 13.622 46.5005 13.622C46.4594 13.622 46.1028 13.8658 45.7082 14.1636C44.496 15.0787 43.8631 15.1493 43.284 14.4341L43.052 14.1475L42.5745 14.4284C42.3118 14.5828 41.8015 14.7751 41.4404 14.8556C40.6758 15.0262 40.098 14.8454 39.5674 14.2697L39.2426 13.9173L38.6953 14.3138C37.8598 14.919 37.3099 15.0613 36.8086 14.802C36.29 14.5339 35.964 14.0776 35.9682 13.6258C35.97 13.4343 36.3421 12.5684 36.795 11.7017C37.248 10.8351 37.6186 10.0755 37.6186 10.0137C37.6186 9.74919 37.2241 9.94881 36.5265 10.5664C35.879 11.1396 35.6748 11.4576 35.002 12.9414C34.1137 14.9006 33.781 15.2362 33.1057 14.855C32.7104 14.6318 32.6166 14.1332 32.8637 13.5685C32.9385 13.3976 32.6353 13.5487 31.9799 14.0089C30.3293 15.1681 28.9997 15.2628 28.0874 14.2862L27.7191 13.8919L26.9847 14.3314C26.4597 14.6457 26.026 14.7886 25.4636 14.8327C24.7323 14.8902 24.6472 14.865 24.2578 14.4756C23.9534 14.1711 23.8389 13.927 23.8389 13.5822C23.8389 12.9208 24.6531 11.3632 25.4878 10.4279C25.9252 9.93776 26.1294 9.61003 26.0341 9.55111C25.8489 9.43669 25.9155 9.36085 24.5993 11.1866C23.1474 13.2006 22.3125 14.0852 21.4646 14.5077C20.6036 14.9368 20.0316 14.9581 19.6252 14.5763L19.3209 14.2905L18.7605 14.5763C18.0308 14.9486 17.0299 14.9525 16.4277 14.5853C16.1788 14.4336 15.9401 14.218 15.8973 14.1063C15.8344 13.9424 15.7077 13.98 15.2414 14.3008C14.2602 14.9759 13.0689 15.1347 12.2309 14.7022C11.5902 14.3715 11.353 12.9472 11.615 11.0039L11.7172 10.246L11.2861 11.0039C10.0908 13.1053 8.66337 15 8.27561 15C8.22453 15 8.06307 14.9125 7.91682 14.8056ZM30.3905 13.5594C30.6651 13.2848 30.7284 13.084 30.7268 12.4915C30.7247 11.6465 30.6073 11.1132 30.4363 11.1705C30.1935 11.2519 29.0752 12.7327 29.0752 12.9728C29.0752 13.2435 29.6599 13.8976 29.9019 13.8976C29.9846 13.8976 30.2045 13.7454 30.3905 13.5594ZM42.5392 12.8665C43.6843 11.8863 44.5008 9.48683 43.7266 9.37659C42.709 9.23166 40.784 11.4186 40.7459 12.763C40.7184 13.7318 41.4771 13.7755 42.5392 12.8665ZM18.7613 13.0872C19.6944 12.4954 20.4634 11.2653 20.6216 10.1114C20.7153 9.42807 20.5419 9.24875 19.9349 9.40109C18.6727 9.71789 16.7788 12.5743 17.3637 13.2791C17.6207 13.5888 18.067 13.5275 18.7613 13.0872ZM50.6787 8.42021C51.6634 7.45099 53.1033 5.35423 52.7842 5.35423C52.7205 5.35423 52.1784 5.87183 51.5796 6.50446C50.5354 7.60764 49.2042 9.48813 49.4675 9.48813C49.537 9.48813 50.082 9.00757 50.6787 8.42021ZM55.1813 8.17906C55.8603 7.5546 57.2257 5.35423 56.9343 5.35423C56.5355 5.35423 53.7408 8.89198 53.7408 9.39671C53.7408 9.47855 54.0312 9.26907 54.3861 8.93119C54.7411 8.59331 55.0989 8.25485 55.1813 8.17906ZM25.8899 7.13199C26.0234 6.74905 25.9095 6.18101 25.6991 6.18101C25.5235 6.18101 25.3483 6.8032 25.4253 7.15367C25.54 7.67593 25.703 7.66833 25.8899 7.13199Z" fill="currentColor"></path>
    </g>
    <defs>
      <clipPath id="clip0_16_123">
        <rect width="58.5136" height="15" fill="white"></rect>
      </clipPath>
    </defs>
  </symbol>
   <symbol fill="none" xmlns="http://www.w3.org/2000/svg" viewBox="0 0 36 33" id="header-product05">
    <g clip-path="url(#clip0_16_115)">
      <path d="M18.5 0C16.01 0 13.9725 0.159375 12.5581 1.5725C11.1438 2.985 11 5.02063 11 7.5075C11 9.995 11.1438 12.0294 12.5587 13.4431C13.9731 14.8563 16.0106 15 18.5 15C20.9894 15 23.0269 14.8563 24.4412 13.4431C25.8563 12.0294 26 9.99375 26 7.5075C26 5.0175 25.8544 2.98062 24.4362 1.5675C23.0212 0.1575 20.9862 0 18.5 0ZM14.0663 4.62813H17.5812C18.5 4.62813 19.4606 4.67063 19.9338 5.145C20.4 5.61125 20.4506 6.54063 20.4525 7.4425V10.28C20.452 10.3048 20.4417 10.3283 20.4239 10.3455C20.4061 10.3627 20.3823 10.3722 20.3575 10.3719H19.1406C19.1283 10.372 19.1161 10.3698 19.1047 10.3652C19.0932 10.3607 19.0828 10.3539 19.074 10.3453C19.0651 10.3367 19.0581 10.3265 19.0532 10.3152C19.0484 10.3038 19.0458 10.2917 19.0456 10.2794V7.39375C19.0444 6.89 19.0156 6.3725 18.7556 6.11188C18.5319 5.88688 18.1144 5.83625 17.6806 5.82562H15.4738C15.4491 5.82546 15.4254 5.835 15.4077 5.8522C15.39 5.86939 15.3799 5.89285 15.3794 5.9175V10.28C15.3792 10.2923 15.3766 10.3045 15.3718 10.3158C15.3669 10.3271 15.3599 10.3373 15.351 10.3459C15.3422 10.3545 15.3318 10.3613 15.3203 10.3658C15.3089 10.3704 15.2967 10.3727 15.2844 10.3725H14.0663C14.0416 10.3725 14.0179 10.3628 14.0004 10.3455C13.9829 10.3282 13.9728 10.3046 13.9725 10.28V4.72125C13.9727 4.69649 13.9826 4.67281 14.0002 4.65536C14.0177 4.63792 14.0415 4.62812 14.0663 4.62813ZM21.6481 4.62813H22.8663C22.8911 4.62813 22.915 4.638 22.9325 4.65558C22.9501 4.67317 22.96 4.69701 22.96 4.72187V10.2794C22.9597 10.304 22.9496 10.3275 22.9321 10.3449C22.9146 10.3622 22.8909 10.3719 22.8663 10.3719H21.6481C21.6234 10.372 21.5996 10.3624 21.5819 10.3451C21.5642 10.3278 21.5541 10.3041 21.5538 10.2794V4.72125C21.5538 4.70894 21.5563 4.69676 21.5611 4.68542C21.5659 4.67408 21.5729 4.66379 21.5816 4.65514C21.5904 4.64649 21.6008 4.63966 21.6122 4.63502C21.6236 4.63039 21.6358 4.62804 21.6481 4.62813ZM16.575 6.8425H17.8537C17.9056 6.8425 17.9475 6.88375 17.9475 6.93438V10.2794C17.9472 10.304 17.9371 10.3275 17.9196 10.3449C17.9021 10.3622 17.8784 10.3719 17.8537 10.3719H16.575C16.5627 10.372 16.5505 10.3698 16.539 10.3652C16.5276 10.3607 16.5172 10.3539 16.5083 10.3453C16.4995 10.3367 16.4925 10.3265 16.4876 10.3152C16.4827 10.3038 16.4802 10.2917 16.48 10.2794V6.93438C16.4805 6.90962 16.4908 6.88606 16.5086 6.86885C16.5264 6.85164 16.5502 6.84216 16.575 6.8425Z" fill="currentColor"></path>
    </g>
    <path d="M3.12558 27.728L0.569578 23.6H1.76958L3.47358 26.444L3.77358 27.128L4.06158 26.444L5.86158 23.6H6.96558L4.32558 27.644L7.08558 32H5.92158L4.02558 28.988L3.70158 28.268L3.38958 28.988L1.44558 32H0.329578L3.12558 27.728ZM8.56355 26H9.52355V32H8.56355V26ZM8.35955 24.176C8.35955 23.992 8.41955 23.836 8.53955 23.708C8.66755 23.572 8.82755 23.504 9.01955 23.504C9.21155 23.504 9.37555 23.572 9.51155 23.708C9.64755 23.836 9.71555 23.992 9.71555 24.176C9.71555 24.36 9.64755 24.512 9.51155 24.632C9.37555 24.752 9.21155 24.812 9.01955 24.812C8.82755 24.812 8.66755 24.752 8.53955 24.632C8.41955 24.512 8.35955 24.36 8.35955 24.176ZM11.4745 26.444C11.7785 26.26 12.1305 26.124 12.5305 26.036C12.9385 25.948 13.3625 25.904 13.8025 25.904C14.2185 25.904 14.5505 25.96 14.7985 26.072C15.0545 26.184 15.2465 26.332 15.3745 26.516C15.5105 26.692 15.5985 26.888 15.6385 27.104C15.6865 27.32 15.7105 27.536 15.7105 27.752C15.7105 28.232 15.6985 28.7 15.6745 29.156C15.6505 29.612 15.6385 30.044 15.6385 30.452C15.6385 30.748 15.6505 31.028 15.6745 31.292C15.6985 31.556 15.7425 31.8 15.8065 32.024H15.0985L14.8465 31.184H14.7865C14.7145 31.296 14.6225 31.408 14.5105 31.52C14.4065 31.624 14.2785 31.72 14.1265 31.808C13.9745 31.888 13.7985 31.956 13.5985 32.012C13.3985 32.068 13.1705 32.096 12.9145 32.096C12.6585 32.096 12.4185 32.056 12.1945 31.976C11.9785 31.896 11.7905 31.784 11.6305 31.64C11.4705 31.488 11.3425 31.308 11.2465 31.1C11.1585 30.892 11.1145 30.656 11.1145 30.392C11.1145 30.04 11.1865 29.748 11.3305 29.516C11.4745 29.276 11.6745 29.088 11.9305 28.952C12.1945 28.808 12.5065 28.708 12.8665 28.652C13.2345 28.588 13.6385 28.556 14.0785 28.556C14.1905 28.556 14.2985 28.556 14.4025 28.556C14.5145 28.556 14.6265 28.564 14.7385 28.58C14.7625 28.34 14.7745 28.124 14.7745 27.932C14.7745 27.492 14.6865 27.184 14.5105 27.008C14.3345 26.832 14.0145 26.744 13.5505 26.744C13.4145 26.744 13.2665 26.756 13.1065 26.78C12.9545 26.796 12.7945 26.824 12.6265 26.864C12.4665 26.896 12.3105 26.94 12.1585 26.996C12.0145 27.044 11.8865 27.1 11.7745 27.164L11.4745 26.444ZM13.1785 31.256C13.4025 31.256 13.6025 31.228 13.7785 31.172C13.9545 31.108 14.1065 31.032 14.2345 30.944C14.3625 30.848 14.4665 30.744 14.5465 30.632C14.6345 30.52 14.6985 30.412 14.7385 30.308V29.312C14.6265 29.304 14.5105 29.3 14.3905 29.3C14.2785 29.292 14.1665 29.288 14.0545 29.288C13.8065 29.288 13.5625 29.304 13.3225 29.336C13.0905 29.36 12.8825 29.412 12.6985 29.492C12.5225 29.564 12.3785 29.668 12.2665 29.804C12.1625 29.932 12.1105 30.096 12.1105 30.296C12.1105 30.576 12.2105 30.808 12.4105 30.992C12.6105 31.168 12.8665 31.256 13.1785 31.256ZM17.1876 29C17.1876 27.984 17.4116 27.208 17.8596 26.672C18.3156 26.128 18.9676 25.856 19.8156 25.856C20.2636 25.856 20.6516 25.932 20.9796 26.084C21.3156 26.228 21.5916 26.44 21.8076 26.72C22.0236 26.992 22.1836 27.324 22.2876 27.716C22.3916 28.1 22.4436 28.528 22.4436 29C22.4436 30.016 22.2156 30.796 21.7596 31.34C21.3116 31.876 20.6636 32.144 19.8156 32.144C19.3676 32.144 18.9756 32.072 18.6396 31.928C18.3116 31.776 18.0396 31.564 17.8236 31.292C17.6076 31.012 17.4476 30.68 17.3436 30.296C17.2396 29.904 17.1876 29.472 17.1876 29ZM18.1836 29C18.1836 29.304 18.2116 29.596 18.2676 29.876C18.3316 30.156 18.4276 30.4 18.5556 30.608C18.6836 30.816 18.8516 30.984 19.0596 31.112C19.2676 31.24 19.5196 31.304 19.8156 31.304C20.9036 31.312 21.4476 30.544 21.4476 29C21.4476 28.688 21.4156 28.392 21.3516 28.112C21.2956 27.832 21.2036 27.588 21.0756 27.38C20.9476 27.172 20.7796 27.008 20.5716 26.888C20.3636 26.76 20.1116 26.696 19.8156 26.696C18.7276 26.688 18.1836 27.456 18.1836 29ZM27.4732 32V28.604C27.4732 28.284 27.4572 28.008 27.4252 27.776C27.4012 27.536 27.3492 27.336 27.2692 27.176C27.1892 27.016 27.0732 26.896 26.9212 26.816C26.7772 26.736 26.5852 26.696 26.3452 26.696C25.9772 26.696 25.6692 26.808 25.4212 27.032C25.1812 27.256 25.0132 27.536 24.9172 27.872V32H23.9572V26H24.6292L24.8092 26.732H24.8572C25.0732 26.476 25.3212 26.268 25.6012 26.108C25.8892 25.94 26.2612 25.856 26.7172 25.856C27.1012 25.856 27.4132 25.932 27.6532 26.084C27.9012 26.228 28.0932 26.484 28.2292 26.852C28.4132 26.54 28.6652 26.296 28.9852 26.12C29.3132 25.944 29.6812 25.856 30.0892 25.856C30.4252 25.856 30.7092 25.896 30.9412 25.976C31.1732 26.048 31.3652 26.18 31.5172 26.372C31.6692 26.564 31.7772 26.824 31.8412 27.152C31.9132 27.48 31.9492 27.896 31.9492 28.4V32H30.9892V28.388C30.9892 28.1 30.9732 27.852 30.9412 27.644C30.9172 27.428 30.8612 27.252 30.7732 27.116C30.6932 26.972 30.5772 26.868 30.4252 26.804C30.2812 26.732 30.0892 26.696 29.8492 26.696C29.4492 26.696 29.1372 26.808 28.9132 27.032C28.6892 27.256 28.5292 27.576 28.4332 27.992V32H27.4732ZM33.8995 26H34.8595V32H33.8995V26ZM33.6955 24.176C33.6955 23.992 33.7555 23.836 33.8755 23.708C34.0035 23.572 34.1635 23.504 34.3555 23.504C34.5475 23.504 34.7115 23.572 34.8475 23.708C34.9835 23.836 35.0515 23.992 35.0515 24.176C35.0515 24.36 34.9835 24.512 34.8475 24.632C34.7115 24.752 34.5475 24.812 34.3555 24.812C34.1635 24.812 34.0035 24.752 33.8755 24.632C33.7555 24.512 33.6955 24.36 33.6955 24.176Z" fill="#E5E5E5"></path>
    <defs>
      <clipPath id="clip0_16_115">
        <rect width="15" height="15" fill="white" transform="translate(11)"></rect>
      </clipPath>
    </defs>
  </symbol>
    <symbol fill="none" xmlns="http://www.w3.org/2000/svg" viewBox="0 0 82 33" id="header-product06">
    <path d="M32.8315 26.864C32.8315 26.528 32.7315 26.256 32.5315 26.048C32.3315 25.832 32.0795 25.644 31.7755 25.484C31.4795 25.316 31.1555 25.16 30.8035 25.016C30.4515 24.872 30.1235 24.7 29.8195 24.5C29.5235 24.292 29.2755 24.04 29.0755 23.744C28.8755 23.44 28.7755 23.056 28.7755 22.592C28.7755 21.936 29.0035 21.416 29.4595 21.032C29.9155 20.648 30.5635 20.456 31.4035 20.456C31.8915 20.456 32.3355 20.492 32.7355 20.564C33.1355 20.636 33.4475 20.728 33.6715 20.84L33.3715 21.716C33.1875 21.628 32.9155 21.544 32.5555 21.464C32.2035 21.384 31.8035 21.344 31.3555 21.344C30.8275 21.344 30.4315 21.464 30.1675 21.704C29.9035 21.936 29.7715 22.212 29.7715 22.532C29.7715 22.844 29.8715 23.104 30.0715 23.312C30.2715 23.52 30.5195 23.708 30.8155 23.876C31.1195 24.036 31.4475 24.196 31.7995 24.356C32.1515 24.516 32.4755 24.704 32.7715 24.92C33.0755 25.128 33.3275 25.38 33.5275 25.676C33.7275 25.972 33.8275 26.34 33.8275 26.78C33.8275 27.14 33.7635 27.464 33.6355 27.752C33.5075 28.04 33.3195 28.288 33.0715 28.496C32.8235 28.704 32.5235 28.864 32.1715 28.976C31.8195 29.088 31.4195 29.144 30.9715 29.144C30.3715 29.144 29.8755 29.096 29.4835 29C29.0915 28.912 28.7875 28.812 28.5715 28.7L28.9075 27.8C29.0915 27.904 29.3635 28.008 29.7235 28.112C30.0835 28.208 30.4875 28.256 30.9355 28.256C31.1995 28.256 31.4475 28.232 31.6795 28.184C31.9115 28.128 32.1115 28.044 32.2795 27.932C32.4475 27.812 32.5795 27.664 32.6755 27.488C32.7795 27.312 32.8315 27.104 32.8315 26.864ZM34.9825 26C34.9825 24.984 35.2065 24.208 35.6545 23.672C36.1105 23.128 36.7625 22.856 37.6105 22.856C38.0585 22.856 38.4465 22.932 38.7745 23.084C39.1105 23.228 39.3865 23.44 39.6025 23.72C39.8185 23.992 39.9785 24.324 40.0825 24.716C40.1865 25.1 40.2385 25.528 40.2385 26C40.2385 27.016 40.0105 27.796 39.5545 28.34C39.1065 28.876 38.4585 29.144 37.6105 29.144C37.1625 29.144 36.7705 29.072 36.4345 28.928C36.1065 28.776 35.8345 28.564 35.6185 28.292C35.4025 28.012 35.2425 27.68 35.1385 27.296C35.0345 26.904 34.9825 26.472 34.9825 26ZM35.9785 26C35.9785 26.304 36.0065 26.596 36.0625 26.876C36.1265 27.156 36.2225 27.4 36.3505 27.608C36.4785 27.816 36.6465 27.984 36.8545 28.112C37.0625 28.24 37.3145 28.304 37.6105 28.304C38.6985 28.312 39.2425 27.544 39.2425 26C39.2425 25.688 39.2105 25.392 39.1465 25.112C39.0905 24.832 38.9985 24.588 38.8705 24.38C38.7425 24.172 38.5745 24.008 38.3665 23.888C38.1585 23.76 37.9065 23.696 37.6105 23.696C36.5225 23.688 35.9785 24.456 35.9785 26ZM45.6041 29V25.58C45.6041 24.956 45.5121 24.488 45.3281 24.176C45.1521 23.856 44.8241 23.696 44.3441 23.696C43.9201 23.696 43.5681 23.812 43.2881 24.044C43.0161 24.268 42.8241 24.552 42.7121 24.896V29H41.7521V23H42.4241L42.6041 23.732H42.6521C42.8441 23.476 43.1001 23.268 43.4201 23.108C43.7481 22.94 44.1361 22.856 44.5841 22.856C44.9121 22.856 45.2001 22.896 45.4481 22.976C45.6961 23.048 45.9001 23.18 46.0601 23.372C46.2281 23.564 46.3521 23.824 46.4321 24.152C46.5201 24.472 46.5641 24.88 46.5641 25.376V29H45.6041ZM50.0786 26.888L50.4146 28.04H50.4746L50.7386 26.876L51.9026 23H52.8746L51.0986 28.388C50.9626 28.78 50.8266 29.16 50.6906 29.528C50.5626 29.896 50.4186 30.224 50.2586 30.512C50.0986 30.8 49.9186 31.028 49.7186 31.196C49.5186 31.372 49.2866 31.46 49.0226 31.46C48.7346 31.46 48.4986 31.42 48.3146 31.34L48.4826 30.512C48.5866 30.552 48.6866 30.572 48.7826 30.572C49.0066 30.572 49.2226 30.452 49.4306 30.212C49.6386 29.98 49.8106 29.576 49.9466 29L47.5346 23H48.6386L50.0786 26.888Z" fill="#E5E5E5"></path>
    <path d="M67.0804 12.2343V13.809H75.7196V12.2289H74.0851L73.6577 12.2046C73.4848 12.1587 73.3642 12.0386 73.3203 11.9107L73.2842 11.5653V9.07508L73.3494 8.84039C73.465 8.70352 77.9336 3.60007 78.1396 3.37674C78.5705 2.88116 78.8047 2.77444 79.3818 2.77444H80.9712V1.20867H73.8534V2.77444H74.9191C75.2354 2.77444 75.3233 3.09511 75.1869 3.26606L72.1621 6.80029L72.0756 6.79041L69.1289 3.26606C68.9164 3.00419 69.0918 2.77444 69.3226 2.77444H70.3696V1.20867H61.6834V2.77444H63.2309C63.9029 2.77444 64.3392 3.20133 64.5951 3.47901C64.7957 3.6974 69.2183 8.71341 69.3226 8.8562C69.4328 8.99405 69.4328 9.01431 69.4328 9.07508V11.5653L69.4046 11.9107C69.3369 12.0386 69.2312 12.1587 69.0632 12.2046L68.6284 12.2343H67.0804ZM40.4983 1.20867V2.77889H41.8744C42.8719 2.77889 42.9446 3.33672 42.9446 3.8145V11.1893C42.9446 11.6315 42.9703 12.2343 42.3329 12.2343H40.6248V13.809H47.9033V12.2343H46.1295C45.4264 12.2343 45.3854 11.9161 45.3735 11.2199V4.90891L55.3532 13.809H57.8883L57.7554 3.7557C57.7732 3.02593 57.8137 2.77444 58.5677 2.77444H60.1602V1.20867H52.7518V2.77444H54.3833C55.1244 2.77444 55.2573 3.0704 55.2613 3.7557L55.3532 9.01431L46.6918 1.20867H40.4983ZM7.78313 0.407254C6.2228 0.407254 4.44407 0.712109 2.94994 1.37814C1.55463 2.00267 0.40686 3.00419 0.40686 4.67274C0.40686 6.16736 1.36095 7.04635 1.3313 7.01769C1.74239 7.3932 2.39409 8.03156 4.10118 8.39867C4.8596 8.56765 6.48763 8.81667 8.11516 8.99899C9.72343 9.1655 11.3129 9.32707 11.9607 9.48715C12.473 9.62253 13.3288 9.79991 13.3288 10.7624C13.3288 11.7298 12.4221 12.0204 12.264 12.0811C12.102 12.1478 11.0179 12.6449 9.05542 12.6449C7.61168 12.6449 5.87496 12.2106 5.24055 11.9917C4.51671 11.7298 3.75234 11.38 3.0369 10.5074C2.85656 10.29 2.58876 9.69467 2.58876 9.10868H0.801636V14.0679H2.77256V13.3994C2.77256 13.3312 2.87682 13.0095 3.19748 13.1671C3.60659 13.3564 4.81612 13.8292 6.08594 14.0921C7.11611 14.3065 7.78313 14.4602 9.06777 14.4602C11.1706 14.4602 12.2957 14.1212 13.0724 13.8994C13.8189 13.6844 14.7266 13.3045 15.4544 12.7239C15.8546 12.4102 16.7242 11.591 16.7242 10.1146C16.7242 8.69018 15.9712 7.80724 15.6965 7.54488C15.3314 7.17678 14.8911 6.89466 14.4252 6.67627C14.0131 6.48951 13.3767 6.25629 12.8574 6.13277C11.8357 5.87683 9.5421 5.57149 8.45214 5.46031C7.30387 5.3358 5.30082 5.17127 4.51028 4.92472C4.26768 4.85308 3.76915 4.61048 3.76915 4.04327C3.76915 3.63959 4.00334 3.29175 4.44407 3.00716C5.14716 2.56742 6.58595 2.29715 8.06477 2.29715C9.83114 2.2932 11.3184 2.68254 12.264 3.10993C12.5882 3.26606 12.9602 3.4632 13.2661 3.70877C13.603 3.98496 14.0744 4.55662 14.2458 5.35507H15.8403V1.03673H14.0675V1.53675C14.0675 1.70177 13.9005 1.9083 13.5763 1.7413C12.7858 1.31885 10.5411 0.420595 7.78313 0.407254ZM29.1076 14.5931C26.1929 14.5931 23.4898 13.7156 21.6755 12.089C20.3167 10.8647 19.6512 9.1986 19.6512 7.49103C19.6512 5.80173 20.3414 4.11293 21.6755 2.89401C23.3559 1.36777 26.3239 0.406761 29.1076 0.406761C32.2095 0.406761 34.6765 1.18891 36.5599 2.90142C37.9058 4.12627 38.5571 5.79185 38.5571 7.49103C38.5571 9.13141 37.8693 10.8839 36.5599 12.089C34.8084 13.7309 32.0405 14.5931 29.1076 14.5931V12.7239C30.6679 12.7239 32.0998 12.1819 33.1003 11.1893C34.0969 10.1897 34.5613 8.98021 34.5613 7.49103C34.5613 6.05174 34.0623 4.72906 33.1003 3.78189C32.1136 2.81051 30.6383 2.25318 29.1076 2.25318C27.5759 2.25318 26.1084 2.80112 25.1109 3.78189C24.1632 4.72906 23.6592 6.06409 23.6592 7.49103C23.6592 8.90758 24.1696 10.2372 25.1109 11.1893C26.1084 12.1765 27.5759 12.7239 29.1076 12.7239" fill="currentColor"></path>
  </symbol>
    <symbol fill="none" xmlns="http://www.w3.org/2000/svg" viewBox="0 0 74 33" id="header-product07">
    <path d="M11.8091 20.684C12.1131 20.612 12.4411 20.564 12.7931 20.54C13.1451 20.516 13.4931 20.504 13.8371 20.504C14.2051 20.504 14.5771 20.54 14.9531 20.612C15.3371 20.684 15.6851 20.816 15.9971 21.008C16.3091 21.2 16.5611 21.464 16.7531 21.8C16.9531 22.136 17.0531 22.564 17.0531 23.084C17.0531 23.596 16.9611 24.028 16.7771 24.38C16.5931 24.732 16.3491 25.02 16.0451 25.244C15.7411 25.46 15.3931 25.616 15.0011 25.712C14.6091 25.808 14.2051 25.856 13.7891 25.856C13.7491 25.856 13.6811 25.856 13.5851 25.856C13.4971 25.856 13.4011 25.856 13.2971 25.856C13.2011 25.848 13.1051 25.84 13.0091 25.832C12.9131 25.824 12.8451 25.816 12.8051 25.808V29H11.8091V20.684ZM13.8611 21.368C13.6531 21.368 13.4531 21.372 13.2611 21.38C13.0691 21.388 12.9171 21.408 12.8051 21.44V24.92C12.8451 24.936 12.9091 24.948 12.9971 24.956C13.0851 24.956 13.1771 24.96 13.2731 24.968C13.3691 24.968 13.4611 24.968 13.5491 24.968C13.6371 24.968 13.7011 24.968 13.7411 24.968C14.0131 24.968 14.2811 24.944 14.5451 24.896C14.8171 24.84 15.0611 24.744 15.2771 24.608C15.4931 24.472 15.6651 24.28 15.7931 24.032C15.9291 23.784 15.9971 23.468 15.9971 23.084C15.9971 22.756 15.9331 22.484 15.8051 22.268C15.6851 22.044 15.5211 21.868 15.3131 21.74C15.1131 21.604 14.8851 21.508 14.6291 21.452C14.3731 21.396 14.1171 21.368 13.8611 21.368ZM17.8983 23.444C18.2023 23.26 18.5543 23.124 18.9543 23.036C19.3623 22.948 19.7863 22.904 20.2263 22.904C20.6423 22.904 20.9743 22.96 21.2223 23.072C21.4783 23.184 21.6703 23.332 21.7983 23.516C21.9343 23.692 22.0223 23.888 22.0623 24.104C22.1103 24.32 22.1343 24.536 22.1343 24.752C22.1343 25.232 22.1223 25.7 22.0983 26.156C22.0743 26.612 22.0623 27.044 22.0623 27.452C22.0623 27.748 22.0743 28.028 22.0983 28.292C22.1223 28.556 22.1663 28.8 22.2303 29.024H21.5223L21.2703 28.184H21.2103C21.1383 28.296 21.0463 28.408 20.9343 28.52C20.8303 28.624 20.7023 28.72 20.5503 28.808C20.3983 28.888 20.2223 28.956 20.0223 29.012C19.8223 29.068 19.5943 29.096 19.3383 29.096C19.0823 29.096 18.8423 29.056 18.6183 28.976C18.4023 28.896 18.2143 28.784 18.0543 28.64C17.8943 28.488 17.7663 28.308 17.6703 28.1C17.5823 27.892 17.5383 27.656 17.5383 27.392C17.5383 27.04 17.6103 26.748 17.7543 26.516C17.8983 26.276 18.0983 26.088 18.3543 25.952C18.6183 25.808 18.9303 25.708 19.2903 25.652C19.6583 25.588 20.0623 25.556 20.5023 25.556C20.6143 25.556 20.7223 25.556 20.8263 25.556C20.9383 25.556 21.0503 25.564 21.1623 25.58C21.1863 25.34 21.1983 25.124 21.1983 24.932C21.1983 24.492 21.1103 24.184 20.9343 24.008C20.7583 23.832 20.4383 23.744 19.9743 23.744C19.8383 23.744 19.6903 23.756 19.5303 23.78C19.3783 23.796 19.2183 23.824 19.0503 23.864C18.8903 23.896 18.7343 23.94 18.5823 23.996C18.4383 24.044 18.3103 24.1 18.1983 24.164L17.8983 23.444ZM19.6023 28.256C19.8263 28.256 20.0263 28.228 20.2023 28.172C20.3783 28.108 20.5303 28.032 20.6583 27.944C20.7863 27.848 20.8903 27.744 20.9703 27.632C21.0583 27.52 21.1223 27.412 21.1623 27.308V26.312C21.0503 26.304 20.9343 26.3 20.8143 26.3C20.7023 26.292 20.5903 26.288 20.4783 26.288C20.2303 26.288 19.9863 26.304 19.7463 26.336C19.5143 26.36 19.3063 26.412 19.1223 26.492C18.9463 26.564 18.8023 26.668 18.6903 26.804C18.5863 26.932 18.5343 27.096 18.5343 27.296C18.5343 27.576 18.6343 27.808 18.8343 27.992C19.0343 28.168 19.2903 28.256 19.6023 28.256ZM27.7994 29V25.58C27.7994 24.956 27.7074 24.488 27.5234 24.176C27.3474 23.856 27.0194 23.696 26.5394 23.696C26.1154 23.696 25.7634 23.812 25.4834 24.044C25.2114 24.268 25.0194 24.552 24.9074 24.896V29H23.9474V23H24.6194L24.7994 23.732H24.8474C25.0394 23.476 25.2954 23.268 25.6154 23.108C25.9434 22.94 26.3314 22.856 26.7794 22.856C27.1074 22.856 27.3954 22.896 27.6434 22.976C27.8914 23.048 28.0954 23.18 28.2554 23.372C28.4234 23.564 28.5474 23.824 28.6274 24.152C28.7154 24.472 28.7594 24.88 28.7594 25.376V29H27.7994ZM30.4139 23.444C30.7179 23.26 31.0699 23.124 31.4699 23.036C31.8779 22.948 32.3019 22.904 32.7419 22.904C33.1579 22.904 33.4899 22.96 33.7379 23.072C33.9939 23.184 34.1859 23.332 34.3139 23.516C34.4499 23.692 34.5379 23.888 34.5779 24.104C34.6259 24.32 34.6499 24.536 34.6499 24.752C34.6499 25.232 34.6379 25.7 34.6139 26.156C34.5899 26.612 34.5779 27.044 34.5779 27.452C34.5779 27.748 34.5899 28.028 34.6139 28.292C34.6379 28.556 34.6819 28.8 34.7459 29.024H34.0379L33.7859 28.184H33.7259C33.6539 28.296 33.5619 28.408 33.4499 28.52C33.3459 28.624 33.2179 28.72 33.0659 28.808C32.9139 28.888 32.7379 28.956 32.5379 29.012C32.3379 29.068 32.1099 29.096 31.8539 29.096C31.5979 29.096 31.3579 29.056 31.1339 28.976C30.9179 28.896 30.7299 28.784 30.5699 28.64C30.4099 28.488 30.2819 28.308 30.1859 28.1C30.0979 27.892 30.0539 27.656 30.0539 27.392C30.0539 27.04 30.1259 26.748 30.2699 26.516C30.4139 26.276 30.6139 26.088 30.8699 25.952C31.1339 25.808 31.4459 25.708 31.8059 25.652C32.1739 25.588 32.5779 25.556 33.0179 25.556C33.1299 25.556 33.2379 25.556 33.3419 25.556C33.4539 25.556 33.5659 25.564 33.6779 25.58C33.7019 25.34 33.7139 25.124 33.7139 24.932C33.7139 24.492 33.6259 24.184 33.4499 24.008C33.2739 23.832 32.9539 23.744 32.4899 23.744C32.3539 23.744 32.2059 23.756 32.0459 23.78C31.8939 23.796 31.7339 23.824 31.5659 23.864C31.4059 23.896 31.2499 23.94 31.0979 23.996C30.9539 24.044 30.8259 24.1 30.7139 24.164L30.4139 23.444ZM32.1179 28.256C32.3419 28.256 32.5419 28.228 32.7179 28.172C32.8939 28.108 33.0459 28.032 33.1739 27.944C33.3019 27.848 33.4059 27.744 33.4859 27.632C33.5739 27.52 33.6379 27.412 33.6779 27.308V26.312C33.5659 26.304 33.4499 26.3 33.3299 26.3C33.2179 26.292 33.1059 26.288 32.9939 26.288C32.7459 26.288 32.5019 26.304 32.2619 26.336C32.0299 26.36 31.8219 26.412 31.6379 26.492C31.4619 26.564 31.3179 26.668 31.2059 26.804C31.1019 26.932 31.0499 27.096 31.0499 27.296C31.0499 27.576 31.1499 27.808 31.3499 27.992C31.5499 28.168 31.8059 28.256 32.1179 28.256ZM39.1031 27.368C39.1031 27.128 39.0311 26.94 38.8871 26.804C38.7431 26.668 38.5631 26.556 38.3471 26.468C38.1391 26.372 37.9071 26.284 37.6511 26.204C37.4031 26.116 37.1711 26.008 36.9551 25.88C36.7471 25.744 36.5711 25.572 36.4271 25.364C36.2831 25.156 36.2111 24.876 36.2111 24.524C36.2111 23.948 36.3751 23.528 36.7031 23.264C37.0311 22.992 37.4871 22.856 38.0711 22.856C38.5031 22.856 38.8631 22.896 39.1511 22.976C39.4471 23.048 39.7031 23.136 39.9191 23.24L39.6911 24.032C39.5071 23.944 39.2831 23.868 39.0191 23.804C38.7631 23.732 38.4871 23.696 38.1911 23.696C37.8391 23.696 37.5791 23.756 37.4111 23.876C37.2511 23.996 37.1711 24.204 37.1711 24.5C37.1711 24.708 37.2431 24.872 37.3871 24.992C37.5311 25.104 37.7071 25.208 37.9151 25.304C38.1311 25.392 38.3631 25.48 38.6111 25.568C38.8671 25.656 39.0991 25.772 39.3071 25.916C39.5231 26.06 39.7031 26.244 39.8471 26.468C39.9911 26.684 40.0631 26.972 40.0631 27.332C40.0631 27.588 40.0191 27.828 39.9311 28.052C39.8511 28.276 39.7231 28.468 39.5471 28.628C39.3711 28.788 39.1511 28.912 38.8871 29C38.6311 29.096 38.3271 29.144 37.9751 29.144C37.5191 29.144 37.1311 29.1 36.8111 29.012C36.4911 28.924 36.2231 28.82 36.0071 28.7L36.2951 27.884C36.4791 27.988 36.7191 28.084 37.0151 28.172C37.3111 28.26 37.6111 28.304 37.9151 28.304C38.2591 28.304 38.5431 28.236 38.7671 28.1C38.9911 27.964 39.1031 27.72 39.1031 27.368ZM41.1778 26C41.1778 24.984 41.4018 24.208 41.8498 23.672C42.3058 23.128 42.9578 22.856 43.8058 22.856C44.2538 22.856 44.6418 22.932 44.9698 23.084C45.3058 23.228 45.5818 23.44 45.7978 23.72C46.0138 23.992 46.1738 24.324 46.2778 24.716C46.3818 25.1 46.4338 25.528 46.4338 26C46.4338 27.016 46.2058 27.796 45.7498 28.34C45.3018 28.876 44.6538 29.144 43.8058 29.144C43.3578 29.144 42.9658 29.072 42.6298 28.928C42.3018 28.776 42.0298 28.564 41.8138 28.292C41.5978 28.012 41.4378 27.68 41.3338 27.296C41.2298 26.904 41.1778 26.472 41.1778 26ZM42.1738 26C42.1738 26.304 42.2018 26.596 42.2578 26.876C42.3218 27.156 42.4178 27.4 42.5458 27.608C42.6738 27.816 42.8418 27.984 43.0498 28.112C43.2578 28.24 43.5098 28.304 43.8058 28.304C44.8938 28.312 45.4378 27.544 45.4378 26C45.4378 25.688 45.4058 25.392 45.3418 25.112C45.2858 24.832 45.1938 24.588 45.0658 24.38C44.9378 24.172 44.7698 24.008 44.5618 23.888C44.3538 23.76 44.1018 23.696 43.8058 23.696C42.7178 23.688 42.1738 24.456 42.1738 26ZM51.7994 29V25.58C51.7994 24.956 51.7074 24.488 51.5234 24.176C51.3474 23.856 51.0194 23.696 50.5394 23.696C50.1154 23.696 49.7634 23.812 49.4834 24.044C49.2114 24.268 49.0194 24.552 48.9074 24.896V29H47.9474V23H48.6194L48.7994 23.732H48.8474C49.0394 23.476 49.2954 23.268 49.6154 23.108C49.9434 22.94 50.3314 22.856 50.7794 22.856C51.1074 22.856 51.3954 22.896 51.6434 22.976C51.8914 23.048 52.0954 23.18 52.2554 23.372C52.4234 23.564 52.5474 23.824 52.6274 24.152C52.7154 24.472 52.7594 24.88 52.7594 25.376V29H51.7994ZM54.7139 23H55.6739V29H54.7139V23ZM54.5099 21.176C54.5099 20.992 54.5699 20.836 54.6899 20.708C54.8179 20.572 54.9779 20.504 55.1699 20.504C55.3619 20.504 55.5259 20.572 55.6619 20.708C55.7979 20.836 55.8659 20.992 55.8659 21.176C55.8659 21.36 55.7979 21.512 55.6619 21.632C55.5259 21.752 55.3619 21.812 55.1699 21.812C54.9779 21.812 54.8179 21.752 54.6899 21.632C54.5699 21.512 54.5099 21.36 54.5099 21.176ZM61.8129 28.604C61.5729 28.78 61.2889 28.912 60.9609 29C60.6329 29.096 60.2889 29.144 59.9289 29.144C59.4649 29.144 59.0729 29.072 58.7529 28.928C58.4329 28.776 58.1689 28.564 57.9609 28.292C57.7609 28.012 57.6129 27.68 57.5169 27.296C57.4289 26.904 57.3849 26.472 57.3849 26C57.3849 24.984 57.6089 24.208 58.0569 23.672C58.5049 23.128 59.1489 22.856 59.9889 22.856C60.3729 22.856 60.6969 22.888 60.9609 22.952C61.2329 23.008 61.4769 23.092 61.6929 23.204L61.4169 24.032C61.2329 23.928 61.0289 23.848 60.8049 23.792C60.5809 23.728 60.3409 23.696 60.0849 23.696C58.9489 23.696 58.3809 24.464 58.3809 26C58.3809 26.304 58.4089 26.596 58.4649 26.876C58.5289 27.148 58.6289 27.392 58.7649 27.608C58.9089 27.816 59.0929 27.984 59.3169 28.112C59.5489 28.24 59.8329 28.304 60.1689 28.304C60.4569 28.304 60.7129 28.26 60.9369 28.172C61.1689 28.084 61.3569 27.984 61.5009 27.872L61.8129 28.604Z" fill="#E5E5E5"></path>
    <path d="M56.8892 12.7402V8.948C56.8892 9.39701 57.0229 7.50138 56.62 7.31053C56.4863 7.24691 56.2309 7.11599 55.9349 7.12244C55.5855 7.13166 55.1826 7.29854 55.0618 7.60833C54.9004 7.98727 54.8193 8.24543 54.8331 9.03282L54.8064 12.7549L51.9712 12.7429V4.94468H54.6985L54.7391 5.85008C55.1153 5.38908 55.5587 4.79347 57.1842 4.79347C58.3533 4.79347 59.2541 5.29135 59.6165 6.4881C59.6967 6.79052 59.7105 6.98783 59.7511 7.60833V12.7429H56.8892V12.7402ZM35.4315 10.4693V8.35054C35.4315 7.68762 35.4315 6.79697 35.1494 6.16541C34.9604 5.7588 34.8267 5.53291 34.4367 5.27752C33.4695 4.63028 32.045 4.75198 31.7223 4.75198C30.0166 4.75198 29.1426 5.20192 28.5921 5.82058C28.1486 6.33229 28.0546 6.83385 27.9338 7.45159H30.6344C30.6482 7.21003 30.6878 7.11967 30.7422 7.01364C30.8897 6.8191 31.1046 6.57293 31.6421 6.57293C32.2469 6.57293 32.636 6.88088 32.636 7.18145C32.636 7.34649 32.6231 7.61663 32.5023 7.70699C32.3815 7.79826 32.0717 7.90614 32.0183 7.92089C31.8837 7.94302 31.7094 7.98359 31.4946 8.03983L30.0839 8.2187C29.2366 8.41508 28.5783 8.58657 28.0279 9.32417C27.6249 9.8368 27.6249 10.3043 27.6249 10.5449C27.6249 11.5683 28.0684 12.1593 28.3635 12.4166C29.0485 12.9873 30.0295 12.9661 30.272 12.9661C31.6015 12.9661 32.3004 12.3815 32.7171 12.0653L32.8379 12.8047H35.7533C35.5919 12.293 35.4177 12.0256 35.4315 10.4693ZM31.8708 11.1885C31.6827 11.2484 31.36 11.2355 31.2788 11.2309C30.7957 11.1986 30.5403 10.7579 30.5403 10.5016C30.5403 9.929 30.9967 9.8368 31.1451 9.8073L31.454 9.72063C31.844 9.5851 32.2469 9.47077 32.636 9.33524L32.6498 10.331C32.5291 10.555 32.3944 11.0382 31.8708 11.1885ZM68.6594 7.93011C68.4446 6.98967 67.9873 6.94265 67.4765 6.94265C67.0607 6.94265 66.9261 7.08372 66.7915 7.19989C66.4291 7.50968 66.3074 7.89231 66.3074 8.8475C66.3074 8.92034 66.2678 10.1964 66.9666 10.6814C67.1676 10.815 67.2617 10.8224 67.5032 10.8224C67.5844 10.8224 67.8259 10.8316 68.0408 10.7284C68.3229 10.5975 68.6189 10.355 68.6723 9.69297L71.4273 9.66992C71.4005 9.84695 71.2927 10.4721 71.0244 10.9865C70.3384 12.3529 68.9416 12.9227 67.5309 12.9227C66.9528 12.9227 66.5499 12.8351 66.3074 12.7909C65.1927 12.5115 64.2117 11.7324 63.7821 10.6159C63.6613 10.2784 63.4999 9.76397 63.4999 8.91112C63.4999 8.55891 63.5128 7.64798 64.0098 6.73704C64.0771 6.59045 64.3058 6.22257 64.6285 5.88512C65.6758 4.85524 67.2349 4.82574 67.6111 4.82574C69.0623 4.82574 69.9622 5.37064 70.4057 5.78185C70.5403 5.91462 70.8086 6.26959 71.0244 6.75456C71.1986 7.15102 71.2927 7.50415 71.36 7.93011H68.6594ZM60.3282 4.93361H63.1772V12.7688H60.3282V4.93361ZM60.3282 2.0284H63.1772V4.06694H60.3282V2.0284ZM50.4795 11.8624C50.0092 12.34 49.0421 12.9661 47.4433 12.9661C46.9325 12.9661 45.5219 12.9366 44.4874 11.714C44.0577 11.1921 43.5331 10.3273 43.5331 8.77466C43.5331 8.50636 43.5331 7.89507 43.7885 7.22478C44.3666 5.52462 45.9386 4.74921 47.5908 4.76397C48.0343 4.76397 49.4182 4.80822 50.4131 5.82334C50.91 6.32952 51.5416 7.25429 51.5278 8.89452C51.5278 9.29651 51.501 10.8187 50.4795 11.8624ZM48.3303 7.15471C48.0749 6.91591 47.6849 6.86705 47.5503 6.86705C47.2147 6.86705 46.9731 7.06159 46.892 7.1206C46.5425 7.40457 46.288 7.83607 46.288 8.80417C46.288 9.56481 46.4623 10.8372 47.5374 10.8372C47.8462 10.8372 48.1422 10.757 48.3303 10.5338C48.5857 10.2508 48.854 9.73815 48.8401 8.84381C48.8401 8.79956 48.854 7.69039 48.3303 7.15471ZM40.497 7.2128C40.4426 6.91591 40.2277 6.42356 39.4892 6.42356C39.1665 6.42356 38.925 6.51115 38.8033 6.58584C38.736 6.61442 38.629 6.80896 38.629 7.03208C38.629 7.09109 38.6825 7.26904 38.8577 7.37322C38.9646 7.43408 39.22 7.50784 39.516 7.54195L40.6583 7.83883C41.4641 8.04259 42.163 8.18643 42.7273 8.75069C43.0094 9.01807 43.1569 9.36474 43.1975 9.50581C43.3321 9.90872 43.2648 10.225 43.2648 10.3596C43.2648 11.2779 42.8213 11.832 42.5659 12.0699C42.0146 12.5751 41.1414 12.9568 39.5427 12.9568C38.2123 12.9568 37.3797 12.6074 36.8818 12.3179C35.8206 11.7029 35.7671 10.5698 35.6998 10.2139L38.4677 10.2047C38.4944 10.4721 38.535 10.6721 38.7498 10.8648C38.925 11.028 39.1131 11.1414 39.61 11.1414C40.201 11.1414 40.5366 10.8565 40.5504 10.5975C40.5643 10.5661 40.5643 10.3577 40.4831 10.2545C40.3485 10.0313 39.9862 9.9373 39.4616 9.80269C39.4616 9.80269 37.8499 9.45602 37.7291 9.39886C37.3659 9.23197 35.9017 8.90282 35.9017 7.26904C35.9017 6.3498 36.3719 5.8593 36.6403 5.60667C37.1372 5.17518 37.9569 4.77503 39.4219 4.77503C39.7437 4.77503 41.1147 4.76028 42.1354 5.45915C42.4184 5.65093 42.6462 5.88881 42.8213 6.17094C43.0629 6.57108 43.1035 7.0496 43.1302 7.2128H40.497ZM24.3731 12.7549V8.98764C24.3731 9.43574 24.4938 7.51613 24.0909 7.3262C23.9563 7.26074 23.7009 7.13074 23.392 7.13719C23.0426 7.14641 22.6535 7.31329 22.5189 7.62401C22.3714 8.00203 22.317 8.35054 22.3308 9.13885V12.7577H19.4284V4.95943H22.1695L22.21 5.86483C22.5862 5.40383 23.0297 4.80822 24.6414 4.80822C25.8243 4.80822 26.7242 5.22128 27.0874 6.41803C27.1676 6.72045 27.2082 7.01364 27.2349 7.63415V12.7549H24.3731ZM16.2438 12.7457L16.123 12.0376C15.7201 12.3539 14.9807 12.9716 13.6511 12.9716C13.4225 12.9716 12.4286 12.9412 11.7426 12.3695C11.4476 12.1132 10.9368 11.4946 10.9368 10.4721C10.9368 10.2305 11.0041 9.81929 11.3932 9.30758C11.9445 8.56998 12.6028 8.3699 13.4492 8.1726L14.8737 7.99465C15.0351 7.94947 15.2093 7.90522 15.3974 7.87479C15.438 7.85912 15.6666 7.82777 15.7874 7.73834C15.9082 7.64798 16.0022 7.30131 16.0022 7.13535C16.0022 6.83385 15.6122 6.58768 15.0083 6.58768C14.4708 6.58768 14.2154 6.78314 14.0808 6.97861C14.0135 7.08372 13.9867 7.17407 13.9729 7.41564L11.2724 7.39996C11.3932 6.78314 11.5149 6.28526 11.9574 5.77356C12.5088 5.15582 13.3819 4.76489 15.0885 4.76489C15.4112 4.76489 16.7278 4.62936 17.695 5.2766C18.085 5.53291 18.3404 5.83533 18.5147 6.24101C18.8106 6.87442 18.7295 7.63968 18.7295 8.30352V10.4269C18.7166 11.7518 18.8106 11.9924 19.0522 12.7457H16.2438ZM15.9617 9.33063C15.5726 9.46616 15.1687 9.58694 14.7658 9.72248L14.4708 9.81283C14.3223 9.84234 13.866 9.94191 13.866 10.5145C13.866 10.7708 14.0135 11.2373 14.6045 11.2373C14.6856 11.2373 15.048 11.2023 15.236 11.1414C15.7736 10.9911 15.8141 10.6417 15.9617 10.4896V9.33063ZM2.02841 12.7337V2.09847H6.48904C7.99374 2.11506 9.44497 2.19436 10.4527 3.54693C10.7348 3.92864 11.1249 4.63028 11.1249 5.80675C11.1249 7.28748 10.4795 8.17813 10.036 8.59395C9.24398 9.38779 8.18183 9.468 7.13444 9.51687H5.18626V12.7346L2.02841 12.7337ZM6.395 7.04868C6.91962 7.03577 7.51062 7.00719 7.88679 6.62456C7.99374 6.51115 8.16892 6.28434 8.16892 5.91462C8.15509 5.54767 7.99374 5.31993 7.8997 5.20653C7.44331 4.71141 6.70387 4.76765 6.09996 4.76765H5.2259V7.04868H6.395Z" fill="currentColor"></path>
  </symbol>
    <symbol fill="none" xmlns="http://www.w3.org/2000/svg" viewBox="0 0 30 32" id="01">
    <path d="M5.71523 26.672H2.61923L1.77923 29H0.795227L3.97523 20.468H4.43123L7.62323 29H6.57923L5.71523 26.672ZM2.94323 25.808H5.41523L4.47923 23.252L4.17923 21.98H4.16723L3.86723 23.276L2.94323 25.808Z" fill="#E5E5E5"></path>
    <path d="M8.64276 23H9.30276L9.48276 23.72H9.53076C9.71476 23.44 9.95076 23.228 10.2388 23.084C10.5348 22.932 10.8708 22.856 11.2468 22.856C12.0468 22.856 12.6428 23.092 13.0348 23.564C13.4268 24.036 13.6228 24.808 13.6228 25.88C13.6228 26.384 13.5548 26.84 13.4188 27.248C13.2908 27.648 13.1068 27.988 12.8668 28.268C12.6268 28.548 12.3348 28.764 11.9908 28.916C11.6548 29.068 11.2788 29.144 10.8628 29.144C10.5668 29.144 10.3308 29.124 10.1548 29.084C9.98676 29.052 9.80276 28.992 9.60276 28.904V31.4H8.64276V23ZM11.0668 23.696C10.6588 23.696 10.3348 23.804 10.0948 24.02C9.86276 24.228 9.69876 24.548 9.60276 24.98V27.956C9.74676 28.068 9.91076 28.156 10.0948 28.22C10.2788 28.276 10.5228 28.304 10.8268 28.304C11.3788 28.304 11.8148 28.1 12.1348 27.692C12.4628 27.276 12.6268 26.668 12.6268 25.868C12.6268 25.54 12.5988 25.244 12.5428 24.98C12.4868 24.708 12.3948 24.48 12.2668 24.296C12.1468 24.104 11.9868 23.956 11.7868 23.852C11.5948 23.748 11.3548 23.696 11.0668 23.696Z" fill="#E5E5E5"></path>
    <path d="M15.1349 23H15.7949L15.9749 23.72H16.0229C16.2069 23.44 16.4429 23.228 16.7309 23.084C17.0269 22.932 17.3629 22.856 17.7389 22.856C18.5389 22.856 19.1349 23.092 19.5269 23.564C19.9189 24.036 20.1149 24.808 20.1149 25.88C20.1149 26.384 20.0469 26.84 19.9109 27.248C19.7829 27.648 19.5989 27.988 19.3589 28.268C19.1189 28.548 18.8269 28.764 18.4829 28.916C18.1469 29.068 17.7709 29.144 17.3549 29.144C17.0589 29.144 16.8229 29.124 16.6469 29.084C16.4789 29.052 16.2949 28.992 16.0949 28.904V31.4H15.1349V23ZM17.5589 23.696C17.1509 23.696 16.8269 23.804 16.5869 24.02C16.3549 24.228 16.1909 24.548 16.0949 24.98V27.956C16.2389 28.068 16.4029 28.156 16.5869 28.22C16.7709 28.276 17.0149 28.304 17.3189 28.304C17.8709 28.304 18.3069 28.1 18.6269 27.692C18.9549 27.276 19.1189 26.668 19.1189 25.868C19.1189 25.54 19.0909 25.244 19.0349 24.98C18.9789 24.708 18.8869 24.48 18.7589 24.296C18.6389 24.104 18.4789 23.956 18.2789 23.852C18.0869 23.748 17.8469 23.696 17.5589 23.696Z" fill="#E5E5E5"></path>
    <path d="M22.6951 27.524C22.6951 27.804 22.7431 28.004 22.8391 28.124C22.9351 28.244 23.0711 28.304 23.2471 28.304C23.3511 28.304 23.4631 28.296 23.5831 28.28C23.7031 28.264 23.8391 28.228 23.9911 28.172L24.0991 28.928C23.9711 28.992 23.7911 29.044 23.5591 29.084C23.3351 29.124 23.1391 29.144 22.9711 29.144C22.6111 29.144 22.3151 29.044 22.0831 28.844C21.8511 28.636 21.7351 28.288 21.7351 27.8V20.6H22.6951V27.524Z" fill="#E5E5E5"></path>
    <path d="M29.511 28.52C29.271 28.712 28.967 28.864 28.599 28.976C28.239 29.088 27.855 29.144 27.447 29.144C26.991 29.144 26.595 29.072 26.259 28.928C25.923 28.776 25.647 28.564 25.431 28.292C25.215 28.012 25.055 27.68 24.951 27.296C24.847 26.912 24.795 26.48 24.795 26C24.795 24.976 25.023 24.196 25.479 23.66C25.935 23.124 26.587 22.856 27.435 22.856C27.707 22.856 27.979 22.888 28.251 22.952C28.523 23.008 28.767 23.12 28.983 23.288C29.199 23.456 29.375 23.696 29.511 24.008C29.647 24.312 29.715 24.716 29.715 25.22C29.715 25.484 29.691 25.776 29.643 26.096H25.791C25.791 26.448 25.827 26.76 25.899 27.032C25.971 27.304 26.083 27.536 26.235 27.728C26.387 27.912 26.583 28.056 26.823 28.16C27.071 28.256 27.371 28.304 27.723 28.304C27.995 28.304 28.267 28.256 28.539 28.16C28.811 28.064 29.015 27.952 29.151 27.824L29.511 28.52ZM27.447 23.696C26.975 23.696 26.595 23.82 26.307 24.068C26.027 24.316 25.859 24.74 25.803 25.34H28.779C28.779 24.732 28.663 24.308 28.431 24.068C28.199 23.82 27.871 23.696 27.447 23.696Z" fill="#E5E5E5"></path>
    <g clip-path="url(#clip0_16_109)">
      <path d="M21.7351 11.2991C21.6514 11.5416 21.5637 11.7729 21.4705 11.9948C21.2431 12.5192 20.9746 13.0017 20.6635 13.4447C20.2402 14.0496 19.8927 14.4682 19.625 14.7003C19.2104 15.0818 18.7658 15.2776 18.2897 15.2879C17.9477 15.2879 17.5363 15.1907 17.0562 14.9941C16.5752 14.7975 16.133 14.7003 15.7287 14.7003C15.3046 14.7003 14.8497 14.7975 14.3633 14.9941C13.8761 15.1907 13.4836 15.2942 13.1835 15.3037C12.727 15.3234 12.2722 15.1228 11.8181 14.7003C11.5283 14.4476 11.1658 14.0141 10.7315 13.4005C10.2656 12.7451 9.88256 11.9846 9.58248 11.1175C9.26107 10.1817 9.09998 9.27514 9.09998 8.39778C9.09998 7.3925 9.31714 6.52542 9.75226 5.7989C10.0942 5.21531 10.5491 4.75492 11.1184 4.41693C11.6878 4.07894 12.303 3.90679 12.9655 3.89573C13.328 3.89573 13.8034 4.00787 14.3941 4.2282C14.9832 4.44931 15.3615 4.56145 15.5273 4.56145C15.6513 4.56145 16.0714 4.43036 16.7837 4.16897C17.4573 3.92653 18.0259 3.82624 18.4918 3.86573C19.7537 3.9676 20.7014 4.4651 21.3323 5.36141C20.2039 6.04528 19.6456 7.00318 19.6566 8.23195C19.6669 9.18906 20.0136 9.98586 20.6959 10.6184C21.0054 10.9114 21.3513 11.138 21.7351 11.2991ZM18.5605 0.304993C18.5708 0.405284 18.5755 0.505575 18.5755 0.605077C18.5755 1.35529 18.3015 2.05575 17.7558 2.70409C17.0964 3.47483 16.2988 3.92021 15.4341 3.84993C15.4231 3.75991 15.4167 3.66514 15.4167 3.56564C15.4167 2.84544 15.7303 2.0747 16.287 1.44452C16.565 1.12549 16.9187 0.860148 17.3468 0.648509C17.7748 0.44003 18.1799 0.324735 18.5605 0.304993Z" fill="white"></path>
    </g>
    <defs>
      <clipPath id="clip0_16_109">
        <rect width="13" height="15" fill="white" transform="translate(9)"></rect>
      </clipPath>
    </defs>
  </symbol>
</svg>