<svg width="0" height="0" class="hidden">
  <symbol fill="none" xmlns="http://www.w3.org/2000/svg" viewBox="0 0 14 14" id="arrow-down">
    <path d="M11.3733 4.66025L7.00001 8.92325L2.62676 4.66025C2.54862 4.58393 2.44373 4.5412 2.33451 4.5412C2.22528 4.5412 2.12039 4.58393 2.04226 4.66025C2.00442 4.69732 1.97437 4.74156 1.95385 4.79039C1.93333 4.83922 1.92276 4.89166 1.92276 4.94463C1.92276 4.99759 1.93333 5.05003 1.95385 5.09886C1.97437 5.14769 2.00442 5.19193 2.04226 5.229L6.69463 9.765C6.77634 9.84464 6.88592 9.88921 7.00001 9.88921C7.1141 9.88921 7.22368 9.84464 7.30539 9.765L11.9578 5.22988C11.9959 5.19278 12.0261 5.14842 12.0468 5.09943C12.0675 5.05044 12.0782 4.9978 12.0782 4.94463C12.0782 4.89145 12.0675 4.83881 12.0468 4.78982C12.0261 4.74083 11.9959 4.69647 11.9578 4.65938C11.8796 4.58306 11.7747 4.54033 11.6655 4.54033C11.5563 4.54033 11.4514 4.58306 11.3733 4.65938V4.66025Z" fill="white"></path>
  </symbol>
  <symbol fill="none" xmlns="http://www.w3.org/2000/svg" viewBox="0 0 24 24" id="heart">
    <path d="M12 9.354L10.659 6.6705C10.326 6.006 9.7485 5.0505 8.931 4.278C8.127 3.5175 7.164 3 6 3C3.486 3 1.5 4.989 1.5 7.38C1.5 9.1965 2.331 10.479 4.302 12.435C4.8075 12.936 5.3835 13.4775 6.021 14.0745C7.683 15.6345 9.75 17.5755 12 20.1705C14.25 17.5755 16.317 15.6345 17.979 14.0745C18.6165 13.4775 19.194 12.9345 19.698 12.435C21.669 10.479 22.5 9.1965 22.5 7.38C22.5 4.989 20.514 3 18 3C16.8345 3 15.873 3.5175 15.069 4.278C14.2515 5.0505 13.674 6.006 13.341 6.6705L12 9.354ZM12.588 21.792C12.5158 21.8776 12.4257 21.9463 12.3242 21.9935C12.2226 22.0407 12.112 22.0651 12 22.0651C11.888 22.0651 11.7774 22.0407 11.6758 21.9935C11.5743 21.9463 11.4842 21.8776 11.412 21.792C9.0105 18.939 6.837 16.899 5.0475 15.2205C1.95 12.312 0 10.4835 0 7.38C0 4.1325 2.685 1.5 6 1.5C8.4 1.5 10.0785 3.075 11.106 4.512C11.496 5.0595 11.793 5.586 12 6C12.2595 5.48186 12.5584 4.9844 12.894 4.512C13.9215 3.0735 15.6 1.5 18 1.5C21.315 1.5 24 4.1325 24 7.38C24 10.4835 22.05 12.312 18.9525 15.2205C17.163 16.9005 14.9895 18.9405 12.588 21.7905V21.792Z" fill="#222222"></path>
  </symbol>
   <symbol fill="none" xmlns="http://www.w3.org/2000/svg" viewBox="0 0 24 24" id="scales">
    <path d="M23.2411 12.3279L19.9255 4.039H19.9151L19.8841 3.96648C19.8841 3.96373 19.883 3.96109 19.881 3.95915C19.8791 3.95721 19.8764 3.95611 19.8737 3.95611C19.8636 3.93316 19.8495 3.91213 19.8323 3.89395H19.8219L19.7701 3.83178C19.7673 3.83178 19.7647 3.83069 19.7628 3.82875C19.7608 3.8268 19.7597 3.82417 19.7597 3.82142L19.7079 3.77998H19.6872L19.625 3.73853C19.6147 3.73853 19.6043 3.73853 19.6043 3.72817L19.5421 3.70745H19.5214L19.4489 3.68673H19.2106L12.5069 5.14764V2.60917C12.5069 2.44429 12.4414 2.28617 12.3249 2.16958C12.2083 2.053 12.0501 1.9875 11.8853 1.9875C11.7204 1.9875 11.5623 2.053 11.4457 2.16958C11.3291 2.28617 11.2636 2.44429 11.2636 2.60917V5.4274L4.29055 6.9712H4.23875L4.15586 7.00229H4.1455L4.08333 7.04373H4.07297L4.0108 7.08518H4.00044L3.94864 7.14734H3.93827L3.89683 7.20951H3.88647C3.87496 7.23493 3.86108 7.25921 3.84502 7.28204L0.529462 15.5709C0.488244 15.6654 0.473902 15.7694 0.488018 15.8714C0.488018 18.1405 2.90216 18.9798 4.42525 18.9798C5.94833 18.9798 8.36248 18.1405 8.36248 15.8714C8.36472 15.7934 8.3506 15.7157 8.32103 15.6435L5.27486 8.02804L11.2636 6.70182V20.2231H9.39859C9.23372 20.2231 9.07559 20.2886 8.95901 20.4052C8.84242 20.5218 8.77692 20.6799 8.77692 20.8448C8.77692 21.0096 8.84242 21.1678 8.95901 21.2843C9.07559 21.4009 9.23372 21.4664 9.39859 21.4664H14.3719C14.5368 21.4664 14.6949 21.4009 14.8115 21.2843C14.9281 21.1678 14.9936 21.0096 14.9936 20.8448C14.9936 20.6799 14.9281 20.5218 14.8115 20.4052C14.6949 20.2886 14.5368 20.2231 14.3719 20.2231H12.5069V6.42206L18.3299 5.12692L15.4495 12.3279C15.4199 12.4002 15.4058 12.4778 15.408 12.5559C15.408 14.8249 17.8222 15.6642 19.3453 15.6642C20.8684 15.6642 23.2825 14.8249 23.2825 12.5559C23.2847 12.4778 23.2706 12.4002 23.2411 12.3279ZM4.42525 17.7364C3.79048 17.7318 3.16703 17.5679 2.61205 17.2598C2.06291 16.9386 1.7728 16.5242 1.73135 15.9854L4.42525 9.26101L7.11914 15.9854C7.02589 17.4152 5.10908 17.7364 4.42525 17.7364ZM19.3453 14.4209C18.7105 14.4163 18.0871 14.2524 17.5321 13.9442C16.9829 13.6231 16.6928 13.2086 16.6514 12.6698L19.3453 5.94545L22.0392 12.6698C21.9459 14.0997 20.0291 14.4209 19.3453 14.4209Z" fill="#222222"></path>
  </symbol>
    <symbol fill="none" xmlns="http://www.w3.org/2000/svg" viewBox="0 0 24 24" id="search">
    <g clip-path="url(#clip0_4_65)">
      <path d="M10.8867 3.36667C12.3308 3.36535 13.7428 3.79236 14.9441 4.5937C16.1455 5.39503 17.0822 6.53467 17.6357 7.86845C18.1893 9.20224 18.3348 10.6702 18.0539 12.0867C17.773 13.5032 17.0782 14.8046 16.0576 15.8262C15.0369 16.8478 13.7362 17.5437 12.32 17.8259C10.9037 18.1081 9.43558 17.9639 8.10129 17.4116C6.767 16.8593 5.6265 15.9236 4.82407 14.723C4.02165 13.5224 3.59334 12.1108 3.59334 10.6667C3.60209 8.73444 4.3731 6.88374 5.73878 5.51681C7.10446 4.14988 8.95445 3.37719 10.8867 3.36667ZM10.8867 2C9.17257 2 7.49696 2.50829 6.07173 3.4606C4.6465 4.4129 3.53568 5.76645 2.87972 7.35008C2.22376 8.9337 2.05213 10.6763 2.38653 12.3574C2.72094 14.0386 3.54636 15.5829 4.75841 16.7949C5.97047 18.007 7.51472 18.8324 9.19589 19.1668C10.8771 19.5012 12.6196 19.3296 14.2033 18.6736C15.7869 18.0177 17.1404 16.9068 18.0927 15.4816C19.045 14.0564 19.5533 12.3808 19.5533 10.6667C19.5533 8.36812 18.6402 6.16372 17.0149 4.53841C15.3896 2.91309 13.1852 2 10.8867 2Z" fill="#222222"></path>
      <path d="M23.3333 22.1933L18.42 17.2467L17.4733 18.1867L22.3867 23.1333C22.4484 23.1955 22.5217 23.2449 22.6026 23.2787C22.6834 23.3125 22.77 23.3301 22.8576 23.3304C22.9452 23.3307 23.032 23.3137 23.1131 23.2805C23.1941 23.2473 23.2678 23.1984 23.33 23.1367C23.3922 23.0749 23.4415 23.0016 23.4754 22.9208C23.5092 22.84 23.5267 22.7533 23.527 22.6657C23.5273 22.5781 23.5104 22.4913 23.4772 22.4102C23.4439 22.3292 23.395 22.2555 23.3333 22.1933Z" fill="#222222"></path>
    </g>
    <defs>
      <clipPath id="clip0_4_65">
        <rect width="24" height="24" fill="white"></rect>
      </clipPath>
    </defs>
  </symbol>
  <symbol fill="none" xmlns="http://www.w3.org/2000/svg" viewBox="0 0 24 24" id="shopping">
    <path d="M12.15 1.9125C11.6207 1.51554 10.9914 1.27381 10.3324 1.2144C9.67351 1.15498 9.01106 1.28023 8.41931 1.57611C7.82756 1.87198 7.32989 2.3268 6.98206 2.88959C6.63424 3.45237 6.45001 4.1009 6.45001 4.7625V6.9H5.02501C4.64707 6.9 4.28462 7.05014 4.01738 7.31737C3.75014 7.58461 3.60001 7.94707 3.60001 8.325V19.725C3.60001 20.8588 4.05041 21.9462 4.85212 22.7479C5.65384 23.5496 6.7412 24 7.87501 24H17.1375C18.0823 24 18.9885 23.6247 19.6566 22.9566C20.3247 22.2885 20.7 21.3823 20.7 20.4375V8.325C20.7 7.94707 20.5499 7.58461 20.2826 7.31737C20.0154 7.05014 19.6529 6.9 19.275 6.9H17.85V4.7625C17.85 4.1009 17.6658 3.45237 17.3179 2.88959C16.9701 2.3268 16.4725 1.87198 15.8807 1.57611C15.289 1.28023 14.6265 1.15498 13.9676 1.2144C13.3086 1.27381 12.6793 1.51554 12.15 1.9125ZM7.87501 4.7625C7.87501 4.1956 8.1002 3.65192 8.50106 3.25106C8.90192 2.8502 9.4456 2.625 10.0125 2.625C10.5794 2.625 11.1231 2.8502 11.5239 3.25106C11.9248 3.65192 12.15 4.1956 12.15 4.7625V6.9H7.87501V4.7625ZM13.1005 2.9841C13.4224 2.76914 13.7966 2.64562 14.1833 2.62675C14.5699 2.60787 14.9544 2.69434 15.2957 2.87693C15.6371 3.05952 15.9224 3.33136 16.1213 3.66345C16.3202 3.99554 16.4251 4.37541 16.425 4.7625V6.9H13.575V4.7625C13.575 4.11555 13.4026 3.5085 13.1005 2.9841ZM7.87501 22.575C7.11914 22.575 6.39423 22.2747 5.85975 21.7403C5.32527 21.2058 5.02501 20.4809 5.02501 19.725V8.325H13.575V20.4375C13.575 21.2398 13.8401 21.9793 14.2875 22.575H7.87501ZM19.275 20.4375C19.275 21.0044 19.0498 21.5481 18.6489 21.9489C18.2481 22.3498 17.7044 22.575 17.1375 22.575C16.5706 22.575 16.0269 22.3498 15.6261 21.9489C15.2252 21.5481 15 21.0044 15 20.4375V8.325H19.275V20.4375Z" fill="#CB7A00"></path>
  </symbol>
  <symbol fill="none" xmlns="http://www.w3.org/2000/svg" viewBox="0 0 17 8" id="arrow-long-right">
    <path d="M16.3536 4.35355C16.5488 4.15829 16.5488 3.84171 16.3536 3.64645L13.1716 0.464466C12.9763 0.269204 12.6597 0.269204 12.4645 0.464466C12.2692 0.659728 12.2692 0.976311 12.4645 1.17157L15.2929 4L12.4645 6.82843C12.2692 7.02369 12.2692 7.34027 12.4645 7.53553C12.6597 7.7308 12.9763 7.7308 13.1716 7.53553L16.3536 4.35355ZM0 4.5H16V3.5H0V4.5Z" fill="white"></path>
  </symbol>
</svg>