<svg width="82" height="33" viewBox="0 0 82 33" fill="none" xmlns="http://www.w3.org/2000/svg">
<path d="M32.8315 26.864C32.8315 26.528 32.7315 26.256 32.5315 26.048C32.3315 25.832 32.0795 25.644 31.7755 25.484C31.4795 25.316 31.1555 25.16 30.8035 25.016C30.4515 24.872 30.1235 24.7 29.8195 24.5C29.5235 24.292 29.2755 24.04 29.0755 23.744C28.8755 23.44 28.7755 23.056 28.7755 22.592C28.7755 21.936 29.0035 21.416 29.4595 21.032C29.9155 20.648 30.5635 20.456 31.4035 20.456C31.8915 20.456 32.3355 20.492 32.7355 20.564C33.1355 20.636 33.4475 20.728 33.6715 20.84L33.3715 21.716C33.1875 21.628 32.9155 21.544 32.5555 21.464C32.2035 21.384 31.8035 21.344 31.3555 21.344C30.8275 21.344 30.4315 21.464 30.1675 21.704C29.9035 21.936 29.7715 22.212 29.7715 22.532C29.7715 22.844 29.8715 23.104 30.0715 23.312C30.2715 23.52 30.5195 23.708 30.8155 23.876C31.1195 24.036 31.4475 24.196 31.7995 24.356C32.1515 24.516 32.4755 24.704 32.7715 24.92C33.0755 25.128 33.3275 25.38 33.5275 25.676C33.7275 25.972 33.8275 26.34 33.8275 26.78C33.8275 27.14 33.7635 27.464 33.6355 27.752C33.5075 28.04 33.3195 28.288 33.0715 28.496C32.8235 28.704 32.5235 28.864 32.1715 28.976C31.8195 29.088 31.4195 29.144 30.9715 29.144C30.3715 29.144 29.8755 29.096 29.4835 29C29.0915 28.912 28.7875 28.812 28.5715 28.7L28.9075 27.8C29.0915 27.904 29.3635 28.008 29.7235 28.112C30.0835 28.208 30.4875 28.256 30.9355 28.256C31.1995 28.256 31.4475 28.232 31.6795 28.184C31.9115 28.128 32.1115 28.044 32.2795 27.932C32.4475 27.812 32.5795 27.664 32.6755 27.488C32.7795 27.312 32.8315 27.104 32.8315 26.864ZM34.9825 26C34.9825 24.984 35.2065 24.208 35.6545 23.672C36.1105 23.128 36.7625 22.856 37.6105 22.856C38.0585 22.856 38.4465 22.932 38.7745 23.084C39.1105 23.228 39.3865 23.44 39.6025 23.72C39.8185 23.992 39.9785 24.324 40.0825 24.716C40.1865 25.1 40.2385 25.528 40.2385 26C40.2385 27.016 40.0105 27.796 39.5545 28.34C39.1065 28.876 38.4585 29.144 37.6105 29.144C37.1625 29.144 36.7705 29.072 36.4345 28.928C36.1065 28.776 35.8345 28.564 35.6185 28.292C35.4025 28.012 35.2425 27.68 35.1385 27.296C35.0345 26.904 34.9825 26.472 34.9825 26ZM35.9785 26C35.9785 26.304 36.0065 26.596 36.0625 26.876C36.1265 27.156 36.2225 27.4 36.3505 27.608C36.4785 27.816 36.6465 27.984 36.8545 28.112C37.0625 28.24 37.3145 28.304 37.6105 28.304C38.6985 28.312 39.2425 27.544 39.2425 26C39.2425 25.688 39.2105 25.392 39.1465 25.112C39.0905 24.832 38.9985 24.588 38.8705 24.38C38.7425 24.172 38.5745 24.008 38.3665 23.888C38.1585 23.76 37.9065 23.696 37.6105 23.696C36.5225 23.688 35.9785 24.456 35.9785 26ZM45.6041 29V25.58C45.6041 24.956 45.5121 24.488 45.3281 24.176C45.1521 23.856 44.8241 23.696 44.3441 23.696C43.9201 23.696 43.5681 23.812 43.2881 24.044C43.0161 24.268 42.8241 24.552 42.7121 24.896V29H41.7521V23H42.4241L42.6041 23.732H42.6521C42.8441 23.476 43.1001 23.268 43.4201 23.108C43.7481 22.94 44.1361 22.856 44.5841 22.856C44.9121 22.856 45.2001 22.896 45.4481 22.976C45.6961 23.048 45.9001 23.18 46.0601 23.372C46.2281 23.564 46.3521 23.824 46.4321 24.152C46.5201 24.472 46.5641 24.88 46.5641 25.376V29H45.6041ZM50.0786 26.888L50.4146 28.04H50.4746L50.7386 26.876L51.9026 23H52.8746L51.0986 28.388C50.9626 28.78 50.8266 29.16 50.6906 29.528C50.5626 29.896 50.4186 30.224 50.2586 30.512C50.0986 30.8 49.9186 31.028 49.7186 31.196C49.5186 31.372 49.2866 31.46 49.0226 31.46C48.7346 31.46 48.4986 31.42 48.3146 31.34L48.4826 30.512C48.5866 30.552 48.6866 30.572 48.7826 30.572C49.0066 30.572 49.2226 30.452 49.4306 30.212C49.6386 29.98 49.8106 29.576 49.9466 29L47.5346 23H48.6386L50.0786 26.888Z" fill="#E5E5E5"/>
<path d="M67.0804 12.2343V13.809H75.7196V12.2289H74.0851L73.6577 12.2046C73.4848 12.1587 73.3642 12.0386 73.3203 11.9107L73.2842 11.5653V9.07508L73.3494 8.84039C73.465 8.70352 77.9336 3.60007 78.1396 3.37674C78.5705 2.88116 78.8047 2.77444 79.3818 2.77444H80.9712V1.20867H73.8534V2.77444H74.9191C75.2354 2.77444 75.3233 3.09511 75.1869 3.26606L72.1621 6.80029L72.0756 6.79041L69.1289 3.26606C68.9164 3.00419 69.0918 2.77444 69.3226 2.77444H70.3696V1.20867H61.6834V2.77444H63.2309C63.9029 2.77444 64.3392 3.20133 64.5951 3.47901C64.7957 3.6974 69.2183 8.71341 69.3226 8.8562C69.4328 8.99405 69.4328 9.01431 69.4328 9.07508V11.5653L69.4046 11.9107C69.3369 12.0386 69.2312 12.1587 69.0632 12.2046L68.6284 12.2343H67.0804ZM40.4983 1.20867V2.77889H41.8744C42.8719 2.77889 42.9446 3.33672 42.9446 3.8145V11.1893C42.9446 11.6315 42.9703 12.2343 42.3329 12.2343H40.6248V13.809H47.9033V12.2343H46.1295C45.4264 12.2343 45.3854 11.9161 45.3735 11.2199V4.90891L55.3532 13.809H57.8883L57.7554 3.7557C57.7732 3.02593 57.8137 2.77444 58.5677 2.77444H60.1602V1.20867H52.7518V2.77444H54.3833C55.1244 2.77444 55.2573 3.0704 55.2613 3.7557L55.3532 9.01431L46.6918 1.20867H40.4983ZM7.78313 0.407254C6.2228 0.407254 4.44407 0.712109 2.94994 1.37814C1.55463 2.00267 0.40686 3.00419 0.40686 4.67274C0.40686 6.16736 1.36095 7.04635 1.3313 7.01769C1.74239 7.3932 2.39409 8.03156 4.10118 8.39867C4.8596 8.56765 6.48763 8.81667 8.11516 8.99899C9.72343 9.1655 11.3129 9.32707 11.9607 9.48715C12.473 9.62253 13.3288 9.79991 13.3288 10.7624C13.3288 11.7298 12.4221 12.0204 12.264 12.0811C12.102 12.1478 11.0179 12.6449 9.05542 12.6449C7.61168 12.6449 5.87496 12.2106 5.24055 11.9917C4.51671 11.7298 3.75234 11.38 3.0369 10.5074C2.85656 10.29 2.58876 9.69467 2.58876 9.10868H0.801636V14.0679H2.77256V13.3994C2.77256 13.3312 2.87682 13.0095 3.19748 13.1671C3.60659 13.3564 4.81612 13.8292 6.08594 14.0921C7.11611 14.3065 7.78313 14.4602 9.06777 14.4602C11.1706 14.4602 12.2957 14.1212 13.0724 13.8994C13.8189 13.6844 14.7266 13.3045 15.4544 12.7239C15.8546 12.4102 16.7242 11.591 16.7242 10.1146C16.7242 8.69018 15.9712 7.80724 15.6965 7.54488C15.3314 7.17678 14.8911 6.89466 14.4252 6.67627C14.0131 6.48951 13.3767 6.25629 12.8574 6.13277C11.8357 5.87683 9.5421 5.57149 8.45214 5.46031C7.30387 5.3358 5.30082 5.17127 4.51028 4.92472C4.26768 4.85308 3.76915 4.61048 3.76915 4.04327C3.76915 3.63959 4.00334 3.29175 4.44407 3.00716C5.14716 2.56742 6.58595 2.29715 8.06477 2.29715C9.83114 2.2932 11.3184 2.68254 12.264 3.10993C12.5882 3.26606 12.9602 3.4632 13.2661 3.70877C13.603 3.98496 14.0744 4.55662 14.2458 5.35507H15.8403V1.03673H14.0675V1.53675C14.0675 1.70177 13.9005 1.9083 13.5763 1.7413C12.7858 1.31885 10.5411 0.420595 7.78313 0.407254ZM29.1076 14.5931C26.1929 14.5931 23.4898 13.7156 21.6755 12.089C20.3167 10.8647 19.6512 9.1986 19.6512 7.49103C19.6512 5.80173 20.3414 4.11293 21.6755 2.89401C23.3559 1.36777 26.3239 0.406761 29.1076 0.406761C32.2095 0.406761 34.6765 1.18891 36.5599 2.90142C37.9058 4.12627 38.5571 5.79185 38.5571 7.49103C38.5571 9.13141 37.8693 10.8839 36.5599 12.089C34.8084 13.7309 32.0405 14.5931 29.1076 14.5931V12.7239C30.6679 12.7239 32.0998 12.1819 33.1003 11.1893C34.0969 10.1897 34.5613 8.98021 34.5613 7.49103C34.5613 6.05174 34.0623 4.72906 33.1003 3.78189C32.1136 2.81051 30.6383 2.25318 29.1076 2.25318C27.5759 2.25318 26.1084 2.80112 25.1109 3.78189C24.1632 4.72906 23.6592 6.06409 23.6592 7.49103C23.6592 8.90758 24.1696 10.2372 25.1109 11.1893C26.1084 12.1765 27.5759 12.7239 29.1076 12.7239" fill="white"/>
</svg>
