<svg width="96" height="33" viewBox="0 0 96 33" fill="none" xmlns="http://www.w3.org/2000/svg">
<path d="M30.0151 26.864C30.0151 26.528 29.9151 26.256 29.7151 26.048C29.5151 25.832 29.2631 25.644 28.9591 25.484C28.6631 25.316 28.3391 25.16 27.9871 25.016C27.6351 24.872 27.3071 24.7 27.0031 24.5C26.7071 24.292 26.4591 24.04 26.2591 23.744C26.0591 23.44 25.9591 23.056 25.9591 22.592C25.9591 21.936 26.1871 21.416 26.6431 21.032C27.0991 20.648 27.7471 20.456 28.5871 20.456C29.0751 20.456 29.5191 20.492 29.9191 20.564C30.3191 20.636 30.6311 20.728 30.8551 20.84L30.5551 21.716C30.3711 21.628 30.0991 21.544 29.7391 21.464C29.3871 21.384 28.9871 21.344 28.5391 21.344C28.0111 21.344 27.6151 21.464 27.3511 21.704C27.0871 21.936 26.9551 22.212 26.9551 22.532C26.9551 22.844 27.0551 23.104 27.2551 23.312C27.4551 23.52 27.7031 23.708 27.9991 23.876C28.3031 24.036 28.6311 24.196 28.9831 24.356C29.3351 24.516 29.6591 24.704 29.9551 24.92C30.2591 25.128 30.5111 25.38 30.7111 25.676C30.9111 25.972 31.0111 26.34 31.0111 26.78C31.0111 27.14 30.9471 27.464 30.8191 27.752C30.6911 28.04 30.5031 28.288 30.2551 28.496C30.0071 28.704 29.7071 28.864 29.3551 28.976C29.0031 29.088 28.6031 29.144 28.1551 29.144C27.5551 29.144 27.0591 29.096 26.6671 29C26.2751 28.912 25.9711 28.812 25.7551 28.7L26.0911 27.8C26.2751 27.904 26.5471 28.008 26.9071 28.112C27.2671 28.208 27.6711 28.256 28.1191 28.256C28.3831 28.256 28.6311 28.232 28.8631 28.184C29.0951 28.128 29.2951 28.044 29.4631 27.932C29.6311 27.812 29.7631 27.664 29.8591 27.488C29.9631 27.312 30.0151 27.104 30.0151 26.864ZM32.4061 23.444C32.7101 23.26 33.0621 23.124 33.4621 23.036C33.8701 22.948 34.2941 22.904 34.7341 22.904C35.1501 22.904 35.4821 22.96 35.7301 23.072C35.9861 23.184 36.1781 23.332 36.3061 23.516C36.4421 23.692 36.5301 23.888 36.5701 24.104C36.6181 24.32 36.6421 24.536 36.6421 24.752C36.6421 25.232 36.6301 25.7 36.6061 26.156C36.5821 26.612 36.5701 27.044 36.5701 27.452C36.5701 27.748 36.5821 28.028 36.6061 28.292C36.6301 28.556 36.6741 28.8 36.7381 29.024H36.0301L35.7781 28.184H35.7181C35.6461 28.296 35.5541 28.408 35.4421 28.52C35.3381 28.624 35.2101 28.72 35.0581 28.808C34.9061 28.888 34.7301 28.956 34.5301 29.012C34.3301 29.068 34.1021 29.096 33.8461 29.096C33.5901 29.096 33.3501 29.056 33.1261 28.976C32.9101 28.896 32.7221 28.784 32.5621 28.64C32.4021 28.488 32.2741 28.308 32.1781 28.1C32.0901 27.892 32.0461 27.656 32.0461 27.392C32.0461 27.04 32.1181 26.748 32.2621 26.516C32.4061 26.276 32.6061 26.088 32.8621 25.952C33.1261 25.808 33.4381 25.708 33.7981 25.652C34.1661 25.588 34.5701 25.556 35.0101 25.556C35.1221 25.556 35.2301 25.556 35.3341 25.556C35.4461 25.556 35.5581 25.564 35.6701 25.58C35.6941 25.34 35.7061 25.124 35.7061 24.932C35.7061 24.492 35.6181 24.184 35.4421 24.008C35.2661 23.832 34.9461 23.744 34.4821 23.744C34.3461 23.744 34.1981 23.756 34.0381 23.78C33.8861 23.796 33.7261 23.824 33.5581 23.864C33.3981 23.896 33.2421 23.94 33.0901 23.996C32.9461 24.044 32.8181 24.1 32.7061 24.164L32.4061 23.444ZM34.1101 28.256C34.3341 28.256 34.5341 28.228 34.7101 28.172C34.8861 28.108 35.0381 28.032 35.1661 27.944C35.2941 27.848 35.3981 27.744 35.4781 27.632C35.5661 27.52 35.6301 27.412 35.6701 27.308V26.312C35.5581 26.304 35.4421 26.3 35.3221 26.3C35.2101 26.292 35.0981 26.288 34.9861 26.288C34.7381 26.288 34.4941 26.304 34.2541 26.336C34.0221 26.36 33.8141 26.412 33.6301 26.492C33.4541 26.564 33.3101 26.668 33.1981 26.804C33.0941 26.932 33.0421 27.096 33.0421 27.296C33.0421 27.576 33.1421 27.808 33.3421 27.992C33.5421 28.168 33.7981 28.256 34.1101 28.256ZM41.9713 29V25.604C41.9713 25.284 41.9553 25.008 41.9233 24.776C41.8993 24.536 41.8473 24.336 41.7673 24.176C41.6873 24.016 41.5713 23.896 41.4193 23.816C41.2753 23.736 41.0833 23.696 40.8433 23.696C40.4753 23.696 40.1673 23.808 39.9193 24.032C39.6793 24.256 39.5113 24.536 39.4153 24.872V29H38.4553V23H39.1273L39.3073 23.732H39.3553C39.5713 23.476 39.8193 23.268 40.0993 23.108C40.3873 22.94 40.7593 22.856 41.2153 22.856C41.5993 22.856 41.9113 22.932 42.1513 23.084C42.3993 23.228 42.5913 23.484 42.7273 23.852C42.9113 23.54 43.1633 23.296 43.4833 23.12C43.8113 22.944 44.1793 22.856 44.5872 22.856C44.9233 22.856 45.2073 22.896 45.4393 22.976C45.6713 23.048 45.8633 23.18 46.0153 23.372C46.1673 23.564 46.2753 23.824 46.3393 24.152C46.4113 24.48 46.4473 24.896 46.4473 25.4V29H45.4873V25.388C45.4873 25.1 45.4713 24.852 45.4393 24.644C45.4153 24.428 45.3593 24.252 45.2713 24.116C45.1913 23.972 45.0753 23.868 44.9233 23.804C44.7793 23.732 44.5873 23.696 44.3473 23.696C43.9473 23.696 43.6353 23.808 43.4113 24.032C43.1873 24.256 43.0273 24.576 42.9313 24.992V29H41.9713ZM50.8335 27.368C50.8335 27.128 50.7615 26.94 50.6175 26.804C50.4735 26.668 50.2935 26.556 50.0775 26.468C49.8695 26.372 49.6375 26.284 49.3815 26.204C49.1335 26.116 48.9015 26.008 48.6855 25.88C48.4775 25.744 48.3015 25.572 48.1575 25.364C48.0135 25.156 47.9415 24.876 47.9415 24.524C47.9415 23.948 48.1055 23.528 48.4335 23.264C48.7615 22.992 49.2175 22.856 49.8015 22.856C50.2335 22.856 50.5935 22.896 50.8815 22.976C51.1775 23.048 51.4335 23.136 51.6495 23.24L51.4215 24.032C51.2375 23.944 51.0135 23.868 50.7495 23.804C50.4935 23.732 50.2175 23.696 49.9215 23.696C49.5695 23.696 49.3095 23.756 49.1415 23.876C48.9815 23.996 48.9015 24.204 48.9015 24.5C48.9015 24.708 48.9735 24.872 49.1175 24.992C49.2615 25.104 49.4375 25.208 49.6455 25.304C49.8615 25.392 50.0935 25.48 50.3415 25.568C50.5975 25.656 50.8295 25.772 51.0375 25.916C51.2535 26.06 51.4335 26.244 51.5775 26.468C51.7215 26.684 51.7935 26.972 51.7935 27.332C51.7935 27.588 51.7495 27.828 51.6615 28.052C51.5815 28.276 51.4535 28.468 51.2775 28.628C51.1015 28.788 50.8815 28.912 50.6175 29C50.3615 29.096 50.0575 29.144 49.7055 29.144C49.2495 29.144 48.8615 29.1 48.5415 29.012C48.2215 28.924 47.9535 28.82 47.7375 28.7L48.0255 27.884C48.2095 27.988 48.4495 28.084 48.7455 28.172C49.0415 28.26 49.3415 28.304 49.6455 28.304C49.9895 28.304 50.2735 28.236 50.4975 28.1C50.7215 27.964 50.8335 27.72 50.8335 27.368ZM54.1083 23V26.42C54.1083 26.732 54.1243 27.008 54.1563 27.248C54.1963 27.48 54.2603 27.676 54.3483 27.836C54.4363 27.988 54.5563 28.104 54.7083 28.184C54.8603 28.264 55.0523 28.304 55.2843 28.304C55.5003 28.304 55.6923 28.272 55.8603 28.208C56.0283 28.136 56.1763 28.04 56.3043 27.92C56.4403 27.8 56.5563 27.664 56.6523 27.512C56.7563 27.352 56.8403 27.184 56.9043 27.008V23H57.8643V27.296C57.8643 27.584 57.8723 27.884 57.8883 28.196C57.9123 28.5 57.9483 28.768 57.9963 29H57.3363L57.0963 28.052H57.0363C56.8523 28.364 56.6043 28.624 56.2923 28.832C55.9803 29.04 55.5843 29.144 55.1043 29.144C54.7843 29.144 54.5003 29.104 54.2523 29.024C54.0123 28.952 53.8083 28.82 53.6403 28.628C53.4803 28.436 53.3563 28.18 53.2683 27.86C53.1883 27.532 53.1483 27.12 53.1483 26.624V23H54.1083ZM63.5651 29V25.58C63.5651 24.956 63.4731 24.488 63.2891 24.176C63.1131 23.856 62.7851 23.696 62.3051 23.696C61.8811 23.696 61.5291 23.812 61.2491 24.044C60.9771 24.268 60.7851 24.552 60.6731 24.896V29H59.7131V23H60.3851L60.5651 23.732H60.6131C60.8051 23.476 61.0611 23.268 61.3811 23.108C61.7091 22.94 62.0971 22.856 62.5451 22.856C62.8731 22.856 63.1611 22.896 63.4091 22.976C63.6571 23.048 63.8611 23.18 64.0211 23.372C64.1891 23.564 64.3131 23.824 64.3931 24.152C64.4811 24.472 64.5251 24.88 64.5251 25.376V29H63.5651ZM70.8716 29.276C70.8716 30.052 70.6636 30.624 70.2476 30.992C69.8396 31.36 69.2316 31.544 68.4236 31.544C67.9436 31.544 67.5556 31.512 67.2596 31.448C66.9716 31.392 66.7236 31.316 66.5156 31.22L66.7676 30.404C66.9516 30.476 67.1556 30.544 67.3796 30.608C67.6036 30.672 67.8956 30.704 68.2556 30.704C68.5916 30.704 68.8636 30.672 69.0716 30.608C69.2876 30.552 69.4596 30.452 69.5876 30.308C69.7156 30.172 69.8036 29.992 69.8516 29.768C69.8996 29.552 69.9236 29.292 69.9236 28.988V28.412H69.8756C69.7156 28.644 69.5116 28.824 69.2636 28.952C69.0156 29.072 68.6916 29.132 68.2916 29.132C67.4836 29.132 66.8876 28.88 66.5036 28.376C66.1276 27.872 65.9396 27.088 65.9396 26.024C65.9396 25 66.1836 24.224 66.6716 23.696C67.1596 23.16 67.8796 22.892 68.8316 22.892C69.2876 22.892 69.6756 22.928 69.9956 23C70.3236 23.072 70.6156 23.156 70.8716 23.252V29.276ZM68.4596 28.292C68.8676 28.292 69.1876 28.192 69.4196 27.992C69.6516 27.784 69.8156 27.464 69.9116 27.032V23.96C69.5916 23.808 69.1836 23.732 68.6876 23.732C68.1436 23.732 67.7156 23.916 67.4036 24.284C67.0916 24.652 66.9356 25.228 66.9356 26.012C66.9356 26.348 66.9636 26.656 67.0196 26.936C67.0756 27.216 67.1636 27.456 67.2836 27.656C67.4036 27.856 67.5596 28.012 67.7516 28.124C67.9436 28.236 68.1796 28.292 68.4596 28.292Z" fill="#E5E5E5"/>
<g clip-path="url(#clip0_16_116)">
<path d="M3.64875 4.2825C3.58275 4.005 3.59925 3.7125 3.63675 3.5625C3.72675 3.1275 4.02675 2.64 4.88925 2.64C5.69925 2.64 6.17925 3.13725 6.17925 3.885V4.73475H9.59925V3.75975C9.59925 0.774754 6.90675 0.294754 4.96425 0.294754C2.52675 0.294754 0.53175 1.10475 0.17175 3.33975C0.075 3.96 0.0525 4.5 0.2025 5.19225C0.8025 7.99725 5.6775 8.8125 6.3825 10.5863C6.5175 10.9163 6.48225 11.3423 6.4125 11.6003C6.30225 12.0623 5.9925 12.5303 5.07525 12.5303C4.21575 12.5303 3.70275 12.0293 3.70275 11.2793L3.69975 9.95175H0V11.0018C0 14.0775 2.4105 15 4.99125 15C7.4715 15 9.50625 14.1578 9.8415 11.8613C10.0065 10.6763 9.8805 9.90375 9.8265 9.6135C9.246 6.7305 4.04025 5.8785 3.64875 4.26975V4.28475V4.2825ZM91.1602 6.7665V8.769H92.5672V10.7565C92.5702 10.9365 92.5598 11.124 92.5312 11.2778C92.4743 11.6498 92.1217 12.2798 91.1273 12.2798C90.1328 12.2798 89.7878 11.6498 89.7292 11.2778C89.6992 11.1248 89.6917 10.9328 89.6917 10.7558V4.485C89.6917 4.2645 89.7067 4.02 89.7517 3.837C89.8118 3.50475 90.1117 2.84325 91.1167 2.84325C92.1667 2.84325 92.4217 3.54075 92.4818 3.84075C92.5117 4.04025 92.5117 4.37175 92.5117 4.37175V5.13675H95.9655V4.68675C95.9655 4.68675 95.9805 4.22175 95.94 3.78675C95.6805 1.218 93.5587 0.396754 91.125 0.396754C88.6875 0.396754 86.6085 1.22175 86.3085 3.78675C86.2785 4.02675 86.238 4.44675 86.238 4.6995V10.4708C86.238 10.7205 86.247 10.9155 86.2935 11.376C86.5185 13.8765 88.692 14.766 91.1213 14.766C93.5588 14.766 95.7142 13.8765 95.9438 11.376C95.9827 10.911 95.9887 10.716 95.9932 10.4685V6.78H91.1482L91.1535 6.77025L91.1602 6.7665ZM67.3275 0.745504H63.8498V10.9028C63.8588 11.0768 63.8498 11.2778 63.8228 11.4218C63.7477 11.7593 63.4597 12.4193 62.5027 12.4193C61.5577 12.4193 61.2622 11.7743 61.1978 11.4293C61.1603 11.2868 61.1572 11.0843 61.1602 10.9118V0.757504H57.69V10.5998C57.687 10.8548 57.705 11.3723 57.72 11.5073C57.96 14.0693 59.979 14.9033 62.505 14.9033C65.0325 14.9033 67.0515 14.0708 67.296 11.5095C67.311 11.3745 67.341 10.854 67.326 10.5975V0.750004L67.3275 0.742504V0.745504ZM35.4323 0.745504L33.6975 11.4728L31.968 0.745504H26.367L26.0715 14.4728H29.502L29.595 1.76625L31.9552 14.4728H35.4202L37.7827 1.76625L37.878 14.4728H41.3167L41.0025 0.745504H35.4173H35.4292H35.4323ZM14.6962 0.745504L12.1522 14.4728H15.8602L17.778 1.76625L19.647 14.4728H23.3295L20.7975 0.745504H14.6962ZM79.4565 11.7968L76.227 0.742504H71.1322V14.325H74.4983L74.3033 2.925L77.7757 14.3288H82.6657V0.746254H79.275L79.4625 11.7968H79.4565ZM48.2925 4.3125C48.228 4.0425 48.2475 3.7575 48.2775 3.6075C48.3765 3.1665 48.672 2.688 49.5195 2.688C50.3145 2.688 50.7765 3.17925 50.7765 3.92175V4.76175H54.1628V3.804C54.1628 0.849004 51.5107 0.384004 49.5915 0.384004C47.1765 0.384004 45.1987 1.194 44.8402 3.414C44.7352 4.0245 44.7202 4.554 44.8703 5.244C45.4552 8.019 50.2852 8.829 50.9917 10.5855C51.1117 10.9155 51.0818 11.34 51.0068 11.5905C50.9018 12.048 50.5793 12.507 49.6792 12.507C48.8242 12.507 48.3142 12.012 48.3142 11.2733V9.95325H44.6693V11.0003C44.6693 14.0378 47.0392 14.9528 49.6042 14.9528C52.0493 14.9528 54.0742 14.1128 54.4043 11.8478C54.5543 10.6778 54.4373 9.91275 54.3743 9.62775C53.8042 6.77775 48.6593 5.92275 48.2692 4.33275L48.2842 4.30575L48.2925 4.3125Z" fill="white"/>
</g>
<defs>
<clipPath id="clip0_16_116">
<rect width="96" height="15" fill="white"/>
</clipPath>
</defs>
</svg>
