<svg width="41" height="33" viewBox="0 0 41 33" fill="none" xmlns="http://www.w3.org/2000/svg">
<path d="M10.7152 26.672H7.61922L6.77922 29H5.79522L8.97522 20.468H9.43122L12.6232 29H11.5792L10.7152 26.672ZM7.94322 25.808H10.4152L9.47922 23.252L9.17922 21.98H9.16722L8.86722 23.276L7.94322 25.808ZM13.6428 23H14.3027L14.4827 23.72H14.5308C14.7148 23.44 14.9508 23.228 15.2388 23.084C15.5348 22.932 15.8708 22.856 16.2467 22.856C17.0468 22.856 17.6428 23.092 18.0348 23.564C18.4268 24.036 18.6228 24.808 18.6228 25.88C18.6228 26.384 18.5548 26.84 18.4188 27.248C18.2908 27.648 18.1068 27.988 17.8668 28.268C17.6268 28.548 17.3348 28.764 16.9908 28.916C16.6548 29.068 16.2788 29.144 15.8628 29.144C15.5668 29.144 15.3308 29.124 15.1548 29.084C14.9868 29.052 14.8028 28.992 14.6028 28.904V31.4H13.6428V23ZM16.0668 23.696C15.6588 23.696 15.3348 23.804 15.0948 24.02C14.8628 24.228 14.6988 24.548 14.6028 24.98V27.956C14.7468 28.068 14.9108 28.156 15.0948 28.22C15.2788 28.276 15.5228 28.304 15.8268 28.304C16.3788 28.304 16.8148 28.1 17.1348 27.692C17.4628 27.276 17.6268 26.668 17.6268 25.868C17.6268 25.54 17.5988 25.244 17.5428 24.98C17.4868 24.708 17.3948 24.48 17.2668 24.296C17.1468 24.104 16.9868 23.956 16.7868 23.852C16.5948 23.748 16.3548 23.696 16.0668 23.696ZM20.1349 23H20.7949L20.9749 23.72H21.0229C21.2069 23.44 21.4429 23.228 21.7309 23.084C22.0269 22.932 22.3629 22.856 22.7389 22.856C23.5389 22.856 24.1349 23.092 24.5269 23.564C24.9189 24.036 25.1149 24.808 25.1149 25.88C25.1149 26.384 25.0469 26.84 24.9109 27.248C24.7829 27.648 24.5989 27.988 24.3589 28.268C24.1189 28.548 23.8269 28.764 23.4829 28.916C23.1469 29.068 22.7709 29.144 22.3549 29.144C22.0589 29.144 21.8229 29.124 21.6469 29.084C21.4789 29.052 21.2949 28.992 21.0949 28.904V31.4H20.1349V23ZM22.5589 23.696C22.1509 23.696 21.8269 23.804 21.5869 24.02C21.3549 24.228 21.1909 24.548 21.0949 24.98V27.956C21.2389 28.068 21.4029 28.156 21.5869 28.22C21.7709 28.276 22.0149 28.304 22.3189 28.304C22.8709 28.304 23.3069 28.1 23.6269 27.692C23.9549 27.276 24.1189 26.668 24.1189 25.868C24.1189 25.54 24.0909 25.244 24.0349 24.98C23.9789 24.708 23.8869 24.48 23.7589 24.296C23.6389 24.104 23.4789 23.956 23.2789 23.852C23.0869 23.748 22.8469 23.696 22.5589 23.696ZM27.6951 27.524C27.6951 27.804 27.7431 28.004 27.8391 28.124C27.9351 28.244 28.0711 28.304 28.2471 28.304C28.3511 28.304 28.4631 28.296 28.5831 28.28C28.7031 28.264 28.8391 28.228 28.9911 28.172L29.0991 28.928C28.9711 28.992 28.7911 29.044 28.5591 29.084C28.3351 29.124 28.1391 29.144 27.9711 29.144C27.6111 29.144 27.3151 29.044 27.0831 28.844C26.8511 28.636 26.7351 28.288 26.7351 27.8V20.6H27.6951V27.524ZM34.511 28.52C34.271 28.712 33.967 28.864 33.599 28.976C33.239 29.088 32.855 29.144 32.447 29.144C31.991 29.144 31.595 29.072 31.259 28.928C30.923 28.776 30.647 28.564 30.431 28.292C30.215 28.012 30.055 27.68 29.951 27.296C29.847 26.912 29.795 26.48 29.795 26C29.795 24.976 30.023 24.196 30.479 23.66C30.935 23.124 31.587 22.856 32.435 22.856C32.707 22.856 32.979 22.888 33.251 22.952C33.523 23.008 33.767 23.12 33.983 23.288C34.199 23.456 34.375 23.696 34.511 24.008C34.647 24.312 34.715 24.716 34.715 25.22C34.715 25.484 34.691 25.776 34.643 26.096H30.791C30.791 26.448 30.827 26.76 30.899 27.032C30.971 27.304 31.083 27.536 31.235 27.728C31.387 27.912 31.583 28.056 31.823 28.16C32.071 28.256 32.371 28.304 32.723 28.304C32.995 28.304 33.267 28.256 33.539 28.16C33.811 28.064 34.015 27.952 34.151 27.824L34.511 28.52ZM32.447 23.696C31.975 23.696 31.595 23.82 31.307 24.068C31.027 24.316 30.859 24.74 30.803 25.34H33.779C33.779 24.732 33.663 24.308 33.431 24.068C33.199 23.82 32.871 23.696 32.447 23.696Z" fill="#E5E5E5"/>
<g clip-path="url(#clip0_16_109)">
<path d="M26.7351 11.2991C26.6514 11.5416 26.5637 11.7729 26.4705 11.9948C26.2431 12.5192 25.9746 13.0017 25.6635 13.4447C25.2402 14.0496 24.8927 14.4682 24.625 14.7003C24.2104 15.0818 23.7658 15.2776 23.2897 15.2879C22.9477 15.2879 22.5363 15.1907 22.0562 14.9941C21.5752 14.7975 21.133 14.7003 20.7287 14.7003C20.3046 14.7003 19.8497 14.7975 19.3633 14.9941C18.8761 15.1907 18.4836 15.2942 18.1835 15.3037C17.727 15.3234 17.2722 15.1228 16.8181 14.7003C16.5283 14.4476 16.1658 14.0141 15.7315 13.4005C15.2656 12.7451 14.8826 11.9846 14.5825 11.1175C14.2611 10.1817 14.1 9.27514 14.1 8.39778C14.1 7.3925 14.3171 6.52542 14.7523 5.7989C15.0942 5.21531 15.5491 4.75492 16.1184 4.41693C16.6878 4.07894 17.303 3.90679 17.9655 3.89573C18.328 3.89573 18.8034 4.00787 19.3941 4.2282C19.9832 4.44931 20.3615 4.56145 20.5273 4.56145C20.6513 4.56145 21.0714 4.43036 21.7837 4.16897C22.4573 3.92653 23.0259 3.82624 23.4918 3.86573C24.7537 3.9676 25.7014 4.4651 26.3323 5.36141C25.2039 6.04528 24.6456 7.00318 24.6566 8.23195C24.6669 9.18906 25.0136 9.98586 25.6959 10.6184C26.0054 10.9114 26.3513 11.138 26.7351 11.2991ZM23.5605 0.304993C23.5708 0.405284 23.5755 0.505575 23.5755 0.605077C23.5755 1.35529 23.3015 2.05575 22.7558 2.70409C22.0964 3.47483 21.2988 3.92021 20.4341 3.84993C20.4231 3.75991 20.4167 3.66514 20.4167 3.56564C20.4167 2.84544 20.7303 2.0747 21.287 1.44452C21.565 1.12549 21.9187 0.860148 22.3468 0.648509C22.7748 0.44003 23.1799 0.324735 23.5605 0.304993Z" fill="white"/>
</g>
<defs>
<clipPath id="clip0_16_109">
<rect width="13" height="15" fill="white" transform="translate(14)"/>
</clipPath>
</defs>
</svg>
