<svg width="59" height="33" viewBox="0 0 59 33" fill="none" xmlns="http://www.w3.org/2000/svg">
<path d="M14.4272 23.36L14.5472 22.1H14.4872L14.0312 23.252L11.8472 27.044H11.5472L9.23117 23.24L8.79917 22.1H8.73917L8.90717 23.348V29H7.97117V20.6H8.71517L11.3432 24.896L11.7392 25.832H11.7632L12.1352 24.872L14.6432 20.6H15.4232V29H14.4272V23.36ZM17.2714 23.444C17.5754 23.26 17.9274 23.124 18.3274 23.036C18.7354 22.948 19.1594 22.904 19.5994 22.904C20.0154 22.904 20.3474 22.96 20.5954 23.072C20.8514 23.184 21.0434 23.332 21.1714 23.516C21.3074 23.692 21.3954 23.888 21.4354 24.104C21.4834 24.32 21.5074 24.536 21.5074 24.752C21.5074 25.232 21.4954 25.7 21.4714 26.156C21.4474 26.612 21.4354 27.044 21.4354 27.452C21.4354 27.748 21.4474 28.028 21.4714 28.292C21.4954 28.556 21.5394 28.8 21.6034 29.024H20.8954L20.6434 28.184H20.5834C20.5114 28.296 20.4194 28.408 20.3074 28.52C20.2034 28.624 20.0754 28.72 19.9234 28.808C19.7714 28.888 19.5954 28.956 19.3954 29.012C19.1954 29.068 18.9674 29.096 18.7114 29.096C18.4554 29.096 18.2154 29.056 17.9914 28.976C17.7754 28.896 17.5874 28.784 17.4274 28.64C17.2674 28.488 17.1394 28.308 17.0434 28.1C16.9554 27.892 16.9114 27.656 16.9114 27.392C16.9114 27.04 16.9834 26.748 17.1274 26.516C17.2714 26.276 17.4714 26.088 17.7274 25.952C17.9914 25.808 18.3034 25.708 18.6634 25.652C19.0314 25.588 19.4354 25.556 19.8754 25.556C19.9874 25.556 20.0954 25.556 20.1994 25.556C20.3114 25.556 20.4234 25.564 20.5354 25.58C20.5594 25.34 20.5714 25.124 20.5714 24.932C20.5714 24.492 20.4834 24.184 20.3074 24.008C20.1314 23.832 19.8114 23.744 19.3474 23.744C19.2114 23.744 19.0634 23.756 18.9034 23.78C18.7514 23.796 18.5914 23.824 18.4234 23.864C18.2634 23.896 18.1074 23.94 17.9554 23.996C17.8114 24.044 17.6834 24.1 17.5714 24.164L17.2714 23.444ZM18.9754 28.256C19.1994 28.256 19.3994 28.228 19.5754 28.172C19.7514 28.108 19.9034 28.032 20.0314 27.944C20.1594 27.848 20.2634 27.744 20.3434 27.632C20.4314 27.52 20.4954 27.412 20.5354 27.308V26.312C20.4234 26.304 20.3074 26.3 20.1874 26.3C20.0754 26.292 19.9634 26.288 19.8514 26.288C19.6034 26.288 19.3594 26.304 19.1194 26.336C18.8874 26.36 18.6794 26.412 18.4954 26.492C18.3194 26.564 18.1754 26.668 18.0634 26.804C17.9594 26.932 17.9074 27.096 17.9074 27.296C17.9074 27.576 18.0074 27.808 18.2074 27.992C18.4074 28.168 18.6634 28.256 18.9754 28.256ZM26.1525 23.924C25.9125 23.844 25.6845 23.804 25.4685 23.804C25.1245 23.804 24.8525 23.9 24.6525 24.092C24.4525 24.276 24.3285 24.512 24.2805 24.8V29H23.3205V23H23.9925L24.1725 23.732H24.2205C24.3725 23.46 24.5525 23.252 24.7605 23.108C24.9765 22.956 25.2485 22.88 25.5765 22.88C25.8085 22.88 26.0685 22.92 26.3565 23L26.1525 23.924ZM30.0386 27.368C30.0386 27.128 29.9666 26.94 29.8226 26.804C29.6786 26.668 29.4986 26.556 29.2826 26.468C29.0746 26.372 28.8426 26.284 28.5866 26.204C28.3386 26.116 28.1066 26.008 27.8906 25.88C27.6826 25.744 27.5066 25.572 27.3626 25.364C27.2186 25.156 27.1466 24.876 27.1466 24.524C27.1466 23.948 27.3106 23.528 27.6386 23.264C27.9666 22.992 28.4226 22.856 29.0066 22.856C29.4386 22.856 29.7986 22.896 30.0866 22.976C30.3826 23.048 30.6386 23.136 30.8546 23.24L30.6266 24.032C30.4426 23.944 30.2186 23.868 29.9546 23.804C29.6986 23.732 29.4226 23.696 29.1266 23.696C28.7746 23.696 28.5146 23.756 28.3466 23.876C28.1866 23.996 28.1066 24.204 28.1066 24.5C28.1066 24.708 28.1786 24.872 28.3226 24.992C28.4666 25.104 28.6426 25.208 28.8506 25.304C29.0666 25.392 29.2986 25.48 29.5466 25.568C29.8026 25.656 30.0346 25.772 30.2426 25.916C30.4586 26.06 30.6386 26.244 30.7826 26.468C30.9266 26.684 30.9986 26.972 30.9986 27.332C30.9986 27.588 30.9546 27.828 30.8666 28.052C30.7866 28.276 30.6586 28.468 30.4826 28.628C30.3066 28.788 30.0866 28.912 29.8226 29C29.5666 29.096 29.2626 29.144 28.9106 29.144C28.4546 29.144 28.0666 29.1 27.7466 29.012C27.4266 28.924 27.1586 28.82 26.9426 28.7L27.2306 27.884C27.4146 27.988 27.6546 28.084 27.9506 28.172C28.2466 28.26 28.5466 28.304 28.8506 28.304C29.1946 28.304 29.4786 28.236 29.7026 28.1C29.9266 27.964 30.0386 27.72 30.0386 27.368ZM36.3014 29V25.58C36.3014 25.268 36.2814 24.996 36.2414 24.764C36.2094 24.524 36.1454 24.328 36.0494 24.176C35.9534 24.016 35.8214 23.896 35.6534 23.816C35.4934 23.736 35.2814 23.696 35.0174 23.696C34.6414 23.696 34.3014 23.82 33.9974 24.068C33.6934 24.308 33.4974 24.62 33.4094 25.004V29H32.4494V20.6H33.4094V23.672H33.4574C33.6654 23.424 33.9134 23.228 34.2014 23.084C34.4974 22.932 34.8614 22.856 35.2934 22.856C35.6294 22.856 35.9214 22.896 36.1694 22.976C36.4174 23.048 36.6214 23.18 36.7814 23.372C36.9494 23.564 37.0694 23.824 37.1414 24.152C37.2214 24.472 37.2614 24.88 37.2614 25.376V29H36.3014ZM38.9159 23.444C39.2199 23.26 39.5719 23.124 39.9719 23.036C40.3799 22.948 40.8039 22.904 41.2439 22.904C41.6599 22.904 41.9919 22.96 42.2399 23.072C42.4959 23.184 42.6879 23.332 42.8159 23.516C42.9519 23.692 43.0399 23.888 43.0799 24.104C43.1279 24.32 43.1519 24.536 43.1519 24.752C43.1519 25.232 43.1399 25.7 43.1159 26.156C43.0919 26.612 43.0799 27.044 43.0799 27.452C43.0799 27.748 43.0919 28.028 43.1159 28.292C43.1399 28.556 43.1839 28.8 43.2479 29.024H42.5399L42.2879 28.184H42.2279C42.1559 28.296 42.0639 28.408 41.9519 28.52C41.8479 28.624 41.7199 28.72 41.5679 28.808C41.4159 28.888 41.2399 28.956 41.0399 29.012C40.8399 29.068 40.6119 29.096 40.3559 29.096C40.0999 29.096 39.8599 29.056 39.6359 28.976C39.4199 28.896 39.2319 28.784 39.0719 28.64C38.9119 28.488 38.7839 28.308 38.6879 28.1C38.5999 27.892 38.5559 27.656 38.5559 27.392C38.5559 27.04 38.6279 26.748 38.7719 26.516C38.9159 26.276 39.1159 26.088 39.3719 25.952C39.6359 25.808 39.9479 25.708 40.3079 25.652C40.6759 25.588 41.0799 25.556 41.5199 25.556C41.6319 25.556 41.7399 25.556 41.8439 25.556C41.9559 25.556 42.0679 25.564 42.1799 25.58C42.2039 25.34 42.2159 25.124 42.2159 24.932C42.2159 24.492 42.1279 24.184 41.9519 24.008C41.7759 23.832 41.4559 23.744 40.9919 23.744C40.8559 23.744 40.7079 23.756 40.5479 23.78C40.3959 23.796 40.2359 23.824 40.0679 23.864C39.9079 23.896 39.7519 23.94 39.5999 23.996C39.4559 24.044 39.3279 24.1 39.2159 24.164L38.9159 23.444ZM40.6199 28.256C40.8439 28.256 41.0439 28.228 41.2199 28.172C41.3959 28.108 41.5479 28.032 41.6759 27.944C41.8039 27.848 41.9079 27.744 41.9879 27.632C42.0759 27.52 42.1399 27.412 42.1799 27.308V26.312C42.0679 26.304 41.9519 26.3 41.8319 26.3C41.7199 26.292 41.6079 26.288 41.4959 26.288C41.2479 26.288 41.0039 26.304 40.7639 26.336C40.5319 26.36 40.3239 26.412 40.1399 26.492C39.9639 26.564 39.8199 26.668 39.7079 26.804C39.6039 26.932 39.5519 27.096 39.5519 27.296C39.5519 27.576 39.6519 27.808 39.8519 27.992C40.0519 28.168 40.3079 28.256 40.6199 28.256ZM46.033 27.524C46.033 27.804 46.081 28.004 46.177 28.124C46.273 28.244 46.409 28.304 46.585 28.304C46.689 28.304 46.801 28.296 46.921 28.28C47.041 28.264 47.177 28.228 47.329 28.172L47.437 28.928C47.309 28.992 47.129 29.044 46.897 29.084C46.673 29.124 46.477 29.144 46.309 29.144C45.949 29.144 45.653 29.044 45.421 28.844C45.189 28.636 45.073 28.288 45.073 27.8V20.6H46.033V27.524ZM49.5369 27.524C49.5369 27.804 49.5849 28.004 49.6809 28.124C49.7769 28.244 49.9129 28.304 50.0889 28.304C50.1929 28.304 50.3049 28.296 50.4249 28.28C50.5449 28.264 50.6809 28.228 50.8329 28.172L50.9409 28.928C50.8129 28.992 50.6329 29.044 50.4009 29.084C50.1769 29.124 49.9809 29.144 49.8129 29.144C49.4529 29.144 49.1569 29.044 48.9249 28.844C48.6929 28.636 48.5769 28.288 48.5769 27.8V20.6H49.5369V27.524Z" fill="#E5E5E5"/>
<g clip-path="url(#clip0_16_123)">
<path d="M7.91682 14.8056C7.65674 14.6154 7.66239 14.5658 8.17491 12.5428C8.46311 11.4053 8.72889 10.1131 8.76554 9.67129L8.83217 8.86805L8.1456 10.2001C6.92268 12.5727 6.02215 13.7248 4.85664 14.4078C4.12625 14.8359 2.77306 14.98 1.86676 14.7262C0.0189364 14.2089 -0.640733 11.7362 0.731596 10.4712C1.55805 9.7094 3.92193 10.0146 3.65713 10.8489C3.56988 11.1238 3.49842 11.1459 2.95942 11.0651C2.43415 10.9863 2.31473 11.0192 2.00626 11.3277C1.73344 11.6005 1.65361 11.8194 1.65361 12.2945C1.65361 12.811 1.72094 12.9652 2.07758 13.2653C2.80882 13.8806 3.93231 13.6787 4.83742 12.7694C5.46273 12.1412 6.53891 10.1633 7.91681 7.10992C9.34845 3.93744 10.2102 2.22479 10.9587 1.06449C11.6372 0.0127543 11.7449 -0.0762353 12.2008 0.0381819C12.717 0.167747 12.744 0.632571 12.2935 1.63858C11.4441 3.53571 10.8334 5.76551 10.6721 7.55898L10.5792 8.59245L11.9261 6.6633C13.6353 4.21507 14.6233 2.9895 16.1748 1.39257C17.1651 0.373371 17.4918 0.117954 17.8055 0.117954C18.299 0.117954 18.4466 0.458294 18.1592 0.933493C18.0408 1.12915 17.3424 2.28136 16.6071 3.49397C13.8817 7.98857 12.6478 11.2881 13.0851 12.9122C13.2733 13.6111 13.5903 13.7231 14.3616 13.3633C15.2029 12.9709 15.6289 12.5325 16.1261 11.5476C17.0352 9.7465 18.8386 8.38576 20.3164 8.38576C20.7043 8.38576 21.1456 8.47258 21.2971 8.57869C21.5332 8.74406 21.6102 8.74406 21.8364 8.57869C22.1802 8.32725 22.7958 8.33186 23.008 8.58746C23.1439 8.7513 23.0327 9.06814 22.4152 10.2755C21.9972 11.0929 21.5118 12.021 21.3365 12.3378C21.1613 12.6547 21.0603 12.9563 21.1121 13.0081C21.4275 13.3235 22.852 11.8088 24.3021 9.61601C24.8034 8.85798 24.8072 8.84183 24.6 8.34582C24.3306 7.70118 24.3302 6.42095 24.5991 5.90091C24.825 5.46411 25.4393 5.07864 25.9096 5.07864C26.0708 5.07864 26.3839 5.25989 26.6054 5.48143C26.9343 5.81029 27.0082 6.00098 27.0082 6.52039C27.0082 6.88463 26.8904 7.38748 26.7326 7.69677C26.3698 8.40794 26.3777 8.43469 26.9245 8.34596C27.4903 8.25413 27.9728 8.54599 27.9728 8.98016C27.9728 9.14745 27.5351 9.83879 26.9962 10.5226C25.1724 12.8368 24.878 13.9976 26.2613 13.4196C27.1628 13.043 27.6192 12.5936 29.7648 9.96961C31.3274 8.05862 31.925 7.42118 32.1537 7.42118C32.506 7.42118 33.0713 7.77905 33.0713 8.00211C33.0713 8.08566 32.8132 8.49581 32.4978 8.91356L31.9243 9.6731L32.1073 10.304C32.2079 10.6511 32.3172 11.1985 32.3501 11.5206C32.3831 11.8427 32.4404 12.1063 32.4776 12.1063C32.5148 12.1063 32.9022 11.8558 33.3385 11.5498C33.9715 11.1058 34.2034 10.8342 34.4859 10.2063C36.0307 6.77219 37.255 4.13282 37.4237 3.87292C37.6618 3.50607 38.4502 3.44332 38.721 3.76966C38.9039 3.99001 38.9007 3.999 37.4305 7.45915L36.7996 8.94399L37.3934 8.59598C38.0447 8.21429 38.5514 8.15453 38.8837 8.42021C39.1967 8.67049 39.4133 9.43358 39.3159 9.94276C39.228 10.4029 38.5779 11.7557 37.9619 12.7608C37.7476 13.1104 37.6698 13.3464 37.7688 13.3464C38.1407 13.3464 39.1132 12.3589 39.4804 11.6083C39.963 10.6219 41.4547 9.0968 42.3725 8.65128C43.2427 8.2289 44.3444 8.19462 44.7666 8.57676C45.0165 8.80284 45.0645 8.80894 45.1356 8.62365C45.3092 8.17115 46.5753 8.2444 46.5753 8.70694C46.5753 8.81155 46.1413 9.73487 45.6108 10.7587C45.0802 11.7826 44.6462 12.7547 44.6462 12.9188C44.6462 13.4456 45.0241 13.4018 45.7542 12.7906C46.315 12.321 46.5835 11.9329 47.1227 10.8128C48.4642 8.0258 50.5005 5.4585 52.361 4.20861C53.4442 3.48082 54.4298 3.55643 54.4298 4.36734C54.4298 4.79777 53.5374 6.72182 52.9248 7.6122C52.2988 8.52197 50.8976 9.83302 49.597 10.7258C48.1676 11.707 48.1132 11.7689 48.0083 12.5339C47.9061 13.2799 48.259 13.7135 48.8481 13.5657C49.4626 13.4115 50.7249 11.9735 51.5306 10.51C52.5907 8.58418 53.1175 7.76612 53.9948 6.68342C54.9136 5.54952 56.8739 3.89857 57.4525 3.7715C58.0168 3.64755 58.4095 3.79441 58.5023 4.16411C58.5995 4.55133 58.0538 6.07085 57.4444 7.10989C56.8712 8.08704 54.9752 9.98921 53.563 11.0039C52.4537 11.8009 52.2201 12.2077 52.4182 12.9971C52.6738 14.0157 53.8498 13.5903 55.1389 12.0127C55.8876 11.0964 56.0049 11.0042 56.1882 11.1875C56.4862 11.4855 56.3315 11.897 55.5146 12.9792C54.7411 14.0039 53.687 14.7924 52.9018 14.9335C52.0367 15.0889 51.1162 14.4855 50.8032 13.5577C50.7785 13.4844 50.5457 13.6249 50.2859 13.8699C49.6326 14.486 48.5546 15 47.9157 15C47.5084 15 47.2849 14.904 46.9781 14.5972C46.7566 14.3757 46.5753 14.0656 46.5753 13.9082C46.5753 13.7508 46.5417 13.622 46.5005 13.622C46.4594 13.622 46.1028 13.8658 45.7082 14.1636C44.496 15.0787 43.8631 15.1493 43.284 14.4341L43.052 14.1475L42.5745 14.4284C42.3118 14.5828 41.8015 14.7751 41.4404 14.8556C40.6758 15.0262 40.098 14.8454 39.5674 14.2697L39.2426 13.9173L38.6953 14.3138C37.8598 14.919 37.3099 15.0613 36.8086 14.802C36.29 14.5339 35.964 14.0776 35.9682 13.6258C35.97 13.4343 36.3421 12.5684 36.795 11.7017C37.248 10.8351 37.6186 10.0755 37.6186 10.0137C37.6186 9.74919 37.2241 9.94881 36.5265 10.5664C35.879 11.1396 35.6748 11.4576 35.002 12.9414C34.1137 14.9006 33.781 15.2362 33.1057 14.855C32.7104 14.6318 32.6166 14.1332 32.8637 13.5685C32.9385 13.3976 32.6353 13.5487 31.9799 14.0089C30.3293 15.1681 28.9997 15.2628 28.0874 14.2862L27.7191 13.8919L26.9847 14.3314C26.4597 14.6457 26.026 14.7886 25.4636 14.8327C24.7323 14.8902 24.6472 14.865 24.2578 14.4756C23.9534 14.1711 23.8389 13.927 23.8389 13.5822C23.8389 12.9208 24.6531 11.3632 25.4878 10.4279C25.9252 9.93776 26.1294 9.61003 26.0341 9.55111C25.8489 9.43669 25.9155 9.36085 24.5993 11.1866C23.1474 13.2006 22.3125 14.0852 21.4646 14.5077C20.6036 14.9368 20.0316 14.9581 19.6252 14.5763L19.3209 14.2905L18.7605 14.5763C18.0308 14.9486 17.0299 14.9525 16.4277 14.5853C16.1788 14.4336 15.9401 14.218 15.8973 14.1063C15.8344 13.9424 15.7077 13.98 15.2414 14.3008C14.2602 14.9759 13.0689 15.1347 12.2309 14.7022C11.5902 14.3715 11.353 12.9472 11.615 11.0039L11.7172 10.246L11.2861 11.0039C10.0908 13.1053 8.66337 15 8.27561 15C8.22453 15 8.06307 14.9125 7.91682 14.8056ZM30.3905 13.5594C30.6651 13.2848 30.7284 13.084 30.7268 12.4915C30.7247 11.6465 30.6073 11.1132 30.4363 11.1705C30.1935 11.2519 29.0752 12.7327 29.0752 12.9728C29.0752 13.2435 29.6599 13.8976 29.9019 13.8976C29.9846 13.8976 30.2045 13.7454 30.3905 13.5594ZM42.5392 12.8665C43.6843 11.8863 44.5008 9.48683 43.7266 9.37659C42.709 9.23166 40.784 11.4186 40.7459 12.763C40.7184 13.7318 41.4771 13.7755 42.5392 12.8665ZM18.7613 13.0872C19.6944 12.4954 20.4634 11.2653 20.6216 10.1114C20.7153 9.42807 20.5419 9.24875 19.9349 9.40109C18.6727 9.71789 16.7788 12.5743 17.3637 13.2791C17.6207 13.5888 18.067 13.5275 18.7613 13.0872ZM50.6787 8.42021C51.6634 7.45099 53.1033 5.35423 52.7842 5.35423C52.7205 5.35423 52.1784 5.87183 51.5796 6.50446C50.5354 7.60764 49.2042 9.48813 49.4675 9.48813C49.537 9.48813 50.082 9.00757 50.6787 8.42021ZM55.1813 8.17906C55.8603 7.5546 57.2257 5.35423 56.9343 5.35423C56.5355 5.35423 53.7408 8.89198 53.7408 9.39671C53.7408 9.47855 54.0312 9.26907 54.3861 8.93119C54.7411 8.59331 55.0989 8.25485 55.1813 8.17906ZM25.8899 7.13199C26.0234 6.74905 25.9095 6.18101 25.6991 6.18101C25.5235 6.18101 25.3483 6.8032 25.4253 7.15367C25.54 7.67593 25.703 7.66833 25.8899 7.13199Z" fill="white"/>
</g>
<defs>
<clipPath id="clip0_16_123">
<rect width="58.5136" height="15" fill="white"/>
</clipPath>
</defs>
</svg>
