<svg width="74" height="33" viewBox="0 0 74 33" fill="none" xmlns="http://www.w3.org/2000/svg">
<path d="M11.8091 20.684C12.1131 20.612 12.4411 20.564 12.7931 20.54C13.1451 20.516 13.4931 20.504 13.8371 20.504C14.2051 20.504 14.5771 20.54 14.9531 20.612C15.3371 20.684 15.6851 20.816 15.9971 21.008C16.3091 21.2 16.5611 21.464 16.7531 21.8C16.9531 22.136 17.0531 22.564 17.0531 23.084C17.0531 23.596 16.9611 24.028 16.7771 24.38C16.5931 24.732 16.3491 25.02 16.0451 25.244C15.7411 25.46 15.3931 25.616 15.0011 25.712C14.6091 25.808 14.2051 25.856 13.7891 25.856C13.7491 25.856 13.6811 25.856 13.5851 25.856C13.4971 25.856 13.4011 25.856 13.2971 25.856C13.2011 25.848 13.1051 25.84 13.0091 25.832C12.9131 25.824 12.8451 25.816 12.8051 25.808V29H11.8091V20.684ZM13.8611 21.368C13.6531 21.368 13.4531 21.372 13.2611 21.38C13.0691 21.388 12.9171 21.408 12.8051 21.44V24.92C12.8451 24.936 12.9091 24.948 12.9971 24.956C13.0851 24.956 13.1771 24.96 13.2731 24.968C13.3691 24.968 13.4611 24.968 13.5491 24.968C13.6371 24.968 13.7011 24.968 13.7411 24.968C14.0131 24.968 14.2811 24.944 14.5451 24.896C14.8171 24.84 15.0611 24.744 15.2771 24.608C15.4931 24.472 15.6651 24.28 15.7931 24.032C15.9291 23.784 15.9971 23.468 15.9971 23.084C15.9971 22.756 15.9331 22.484 15.8051 22.268C15.6851 22.044 15.5211 21.868 15.3131 21.74C15.1131 21.604 14.8851 21.508 14.6291 21.452C14.3731 21.396 14.1171 21.368 13.8611 21.368ZM17.8983 23.444C18.2023 23.26 18.5543 23.124 18.9543 23.036C19.3623 22.948 19.7863 22.904 20.2263 22.904C20.6423 22.904 20.9743 22.96 21.2223 23.072C21.4783 23.184 21.6703 23.332 21.7983 23.516C21.9343 23.692 22.0223 23.888 22.0623 24.104C22.1103 24.32 22.1343 24.536 22.1343 24.752C22.1343 25.232 22.1223 25.7 22.0983 26.156C22.0743 26.612 22.0623 27.044 22.0623 27.452C22.0623 27.748 22.0743 28.028 22.0983 28.292C22.1223 28.556 22.1663 28.8 22.2303 29.024H21.5223L21.2703 28.184H21.2103C21.1383 28.296 21.0463 28.408 20.9343 28.52C20.8303 28.624 20.7023 28.72 20.5503 28.808C20.3983 28.888 20.2223 28.956 20.0223 29.012C19.8223 29.068 19.5943 29.096 19.3383 29.096C19.0823 29.096 18.8423 29.056 18.6183 28.976C18.4023 28.896 18.2143 28.784 18.0543 28.64C17.8943 28.488 17.7663 28.308 17.6703 28.1C17.5823 27.892 17.5383 27.656 17.5383 27.392C17.5383 27.04 17.6103 26.748 17.7543 26.516C17.8983 26.276 18.0983 26.088 18.3543 25.952C18.6183 25.808 18.9303 25.708 19.2903 25.652C19.6583 25.588 20.0623 25.556 20.5023 25.556C20.6143 25.556 20.7223 25.556 20.8263 25.556C20.9383 25.556 21.0503 25.564 21.1623 25.58C21.1863 25.34 21.1983 25.124 21.1983 24.932C21.1983 24.492 21.1103 24.184 20.9343 24.008C20.7583 23.832 20.4383 23.744 19.9743 23.744C19.8383 23.744 19.6903 23.756 19.5303 23.78C19.3783 23.796 19.2183 23.824 19.0503 23.864C18.8903 23.896 18.7343 23.94 18.5823 23.996C18.4383 24.044 18.3103 24.1 18.1983 24.164L17.8983 23.444ZM19.6023 28.256C19.8263 28.256 20.0263 28.228 20.2023 28.172C20.3783 28.108 20.5303 28.032 20.6583 27.944C20.7863 27.848 20.8903 27.744 20.9703 27.632C21.0583 27.52 21.1223 27.412 21.1623 27.308V26.312C21.0503 26.304 20.9343 26.3 20.8143 26.3C20.7023 26.292 20.5903 26.288 20.4783 26.288C20.2303 26.288 19.9863 26.304 19.7463 26.336C19.5143 26.36 19.3063 26.412 19.1223 26.492C18.9463 26.564 18.8023 26.668 18.6903 26.804C18.5863 26.932 18.5343 27.096 18.5343 27.296C18.5343 27.576 18.6343 27.808 18.8343 27.992C19.0343 28.168 19.2903 28.256 19.6023 28.256ZM27.7994 29V25.58C27.7994 24.956 27.7074 24.488 27.5234 24.176C27.3474 23.856 27.0194 23.696 26.5394 23.696C26.1154 23.696 25.7634 23.812 25.4834 24.044C25.2114 24.268 25.0194 24.552 24.9074 24.896V29H23.9474V23H24.6194L24.7994 23.732H24.8474C25.0394 23.476 25.2954 23.268 25.6154 23.108C25.9434 22.94 26.3314 22.856 26.7794 22.856C27.1074 22.856 27.3954 22.896 27.6434 22.976C27.8914 23.048 28.0954 23.18 28.2554 23.372C28.4234 23.564 28.5474 23.824 28.6274 24.152C28.7154 24.472 28.7594 24.88 28.7594 25.376V29H27.7994ZM30.4139 23.444C30.7179 23.26 31.0699 23.124 31.4699 23.036C31.8779 22.948 32.3019 22.904 32.7419 22.904C33.1579 22.904 33.4899 22.96 33.7379 23.072C33.9939 23.184 34.1859 23.332 34.3139 23.516C34.4499 23.692 34.5379 23.888 34.5779 24.104C34.6259 24.32 34.6499 24.536 34.6499 24.752C34.6499 25.232 34.6379 25.7 34.6139 26.156C34.5899 26.612 34.5779 27.044 34.5779 27.452C34.5779 27.748 34.5899 28.028 34.6139 28.292C34.6379 28.556 34.6819 28.8 34.7459 29.024H34.0379L33.7859 28.184H33.7259C33.6539 28.296 33.5619 28.408 33.4499 28.52C33.3459 28.624 33.2179 28.72 33.0659 28.808C32.9139 28.888 32.7379 28.956 32.5379 29.012C32.3379 29.068 32.1099 29.096 31.8539 29.096C31.5979 29.096 31.3579 29.056 31.1339 28.976C30.9179 28.896 30.7299 28.784 30.5699 28.64C30.4099 28.488 30.2819 28.308 30.1859 28.1C30.0979 27.892 30.0539 27.656 30.0539 27.392C30.0539 27.04 30.1259 26.748 30.2699 26.516C30.4139 26.276 30.6139 26.088 30.8699 25.952C31.1339 25.808 31.4459 25.708 31.8059 25.652C32.1739 25.588 32.5779 25.556 33.0179 25.556C33.1299 25.556 33.2379 25.556 33.3419 25.556C33.4539 25.556 33.5659 25.564 33.6779 25.58C33.7019 25.34 33.7139 25.124 33.7139 24.932C33.7139 24.492 33.6259 24.184 33.4499 24.008C33.2739 23.832 32.9539 23.744 32.4899 23.744C32.3539 23.744 32.2059 23.756 32.0459 23.78C31.8939 23.796 31.7339 23.824 31.5659 23.864C31.4059 23.896 31.2499 23.94 31.0979 23.996C30.9539 24.044 30.8259 24.1 30.7139 24.164L30.4139 23.444ZM32.1179 28.256C32.3419 28.256 32.5419 28.228 32.7179 28.172C32.8939 28.108 33.0459 28.032 33.1739 27.944C33.3019 27.848 33.4059 27.744 33.4859 27.632C33.5739 27.52 33.6379 27.412 33.6779 27.308V26.312C33.5659 26.304 33.4499 26.3 33.3299 26.3C33.2179 26.292 33.1059 26.288 32.9939 26.288C32.7459 26.288 32.5019 26.304 32.2619 26.336C32.0299 26.36 31.8219 26.412 31.6379 26.492C31.4619 26.564 31.3179 26.668 31.2059 26.804C31.1019 26.932 31.0499 27.096 31.0499 27.296C31.0499 27.576 31.1499 27.808 31.3499 27.992C31.5499 28.168 31.8059 28.256 32.1179 28.256ZM39.1031 27.368C39.1031 27.128 39.0311 26.94 38.8871 26.804C38.7431 26.668 38.5631 26.556 38.3471 26.468C38.1391 26.372 37.9071 26.284 37.6511 26.204C37.4031 26.116 37.1711 26.008 36.9551 25.88C36.7471 25.744 36.5711 25.572 36.4271 25.364C36.2831 25.156 36.2111 24.876 36.2111 24.524C36.2111 23.948 36.3751 23.528 36.7031 23.264C37.0311 22.992 37.4871 22.856 38.0711 22.856C38.5031 22.856 38.8631 22.896 39.1511 22.976C39.4471 23.048 39.7031 23.136 39.9191 23.24L39.6911 24.032C39.5071 23.944 39.2831 23.868 39.0191 23.804C38.7631 23.732 38.4871 23.696 38.1911 23.696C37.8391 23.696 37.5791 23.756 37.4111 23.876C37.2511 23.996 37.1711 24.204 37.1711 24.5C37.1711 24.708 37.2431 24.872 37.3871 24.992C37.5311 25.104 37.7071 25.208 37.9151 25.304C38.1311 25.392 38.3631 25.48 38.6111 25.568C38.8671 25.656 39.0991 25.772 39.3071 25.916C39.5231 26.06 39.7031 26.244 39.8471 26.468C39.9911 26.684 40.0631 26.972 40.0631 27.332C40.0631 27.588 40.0191 27.828 39.9311 28.052C39.8511 28.276 39.7231 28.468 39.5471 28.628C39.3711 28.788 39.1511 28.912 38.8871 29C38.6311 29.096 38.3271 29.144 37.9751 29.144C37.5191 29.144 37.1311 29.1 36.8111 29.012C36.4911 28.924 36.2231 28.82 36.0071 28.7L36.2951 27.884C36.4791 27.988 36.7191 28.084 37.0151 28.172C37.3111 28.26 37.6111 28.304 37.9151 28.304C38.2591 28.304 38.5431 28.236 38.7671 28.1C38.9911 27.964 39.1031 27.72 39.1031 27.368ZM41.1778 26C41.1778 24.984 41.4018 24.208 41.8498 23.672C42.3058 23.128 42.9578 22.856 43.8058 22.856C44.2538 22.856 44.6418 22.932 44.9698 23.084C45.3058 23.228 45.5818 23.44 45.7978 23.72C46.0138 23.992 46.1738 24.324 46.2778 24.716C46.3818 25.1 46.4338 25.528 46.4338 26C46.4338 27.016 46.2058 27.796 45.7498 28.34C45.3018 28.876 44.6538 29.144 43.8058 29.144C43.3578 29.144 42.9658 29.072 42.6298 28.928C42.3018 28.776 42.0298 28.564 41.8138 28.292C41.5978 28.012 41.4378 27.68 41.3338 27.296C41.2298 26.904 41.1778 26.472 41.1778 26ZM42.1738 26C42.1738 26.304 42.2018 26.596 42.2578 26.876C42.3218 27.156 42.4178 27.4 42.5458 27.608C42.6738 27.816 42.8418 27.984 43.0498 28.112C43.2578 28.24 43.5098 28.304 43.8058 28.304C44.8938 28.312 45.4378 27.544 45.4378 26C45.4378 25.688 45.4058 25.392 45.3418 25.112C45.2858 24.832 45.1938 24.588 45.0658 24.38C44.9378 24.172 44.7698 24.008 44.5618 23.888C44.3538 23.76 44.1018 23.696 43.8058 23.696C42.7178 23.688 42.1738 24.456 42.1738 26ZM51.7994 29V25.58C51.7994 24.956 51.7074 24.488 51.5234 24.176C51.3474 23.856 51.0194 23.696 50.5394 23.696C50.1154 23.696 49.7634 23.812 49.4834 24.044C49.2114 24.268 49.0194 24.552 48.9074 24.896V29H47.9474V23H48.6194L48.7994 23.732H48.8474C49.0394 23.476 49.2954 23.268 49.6154 23.108C49.9434 22.94 50.3314 22.856 50.7794 22.856C51.1074 22.856 51.3954 22.896 51.6434 22.976C51.8914 23.048 52.0954 23.18 52.2554 23.372C52.4234 23.564 52.5474 23.824 52.6274 24.152C52.7154 24.472 52.7594 24.88 52.7594 25.376V29H51.7994ZM54.7139 23H55.6739V29H54.7139V23ZM54.5099 21.176C54.5099 20.992 54.5699 20.836 54.6899 20.708C54.8179 20.572 54.9779 20.504 55.1699 20.504C55.3619 20.504 55.5259 20.572 55.6619 20.708C55.7979 20.836 55.8659 20.992 55.8659 21.176C55.8659 21.36 55.7979 21.512 55.6619 21.632C55.5259 21.752 55.3619 21.812 55.1699 21.812C54.9779 21.812 54.8179 21.752 54.6899 21.632C54.5699 21.512 54.5099 21.36 54.5099 21.176ZM61.8129 28.604C61.5729 28.78 61.2889 28.912 60.9609 29C60.6329 29.096 60.2889 29.144 59.9289 29.144C59.4649 29.144 59.0729 29.072 58.7529 28.928C58.4329 28.776 58.1689 28.564 57.9609 28.292C57.7609 28.012 57.6129 27.68 57.5169 27.296C57.4289 26.904 57.3849 26.472 57.3849 26C57.3849 24.984 57.6089 24.208 58.0569 23.672C58.5049 23.128 59.1489 22.856 59.9889 22.856C60.3729 22.856 60.6969 22.888 60.9609 22.952C61.2329 23.008 61.4769 23.092 61.6929 23.204L61.4169 24.032C61.2329 23.928 61.0289 23.848 60.8049 23.792C60.5809 23.728 60.3409 23.696 60.0849 23.696C58.9489 23.696 58.3809 24.464 58.3809 26C58.3809 26.304 58.4089 26.596 58.4649 26.876C58.5289 27.148 58.6289 27.392 58.7649 27.608C58.9089 27.816 59.0929 27.984 59.3169 28.112C59.5489 28.24 59.8329 28.304 60.1689 28.304C60.4569 28.304 60.7129 28.26 60.9369 28.172C61.1689 28.084 61.3569 27.984 61.5009 27.872L61.8129 28.604Z" fill="#E5E5E5"/>
<path d="M56.8892 12.7402V8.948C56.8892 9.39701 57.0229 7.50138 56.62 7.31053C56.4863 7.24691 56.2309 7.11599 55.9349 7.12244C55.5855 7.13166 55.1826 7.29854 55.0618 7.60833C54.9004 7.98727 54.8193 8.24543 54.8331 9.03282L54.8064 12.7549L51.9712 12.7429V4.94468H54.6985L54.7391 5.85008C55.1153 5.38908 55.5587 4.79347 57.1842 4.79347C58.3533 4.79347 59.2541 5.29135 59.6165 6.4881C59.6967 6.79052 59.7105 6.98783 59.7511 7.60833V12.7429H56.8892V12.7402ZM35.4315 10.4693V8.35054C35.4315 7.68762 35.4315 6.79697 35.1494 6.16541C34.9604 5.7588 34.8267 5.53291 34.4367 5.27752C33.4695 4.63028 32.045 4.75198 31.7223 4.75198C30.0166 4.75198 29.1426 5.20192 28.5921 5.82058C28.1486 6.33229 28.0546 6.83385 27.9338 7.45159H30.6344C30.6482 7.21003 30.6878 7.11967 30.7422 7.01364C30.8897 6.8191 31.1046 6.57293 31.6421 6.57293C32.2469 6.57293 32.636 6.88088 32.636 7.18145C32.636 7.34649 32.6231 7.61663 32.5023 7.70699C32.3815 7.79826 32.0717 7.90614 32.0183 7.92089C31.8837 7.94302 31.7094 7.98359 31.4946 8.03983L30.0839 8.2187C29.2366 8.41508 28.5783 8.58657 28.0279 9.32417C27.6249 9.8368 27.6249 10.3043 27.6249 10.5449C27.6249 11.5683 28.0684 12.1593 28.3635 12.4166C29.0485 12.9873 30.0295 12.9661 30.272 12.9661C31.6015 12.9661 32.3004 12.3815 32.7171 12.0653L32.8379 12.8047H35.7533C35.5919 12.293 35.4177 12.0256 35.4315 10.4693ZM31.8708 11.1885C31.6827 11.2484 31.36 11.2355 31.2788 11.2309C30.7957 11.1986 30.5403 10.7579 30.5403 10.5016C30.5403 9.929 30.9967 9.8368 31.1451 9.8073L31.454 9.72063C31.844 9.5851 32.2469 9.47077 32.636 9.33524L32.6498 10.331C32.5291 10.555 32.3944 11.0382 31.8708 11.1885ZM68.6594 7.93011C68.4446 6.98967 67.9873 6.94265 67.4765 6.94265C67.0607 6.94265 66.9261 7.08372 66.7915 7.19989C66.4291 7.50968 66.3074 7.89231 66.3074 8.8475C66.3074 8.92034 66.2678 10.1964 66.9666 10.6814C67.1676 10.815 67.2617 10.8224 67.5032 10.8224C67.5844 10.8224 67.8259 10.8316 68.0408 10.7284C68.3229 10.5975 68.6189 10.355 68.6723 9.69297L71.4273 9.66992C71.4005 9.84695 71.2927 10.4721 71.0244 10.9865C70.3384 12.3529 68.9416 12.9227 67.5309 12.9227C66.9528 12.9227 66.5499 12.8351 66.3074 12.7909C65.1927 12.5115 64.2117 11.7324 63.7821 10.6159C63.6613 10.2784 63.4999 9.76397 63.4999 8.91112C63.4999 8.55891 63.5128 7.64798 64.0098 6.73704C64.0771 6.59045 64.3058 6.22257 64.6285 5.88512C65.6758 4.85524 67.2349 4.82574 67.6111 4.82574C69.0623 4.82574 69.9622 5.37064 70.4057 5.78185C70.5403 5.91462 70.8086 6.26959 71.0244 6.75456C71.1986 7.15102 71.2927 7.50415 71.36 7.93011H68.6594ZM60.3282 4.93361H63.1772V12.7688H60.3282V4.93361ZM60.3282 2.0284H63.1772V4.06694H60.3282V2.0284ZM50.4795 11.8624C50.0092 12.34 49.0421 12.9661 47.4433 12.9661C46.9325 12.9661 45.5219 12.9366 44.4874 11.714C44.0577 11.1921 43.5331 10.3273 43.5331 8.77466C43.5331 8.50636 43.5331 7.89507 43.7885 7.22478C44.3666 5.52462 45.9386 4.74921 47.5908 4.76397C48.0343 4.76397 49.4182 4.80822 50.4131 5.82334C50.91 6.32952 51.5416 7.25429 51.5278 8.89452C51.5278 9.29651 51.501 10.8187 50.4795 11.8624ZM48.3303 7.15471C48.0749 6.91591 47.6849 6.86705 47.5503 6.86705C47.2147 6.86705 46.9731 7.06159 46.892 7.1206C46.5425 7.40457 46.288 7.83607 46.288 8.80417C46.288 9.56481 46.4623 10.8372 47.5374 10.8372C47.8462 10.8372 48.1422 10.757 48.3303 10.5338C48.5857 10.2508 48.854 9.73815 48.8401 8.84381C48.8401 8.79956 48.854 7.69039 48.3303 7.15471ZM40.497 7.2128C40.4426 6.91591 40.2277 6.42356 39.4892 6.42356C39.1665 6.42356 38.925 6.51115 38.8033 6.58584C38.736 6.61442 38.629 6.80896 38.629 7.03208C38.629 7.09109 38.6825 7.26904 38.8577 7.37322C38.9646 7.43408 39.22 7.50784 39.516 7.54195L40.6583 7.83883C41.4641 8.04259 42.163 8.18643 42.7273 8.75069C43.0094 9.01807 43.1569 9.36474 43.1975 9.50581C43.3321 9.90872 43.2648 10.225 43.2648 10.3596C43.2648 11.2779 42.8213 11.832 42.5659 12.0699C42.0146 12.5751 41.1414 12.9568 39.5427 12.9568C38.2123 12.9568 37.3797 12.6074 36.8818 12.3179C35.8206 11.7029 35.7671 10.5698 35.6998 10.2139L38.4677 10.2047C38.4944 10.4721 38.535 10.6721 38.7498 10.8648C38.925 11.028 39.1131 11.1414 39.61 11.1414C40.201 11.1414 40.5366 10.8565 40.5504 10.5975C40.5643 10.5661 40.5643 10.3577 40.4831 10.2545C40.3485 10.0313 39.9862 9.9373 39.4616 9.80269C39.4616 9.80269 37.8499 9.45602 37.7291 9.39886C37.3659 9.23197 35.9017 8.90282 35.9017 7.26904C35.9017 6.3498 36.3719 5.8593 36.6403 5.60667C37.1372 5.17518 37.9569 4.77503 39.4219 4.77503C39.7437 4.77503 41.1147 4.76028 42.1354 5.45915C42.4184 5.65093 42.6462 5.88881 42.8213 6.17094C43.0629 6.57108 43.1035 7.0496 43.1302 7.2128H40.497ZM24.3731 12.7549V8.98764C24.3731 9.43574 24.4938 7.51613 24.0909 7.3262C23.9563 7.26074 23.7009 7.13074 23.392 7.13719C23.0426 7.14641 22.6535 7.31329 22.5189 7.62401C22.3714 8.00203 22.317 8.35054 22.3308 9.13885V12.7577H19.4284V4.95943H22.1695L22.21 5.86483C22.5862 5.40383 23.0297 4.80822 24.6414 4.80822C25.8243 4.80822 26.7242 5.22128 27.0874 6.41803C27.1676 6.72045 27.2082 7.01364 27.2349 7.63415V12.7549H24.3731ZM16.2438 12.7457L16.123 12.0376C15.7201 12.3539 14.9807 12.9716 13.6511 12.9716C13.4225 12.9716 12.4286 12.9412 11.7426 12.3695C11.4476 12.1132 10.9368 11.4946 10.9368 10.4721C10.9368 10.2305 11.0041 9.81929 11.3932 9.30758C11.9445 8.56998 12.6028 8.3699 13.4492 8.1726L14.8737 7.99465C15.0351 7.94947 15.2093 7.90522 15.3974 7.87479C15.438 7.85912 15.6666 7.82777 15.7874 7.73834C15.9082 7.64798 16.0022 7.30131 16.0022 7.13535C16.0022 6.83385 15.6122 6.58768 15.0083 6.58768C14.4708 6.58768 14.2154 6.78314 14.0808 6.97861C14.0135 7.08372 13.9867 7.17407 13.9729 7.41564L11.2724 7.39996C11.3932 6.78314 11.5149 6.28526 11.9574 5.77356C12.5088 5.15582 13.3819 4.76489 15.0885 4.76489C15.4112 4.76489 16.7278 4.62936 17.695 5.2766C18.085 5.53291 18.3404 5.83533 18.5147 6.24101C18.8106 6.87442 18.7295 7.63968 18.7295 8.30352V10.4269C18.7166 11.7518 18.8106 11.9924 19.0522 12.7457H16.2438ZM15.9617 9.33063C15.5726 9.46616 15.1687 9.58694 14.7658 9.72248L14.4708 9.81283C14.3223 9.84234 13.866 9.94191 13.866 10.5145C13.866 10.7708 14.0135 11.2373 14.6045 11.2373C14.6856 11.2373 15.048 11.2023 15.236 11.1414C15.7736 10.9911 15.8141 10.6417 15.9617 10.4896V9.33063ZM2.02841 12.7337V2.09847H6.48904C7.99374 2.11506 9.44497 2.19436 10.4527 3.54693C10.7348 3.92864 11.1249 4.63028 11.1249 5.80675C11.1249 7.28748 10.4795 8.17813 10.036 8.59395C9.24398 9.38779 8.18183 9.468 7.13444 9.51687H5.18626V12.7346L2.02841 12.7337ZM6.395 7.04868C6.91962 7.03577 7.51062 7.00719 7.88679 6.62456C7.99374 6.51115 8.16892 6.28434 8.16892 5.91462C8.15509 5.54767 7.99374 5.31993 7.8997 5.20653C7.44331 4.71141 6.70387 4.76765 6.09996 4.76765H5.2259V7.04868H6.395Z" fill="white"/>
</svg>
