<svg width="41" height="33" viewBox="0 0 41 33" fill="none" xmlns="http://www.w3.org/2000/svg">
<path d="M13.4944 20.6H14.4904V27.152C14.4904 27.792 14.3464 28.28 14.0584 28.616C13.7784 28.952 13.3504 29.12 12.7744 29.12C12.7104 29.12 12.6304 29.116 12.5344 29.108C12.4384 29.1 12.3424 29.088 12.2464 29.072C12.1504 29.056 12.0584 29.036 11.9704 29.012C11.8744 28.988 11.7984 28.96 11.7424 28.928L11.9344 28.076C12.1584 28.18 12.4024 28.232 12.6664 28.232C13.0024 28.232 13.2224 28.116 13.3264 27.884C13.4384 27.644 13.4944 27.32 13.4944 26.912V20.6ZM21.7266 22.52C21.7266 22.72 21.6946 22.924 21.6306 23.132C21.5666 23.34 21.4706 23.536 21.3426 23.72C21.2146 23.896 21.0506 24.052 20.8506 24.188C20.6506 24.324 20.4146 24.428 20.1426 24.5V24.548C20.3826 24.588 20.6106 24.656 20.8266 24.752C21.0506 24.848 21.2466 24.98 21.4146 25.148C21.5826 25.316 21.7186 25.52 21.8226 25.76C21.9266 26 21.9786 26.284 21.9786 26.612C21.9786 27.044 21.8866 27.42 21.7026 27.74C21.5266 28.052 21.2906 28.308 20.9946 28.508C20.7066 28.708 20.3746 28.856 19.9986 28.952C19.6226 29.048 19.2386 29.096 18.8466 29.096C18.7106 29.096 18.5506 29.096 18.3666 29.096C18.1826 29.096 17.9906 29.088 17.7906 29.072C17.5906 29.064 17.3906 29.048 17.1906 29.024C16.9906 29.008 16.8146 28.98 16.6626 28.94V20.672C16.9586 20.624 17.3026 20.584 17.6946 20.552C18.0866 20.52 18.5146 20.504 18.9786 20.504C19.2906 20.504 19.6066 20.532 19.9266 20.588C20.2546 20.636 20.5506 20.736 20.8146 20.888C21.0786 21.032 21.2946 21.236 21.4626 21.5C21.6386 21.764 21.7266 22.104 21.7266 22.52ZM18.9426 28.232C19.1986 28.232 19.4466 28.204 19.6866 28.148C19.9266 28.084 20.1386 27.988 20.3226 27.86C20.5066 27.724 20.6506 27.56 20.7546 27.368C20.8666 27.176 20.9226 26.948 20.9226 26.684C20.9226 26.356 20.8546 26.092 20.7186 25.892C20.5906 25.692 20.4186 25.536 20.2026 25.424C19.9946 25.312 19.7586 25.236 19.4946 25.196C19.2306 25.156 18.9666 25.136 18.7026 25.136H17.6586V28.148C17.7146 28.164 17.7946 28.176 17.8986 28.184C18.0026 28.192 18.1146 28.2 18.2346 28.208C18.3546 28.216 18.4786 28.224 18.6066 28.232C18.7346 28.232 18.8466 28.232 18.9426 28.232ZM18.2826 24.296C18.4186 24.296 18.5826 24.292 18.7746 24.284C18.9666 24.276 19.1266 24.264 19.2546 24.248C19.4466 24.184 19.6266 24.108 19.7946 24.02C19.9626 23.924 20.1106 23.816 20.2386 23.696C20.3746 23.568 20.4786 23.424 20.5506 23.264C20.6306 23.096 20.6706 22.916 20.6706 22.724C20.6706 22.46 20.6186 22.244 20.5146 22.076C20.4186 21.9 20.2866 21.76 20.1186 21.656C19.9506 21.552 19.7586 21.48 19.5426 21.44C19.3266 21.392 19.1066 21.368 18.8826 21.368C18.6186 21.368 18.3746 21.376 18.1506 21.392C17.9346 21.4 17.7706 21.416 17.6586 21.44V24.296H18.2826ZM28.6384 29H23.6704V20.6H24.6664V28.112H28.6384V29Z" fill="#E5E5E5"/>
<path d="M7 0.000111501L9.2516 5.11016L11.5027 0.000111501H7ZM9.2516 8.46379C10.029 8.46379 10.6608 7.83411 10.6608 7.06011C10.6608 6.28234 10.029 5.65511 9.2516 5.65511C8.47182 5.65511 7.8418 6.28234 7.8418 7.06011C7.8418 7.83411 8.47182 8.4639 9.2516 8.4639V8.46379ZM8.03377 12.2062C8.03377 13.2721 8.9936 15 11.7241 15C14.4554 15 15.4158 13.6781 15.4158 12.2062V0.000111501H12.9787L12.9799 12.6303C12.9799 13.3202 12.419 13.8988 11.726 13.8988C11.0322 13.8988 10.4701 13.337 10.4701 12.6472L10.4683 10.0741H8.03377V12.2062ZM17.263 14.7805V0.000111501H22.134C23.0739 0.000111501 24.5692 0.771763 24.5692 2.40838V4.9261C24.5692 5.66234 23.9236 6.96692 22.9644 6.96692C23.9236 6.96692 24.5692 7.79335 24.5692 8.41947V12.8498C24.5692 13.6033 23.9609 14.7805 22.134 14.7805H17.263ZM21.0268 6.36362C21.9126 6.36362 22.1341 6.21441 22.1341 3.89757C22.1341 1.58139 21.9125 1.39666 21.0268 1.39666H19.6964V6.36006L21.0268 6.36362ZM22.1341 10.6069C22.1341 8.28953 22.1341 7.61096 21.1724 7.61096H19.6964V13.5662L21.1723 13.5692C22.134 13.5692 22.134 12.9226 22.134 10.6069H22.1341ZM26.342 14.7805H33.7239V10.0741H31.2869L31.2887 12.6471C31.2887 13.337 30.7267 13.8988 30.0334 13.8988C29.3408 13.8988 28.7782 13.337 28.7782 12.6472V0H26.3418L26.342 14.7805Z" fill="white"/>
</svg>
