<svg width="36" height="33" viewBox="0 0 36 33" fill="none" xmlns="http://www.w3.org/2000/svg">
<g clip-path="url(#clip0_16_115)">
<path d="M18.5 0C16.01 0 13.9725 0.159375 12.5581 1.5725C11.1438 2.985 11 5.02063 11 7.5075C11 9.995 11.1438 12.0294 12.5587 13.4431C13.9731 14.8563 16.0106 15 18.5 15C20.9894 15 23.0269 14.8563 24.4412 13.4431C25.8563 12.0294 26 9.99375 26 7.5075C26 5.0175 25.8544 2.98062 24.4362 1.5675C23.0212 0.1575 20.9862 0 18.5 0ZM14.0663 4.62813H17.5812C18.5 4.62813 19.4606 4.67063 19.9338 5.145C20.4 5.61125 20.4506 6.54063 20.4525 7.4425V10.28C20.452 10.3048 20.4417 10.3283 20.4239 10.3455C20.4061 10.3627 20.3823 10.3722 20.3575 10.3719H19.1406C19.1283 10.372 19.1161 10.3698 19.1047 10.3652C19.0932 10.3607 19.0828 10.3539 19.074 10.3453C19.0651 10.3367 19.0581 10.3265 19.0532 10.3152C19.0484 10.3038 19.0458 10.2917 19.0456 10.2794V7.39375C19.0444 6.89 19.0156 6.3725 18.7556 6.11188C18.5319 5.88688 18.1144 5.83625 17.6806 5.82562H15.4738C15.4491 5.82546 15.4254 5.835 15.4077 5.8522C15.39 5.86939 15.3799 5.89285 15.3794 5.9175V10.28C15.3792 10.2923 15.3766 10.3045 15.3718 10.3158C15.3669 10.3271 15.3599 10.3373 15.351 10.3459C15.3422 10.3545 15.3318 10.3613 15.3203 10.3658C15.3089 10.3704 15.2967 10.3727 15.2844 10.3725H14.0663C14.0416 10.3725 14.0179 10.3628 14.0004 10.3455C13.9829 10.3282 13.9728 10.3046 13.9725 10.28V4.72125C13.9727 4.69649 13.9826 4.67281 14.0002 4.65536C14.0177 4.63792 14.0415 4.62812 14.0663 4.62813ZM21.6481 4.62813H22.8663C22.8911 4.62813 22.915 4.638 22.9325 4.65558C22.9501 4.67317 22.96 4.69701 22.96 4.72187V10.2794C22.9597 10.304 22.9496 10.3275 22.9321 10.3449C22.9146 10.3622 22.8909 10.3719 22.8663 10.3719H21.6481C21.6234 10.372 21.5996 10.3624 21.5819 10.3451C21.5642 10.3278 21.5541 10.3041 21.5538 10.2794V4.72125C21.5538 4.70894 21.5563 4.69676 21.5611 4.68542C21.5659 4.67408 21.5729 4.66379 21.5816 4.65514C21.5904 4.64649 21.6008 4.63966 21.6122 4.63502C21.6236 4.63039 21.6358 4.62804 21.6481 4.62813ZM16.575 6.8425H17.8537C17.9056 6.8425 17.9475 6.88375 17.9475 6.93438V10.2794C17.9472 10.304 17.9371 10.3275 17.9196 10.3449C17.9021 10.3622 17.8784 10.3719 17.8537 10.3719H16.575C16.5627 10.372 16.5505 10.3698 16.539 10.3652C16.5276 10.3607 16.5172 10.3539 16.5083 10.3453C16.4995 10.3367 16.4925 10.3265 16.4876 10.3152C16.4827 10.3038 16.4802 10.2917 16.48 10.2794V6.93438C16.4805 6.90962 16.4908 6.88606 16.5086 6.86885C16.5264 6.85164 16.5502 6.84216 16.575 6.8425Z" fill="white"/>
</g>
<path d="M3.12558 27.728L0.569578 23.6H1.76958L3.47358 26.444L3.77358 27.128L4.06158 26.444L5.86158 23.6H6.96558L4.32558 27.644L7.08558 32H5.92158L4.02558 28.988L3.70158 28.268L3.38958 28.988L1.44558 32H0.329578L3.12558 27.728ZM8.56355 26H9.52355V32H8.56355V26ZM8.35955 24.176C8.35955 23.992 8.41955 23.836 8.53955 23.708C8.66755 23.572 8.82755 23.504 9.01955 23.504C9.21155 23.504 9.37555 23.572 9.51155 23.708C9.64755 23.836 9.71555 23.992 9.71555 24.176C9.71555 24.36 9.64755 24.512 9.51155 24.632C9.37555 24.752 9.21155 24.812 9.01955 24.812C8.82755 24.812 8.66755 24.752 8.53955 24.632C8.41955 24.512 8.35955 24.36 8.35955 24.176ZM11.4745 26.444C11.7785 26.26 12.1305 26.124 12.5305 26.036C12.9385 25.948 13.3625 25.904 13.8025 25.904C14.2185 25.904 14.5505 25.96 14.7985 26.072C15.0545 26.184 15.2465 26.332 15.3745 26.516C15.5105 26.692 15.5985 26.888 15.6385 27.104C15.6865 27.32 15.7105 27.536 15.7105 27.752C15.7105 28.232 15.6985 28.7 15.6745 29.156C15.6505 29.612 15.6385 30.044 15.6385 30.452C15.6385 30.748 15.6505 31.028 15.6745 31.292C15.6985 31.556 15.7425 31.8 15.8065 32.024H15.0985L14.8465 31.184H14.7865C14.7145 31.296 14.6225 31.408 14.5105 31.52C14.4065 31.624 14.2785 31.72 14.1265 31.808C13.9745 31.888 13.7985 31.956 13.5985 32.012C13.3985 32.068 13.1705 32.096 12.9145 32.096C12.6585 32.096 12.4185 32.056 12.1945 31.976C11.9785 31.896 11.7905 31.784 11.6305 31.64C11.4705 31.488 11.3425 31.308 11.2465 31.1C11.1585 30.892 11.1145 30.656 11.1145 30.392C11.1145 30.04 11.1865 29.748 11.3305 29.516C11.4745 29.276 11.6745 29.088 11.9305 28.952C12.1945 28.808 12.5065 28.708 12.8665 28.652C13.2345 28.588 13.6385 28.556 14.0785 28.556C14.1905 28.556 14.2985 28.556 14.4025 28.556C14.5145 28.556 14.6265 28.564 14.7385 28.58C14.7625 28.34 14.7745 28.124 14.7745 27.932C14.7745 27.492 14.6865 27.184 14.5105 27.008C14.3345 26.832 14.0145 26.744 13.5505 26.744C13.4145 26.744 13.2665 26.756 13.1065 26.78C12.9545 26.796 12.7945 26.824 12.6265 26.864C12.4665 26.896 12.3105 26.94 12.1585 26.996C12.0145 27.044 11.8865 27.1 11.7745 27.164L11.4745 26.444ZM13.1785 31.256C13.4025 31.256 13.6025 31.228 13.7785 31.172C13.9545 31.108 14.1065 31.032 14.2345 30.944C14.3625 30.848 14.4665 30.744 14.5465 30.632C14.6345 30.52 14.6985 30.412 14.7385 30.308V29.312C14.6265 29.304 14.5105 29.3 14.3905 29.3C14.2785 29.292 14.1665 29.288 14.0545 29.288C13.8065 29.288 13.5625 29.304 13.3225 29.336C13.0905 29.36 12.8825 29.412 12.6985 29.492C12.5225 29.564 12.3785 29.668 12.2665 29.804C12.1625 29.932 12.1105 30.096 12.1105 30.296C12.1105 30.576 12.2105 30.808 12.4105 30.992C12.6105 31.168 12.8665 31.256 13.1785 31.256ZM17.1876 29C17.1876 27.984 17.4116 27.208 17.8596 26.672C18.3156 26.128 18.9676 25.856 19.8156 25.856C20.2636 25.856 20.6516 25.932 20.9796 26.084C21.3156 26.228 21.5916 26.44 21.8076 26.72C22.0236 26.992 22.1836 27.324 22.2876 27.716C22.3916 28.1 22.4436 28.528 22.4436 29C22.4436 30.016 22.2156 30.796 21.7596 31.34C21.3116 31.876 20.6636 32.144 19.8156 32.144C19.3676 32.144 18.9756 32.072 18.6396 31.928C18.3116 31.776 18.0396 31.564 17.8236 31.292C17.6076 31.012 17.4476 30.68 17.3436 30.296C17.2396 29.904 17.1876 29.472 17.1876 29ZM18.1836 29C18.1836 29.304 18.2116 29.596 18.2676 29.876C18.3316 30.156 18.4276 30.4 18.5556 30.608C18.6836 30.816 18.8516 30.984 19.0596 31.112C19.2676 31.24 19.5196 31.304 19.8156 31.304C20.9036 31.312 21.4476 30.544 21.4476 29C21.4476 28.688 21.4156 28.392 21.3516 28.112C21.2956 27.832 21.2036 27.588 21.0756 27.38C20.9476 27.172 20.7796 27.008 20.5716 26.888C20.3636 26.76 20.1116 26.696 19.8156 26.696C18.7276 26.688 18.1836 27.456 18.1836 29ZM27.4732 32V28.604C27.4732 28.284 27.4572 28.008 27.4252 27.776C27.4012 27.536 27.3492 27.336 27.2692 27.176C27.1892 27.016 27.0732 26.896 26.9212 26.816C26.7772 26.736 26.5852 26.696 26.3452 26.696C25.9772 26.696 25.6692 26.808 25.4212 27.032C25.1812 27.256 25.0132 27.536 24.9172 27.872V32H23.9572V26H24.6292L24.8092 26.732H24.8572C25.0732 26.476 25.3212 26.268 25.6012 26.108C25.8892 25.94 26.2612 25.856 26.7172 25.856C27.1012 25.856 27.4132 25.932 27.6532 26.084C27.9012 26.228 28.0932 26.484 28.2292 26.852C28.4132 26.54 28.6652 26.296 28.9852 26.12C29.3132 25.944 29.6812 25.856 30.0892 25.856C30.4252 25.856 30.7092 25.896 30.9412 25.976C31.1732 26.048 31.3652 26.18 31.5172 26.372C31.6692 26.564 31.7772 26.824 31.8412 27.152C31.9132 27.48 31.9492 27.896 31.9492 28.4V32H30.9892V28.388C30.9892 28.1 30.9732 27.852 30.9412 27.644C30.9172 27.428 30.8612 27.252 30.7732 27.116C30.6932 26.972 30.5772 26.868 30.4252 26.804C30.2812 26.732 30.0892 26.696 29.8492 26.696C29.4492 26.696 29.1372 26.808 28.9132 27.032C28.6892 27.256 28.5292 27.576 28.4332 27.992V32H27.4732ZM33.8995 26H34.8595V32H33.8995V26ZM33.6955 24.176C33.6955 23.992 33.7555 23.836 33.8755 23.708C34.0035 23.572 34.1635 23.504 34.3555 23.504C34.5475 23.504 34.7115 23.572 34.8475 23.708C34.9835 23.836 35.0515 23.992 35.0515 24.176C35.0515 24.36 34.9835 24.512 34.8475 24.632C34.7115 24.752 34.5475 24.812 34.3555 24.812C34.1635 24.812 34.0035 24.752 33.8755 24.632C33.7555 24.512 33.6955 24.36 33.6955 24.176Z" fill="#E5E5E5"/>
<defs>
<clipPath id="clip0_16_115">
<rect width="15" height="15" fill="white" transform="translate(11)"/>
</clipPath>
</defs>
</svg>
