<svg width="82" height="69" viewBox="0 0 82 69" fill="none" xmlns="http://www.w3.org/2000/svg">
<path fill-rule="evenodd" clip-rule="evenodd" d="M4.46848 27.1406H15.962C12.036 25.2196 9.44975 23.7248 8.20312 22.6562C6.64062 20.8333 5.85938 18.4896 5.85938 15.625C5.85938 12.5 6.77083 9.63542 8.59375 7.03125C10.4167 4.16667 13.8021 2.73438 18.75 2.73438C22.6562 2.73438 25.7812 3.77604 28.125 5.85938C30.7292 7.68229 33.2031 11.3281 35.5469 16.7969L37.5 16.0156L35.9375 0C35.4167 1.04167 34.7656 1.82292 33.9844 2.34375C33.4635 2.60417 32.8125 2.73438 32.0312 2.73438C30.9896 2.73438 29.2969 2.21354 26.9531 1.17188C24.6094 0.390625 22.1354 0 19.5312 0C13.5417 0 8.85417 1.82292 5.46875 5.46875C2.34375 8.85417 0.78125 12.5 0.78125 16.4062C0.78125 21.2134 2.01032 24.7916 4.46848 27.1406ZM32.4815 45.1406C33.7438 46.8275 34.375 48.5775 34.375 50.3906C34.375 55.3385 33.2031 59.1146 30.8594 61.7188C28.776 64.3229 25.5208 65.625 21.0938 65.625C16.9271 65.625 13.151 64.4531 9.76562 62.1094C6.64062 59.5052 4.16667 54.9479 2.34375 48.4375L0 49.2188L3.125 68.3594C4.16667 67.5781 5.07812 66.9271 5.85938 66.4062C6.64062 65.8854 7.42188 65.625 8.20312 65.625C9.50521 65.625 11.3281 66.0156 13.6719 66.7969C15.7552 67.8385 18.099 68.3594 20.7031 68.3594C26.9531 68.3594 31.6406 66.5365 34.7656 62.8906C38.151 59.2448 39.8438 55.0781 39.8438 50.3906C39.8438 48.525 39.5894 46.775 39.0807 45.1406H32.4815Z" fill="#222222"/>
<path fill-rule="evenodd" clip-rule="evenodd" d="M46.1716 27.2812H57.6651C53.7392 25.3602 51.1529 23.8654 49.9062 22.7969C48.3438 20.974 47.5625 18.6302 47.5625 15.7656C47.5625 12.6406 48.474 9.77604 50.2969 7.17188C52.1198 4.30729 55.5052 2.875 60.4531 2.875C64.3594 2.875 67.4844 3.91667 69.8281 6C72.4323 7.82292 74.9062 11.4688 77.25 16.9375L79.2031 16.1562L77.6406 0.140625C77.1198 1.18229 76.4688 1.96354 75.6875 2.48438C75.1667 2.74479 74.5156 2.875 73.7344 2.875C72.6927 2.875 71 2.35417 68.6562 1.3125C66.3125 0.53125 63.8385 0.140625 61.2344 0.140625C55.2448 0.140625 50.5573 1.96354 47.1719 5.60938C44.0469 8.99479 42.4844 12.6406 42.4844 16.5469C42.4844 21.3541 43.7134 24.9322 46.1716 27.2812ZM74.1846 45.2812C75.4469 46.9681 76.0781 48.7181 76.0781 50.5312C76.0781 55.4792 74.9062 59.2552 72.5625 61.8594C70.4792 64.4635 67.224 65.7656 62.7969 65.7656C58.6302 65.7656 54.8542 64.5938 51.4688 62.25C48.3438 59.6458 45.8698 55.0885 44.0469 48.5781L41.7031 49.3594L44.8281 68.5C45.8698 67.7188 46.7812 67.0677 47.5625 66.5469C48.3438 66.026 49.125 65.7656 49.9062 65.7656C51.2083 65.7656 53.0312 66.1562 55.375 66.9375C57.4583 67.9792 59.8021 68.5 62.4062 68.5C68.6562 68.5 73.3438 66.6771 76.4688 63.0312C79.8542 59.3854 81.5469 55.2188 81.5469 50.5312C81.5469 48.6656 81.2925 46.9156 80.7838 45.2812H74.1846Z" fill="#222222"/>
<path d="M4.24624 38.6966H4.70268L5.07246 39.8637C5.08787 39.9138 5.12446 39.9697 5.18224 40.0313C5.24001 40.0891 5.29009 40.1314 5.33246 40.1584C5.45957 40.2393 5.59631 40.3163 5.74268 40.3895C5.8929 40.4588 6.04313 40.5186 6.19335 40.5686C6.34742 40.6187 6.49764 40.6591 6.64401 40.69C6.79038 40.7208 6.92905 40.7362 7.06001 40.7362C7.32194 40.7362 7.56075 40.7015 7.77646 40.6322C7.99216 40.5628 8.17513 40.4627 8.32535 40.3317C8.47557 40.2008 8.59113 40.0409 8.67201 39.8522C8.7529 39.6634 8.79335 39.4497 8.79335 39.2108C8.79335 38.8603 8.6932 38.5734 8.4929 38.35C8.29646 38.1227 8.03261 37.9378 7.70135 37.7953C7.54727 37.7337 7.3932 37.6797 7.23913 37.6335C7.0889 37.5873 6.93868 37.5411 6.78846 37.4948C6.63824 37.4486 6.48801 37.4043 6.33779 37.362C6.18757 37.3157 6.03927 37.2618 5.8929 37.2002C5.44994 37.0191 5.10327 36.7611 4.8529 36.426C4.60638 36.0908 4.48313 35.6864 4.48313 35.2126C4.48313 34.8852 4.54861 34.579 4.67957 34.294C4.81438 34.0051 4.99927 33.7547 5.23424 33.5428C5.47305 33.331 5.75231 33.1654 6.07201 33.046C6.39557 32.9266 6.74224 32.8668 7.11201 32.8668C7.32387 32.8668 7.53187 32.8784 7.73601 32.9015C7.94016 32.9246 8.13853 32.9535 8.33113 32.9882C8.52372 33.0228 8.70861 33.0633 8.88579 33.1095C9.06683 33.1557 9.24209 33.2039 9.41157 33.254V35.23H8.9609L8.62579 34.1322C8.61038 34.0783 8.57572 34.0263 8.52179 33.9762C8.46787 33.9261 8.41972 33.8857 8.37735 33.8548C8.29261 33.7971 8.19438 33.7451 8.08268 33.6988C7.97483 33.6488 7.85927 33.6064 7.73601 33.5717C7.61661 33.5371 7.49527 33.5101 7.37201 33.4908C7.24875 33.4716 7.13513 33.462 7.03113 33.462C6.78461 33.462 6.56505 33.4947 6.37246 33.5602C6.17987 33.6218 6.01616 33.7085 5.88135 33.8202C5.75038 33.928 5.64831 34.059 5.57513 34.2131C5.50579 34.3671 5.47113 34.5328 5.47113 34.71C5.47113 34.8679 5.48653 35.022 5.51735 35.1722C5.55201 35.3186 5.61172 35.4591 5.69646 35.594C5.7812 35.7249 5.89483 35.8463 6.03735 35.958C6.18372 36.0697 6.36861 36.166 6.59201 36.2468C6.73838 36.2969 6.8809 36.3451 7.01957 36.3913C7.16209 36.4337 7.30461 36.478 7.44713 36.5242C7.5935 36.5666 7.74179 36.6147 7.89201 36.6686C8.04224 36.7187 8.20016 36.7784 8.36579 36.8477C8.54683 36.9209 8.72594 37.0114 8.90313 37.1193C9.08031 37.2271 9.23824 37.36 9.3769 37.518C9.51942 37.672 9.63305 37.8569 9.71779 38.0726C9.80253 38.2883 9.8449 38.5426 9.8449 38.8353C9.8449 39.1434 9.78713 39.4477 9.67157 39.7482C9.55987 40.0448 9.38075 40.3106 9.13424 40.5455C8.88772 40.7766 8.57187 40.9654 8.18668 41.1117C7.8015 41.2543 7.33927 41.3255 6.80001 41.3255C6.61898 41.3255 6.42831 41.3101 6.22801 41.2793C6.03157 41.2523 5.82742 41.2138 5.61557 41.1637C5.40757 41.1175 5.19572 41.0636 4.98001 41.002C4.76816 40.9403 4.55631 40.8768 4.34446 40.8113L4.24624 38.6966ZM14.6137 41.3255C14.0012 41.3255 13.4601 41.2234 12.9901 41.0193C12.5202 40.8151 12.1235 40.5282 11.7999 40.1584C11.4764 39.7848 11.2298 39.338 11.0604 38.818C10.8947 38.298 10.8119 37.7221 10.8119 37.0904C10.8119 36.4934 10.8986 35.9387 11.0719 35.4264C11.2452 34.9103 11.4956 34.4634 11.823 34.086C12.1504 33.7046 12.5491 33.4061 13.019 33.1904C13.4928 32.9747 14.0282 32.8668 14.6252 32.8668C15.2685 32.8668 15.829 32.9786 16.3066 33.202C16.7842 33.4215 17.179 33.722 17.491 34.1033C17.803 34.4846 18.0361 34.9314 18.1901 35.4437C18.3442 35.956 18.4212 36.5049 18.4212 37.0904C18.4212 37.4371 18.3885 37.7818 18.323 38.1246C18.2575 38.4674 18.1574 38.7968 18.0226 39.1126C17.8916 39.4246 17.7241 39.7154 17.5199 39.9851C17.3158 40.2547 17.0712 40.4897 16.7861 40.69C16.505 40.8864 16.1833 41.0405 15.8212 41.1522C15.463 41.2677 15.0605 41.3255 14.6137 41.3255ZM14.7177 40.8055C15.1298 40.8055 15.49 40.7169 15.7981 40.5397C16.1101 40.3626 16.3682 40.118 16.5724 39.806C16.7804 39.4901 16.9364 39.1165 17.0404 38.6851C17.1482 38.2537 17.2021 37.7857 17.2021 37.2811C17.2021 36.6994 17.1463 36.1698 17.0346 35.6922C16.9267 35.2146 16.7611 34.8063 16.5377 34.4673C16.3181 34.1245 16.0389 33.8587 15.6999 33.67C15.361 33.4812 14.9623 33.3868 14.5039 33.3868C14.0687 33.3868 13.695 33.4831 13.383 33.6757C13.071 33.8645 12.8149 34.1206 12.6146 34.4442C12.4143 34.7639 12.2679 35.1356 12.1755 35.5593C12.083 35.9791 12.0368 36.4202 12.0368 36.8824C12.0368 37.4563 12.0907 37.984 12.1986 38.4655C12.3064 38.9431 12.4701 39.3553 12.6897 39.702C12.9092 40.0486 13.1866 40.3202 13.5217 40.5166C13.8607 40.7092 14.2593 40.8055 14.7177 40.8055ZM20.1867 33.9068C20.1867 33.8221 20.1617 33.7528 20.1116 33.6988C20.0615 33.6449 19.9999 33.6083 19.9267 33.5891L19.1352 33.3811V33.0517H22.3361V33.3811L21.5445 33.5891C21.4752 33.6083 21.4155 33.6468 21.3654 33.7046C21.3192 33.7586 21.2961 33.826 21.2961 33.9068V38.5291C21.2961 38.6639 21.3057 38.8122 21.3249 38.974C21.3481 39.1319 21.3866 39.2898 21.4405 39.4477C21.4983 39.6018 21.5753 39.752 21.6716 39.8984C21.7679 40.0409 21.8931 40.168 22.0472 40.2797C22.2012 40.3914 22.3861 40.48 22.6018 40.5455C22.8214 40.611 23.0795 40.6437 23.3761 40.6437C23.6688 40.6437 23.9269 40.611 24.1503 40.5455C24.3737 40.4762 24.5682 40.3857 24.7338 40.274C24.8995 40.1623 25.0362 40.0351 25.1441 39.8926C25.2558 39.7463 25.3443 39.596 25.4098 39.442C25.4753 39.284 25.5215 39.128 25.5485 38.974C25.5755 38.816 25.5889 38.6716 25.5889 38.5406V33.9415C25.5889 33.8568 25.5639 33.7894 25.5138 33.7393C25.4676 33.6854 25.4098 33.6488 25.3405 33.6295L24.5489 33.3811V33.0517H27.2414V33.3811L26.4498 33.6295C26.3805 33.6488 26.3208 33.6854 26.2707 33.7393C26.2206 33.7932 26.1956 33.8606 26.1956 33.9415V38.7082C26.1956 39.024 26.1494 39.3091 26.0569 39.5633C25.9645 39.8137 25.8393 40.0371 25.6814 40.2335C25.5273 40.4261 25.3482 40.5917 25.1441 40.7304C24.9399 40.8691 24.7261 40.9827 24.5027 41.0713C24.2793 41.1599 24.0559 41.2234 23.8325 41.262C23.6091 41.3043 23.3992 41.3255 23.2027 41.3255C22.7058 41.3255 22.2686 41.26 21.8912 41.1291C21.5137 40.9981 21.1978 40.8228 20.9436 40.6033C20.6932 40.3799 20.5045 40.1257 20.3774 39.8406C20.2503 39.5517 20.1867 39.2551 20.1867 38.9508V33.9068ZM27.9101 40.8055L28.7075 40.5628C28.7768 40.5436 28.8346 40.507 28.8808 40.4531C28.9309 40.3953 28.9559 40.326 28.9559 40.2451V33.9242C28.9559 33.8394 28.9309 33.7701 28.8808 33.7162C28.8346 33.6623 28.7768 33.6257 28.7075 33.6064L27.8639 33.3811V33.0517H29.9728L33.867 38.6273L34.3697 39.4015H34.4044V33.9415C34.4044 33.8568 34.3793 33.7894 34.3293 33.7393C34.283 33.6854 34.2233 33.6488 34.1501 33.6295L33.3586 33.3811V33.0517H36.0626V33.3811L35.2653 33.6295C35.1998 33.6488 35.1401 33.6854 35.0861 33.7393C35.0361 33.7932 35.011 33.8606 35.011 33.9415V39.8348L34.8377 41.1984H34.3697L30.1461 35.1606L29.603 34.3228H29.5684V40.2451C29.5684 40.3337 29.5915 40.4049 29.6377 40.4588C29.6878 40.5089 29.7475 40.5436 29.8168 40.5628L30.6084 40.8055V41.1406H27.9101V40.8055ZM36.7715 40.8055L37.5688 40.6033C37.6381 40.584 37.6959 40.5474 37.7421 40.4935C37.7922 40.4357 37.8172 40.3645 37.8172 40.2797V33.9068C37.8172 33.8221 37.7922 33.7528 37.7421 33.6988C37.6959 33.6449 37.6381 33.6083 37.5688 33.5891L36.7715 33.3811V33.0517H40.2612C40.527 33.0517 40.8101 33.0768 41.1106 33.1268C41.4149 33.1769 41.7153 33.2636 42.0119 33.3868C42.3124 33.5101 42.5993 33.6719 42.8728 33.8722C43.1501 34.0725 43.3928 34.3248 43.6008 34.6291C43.8127 34.9295 43.9821 35.2858 44.1092 35.698C44.2364 36.1101 44.2999 36.5877 44.2999 37.1308C44.2999 37.8203 44.1921 38.4174 43.9764 38.922C43.7645 39.4227 43.4737 39.8387 43.1039 40.17C42.738 40.4974 42.3085 40.742 41.8155 40.9037C41.3224 41.0617 40.7967 41.1406 40.2381 41.1406H36.7715V40.8055ZM40.3132 40.6091C40.7832 40.6091 41.1895 40.5359 41.5324 40.3895C41.879 40.2393 42.166 40.0236 42.3932 39.7424C42.6244 39.4612 42.7938 39.1165 42.9017 38.7082C43.0134 38.296 43.0692 37.828 43.0692 37.3042C43.0692 36.7303 42.9941 36.2141 42.8439 35.7557C42.6975 35.2935 42.4876 34.9026 42.2141 34.5828C41.9445 34.2593 41.6171 34.0108 41.2319 33.8375C40.8506 33.6642 40.4269 33.5775 39.9608 33.5775H38.9266V40.6091H40.3132ZM48.5529 38.6966H49.0093L49.3791 39.8637C49.3945 39.9138 49.4311 39.9697 49.4889 40.0313C49.5467 40.0891 49.5967 40.1314 49.6391 40.1584C49.7662 40.2393 49.903 40.3163 50.0493 40.3895C50.1995 40.4588 50.3498 40.5186 50.5 40.5686C50.6541 40.6187 50.8043 40.6591 50.9507 40.69C51.097 40.7208 51.2357 40.7362 51.3667 40.7362C51.6286 40.7362 51.8674 40.7015 52.0831 40.6322C52.2988 40.5628 52.4818 40.4627 52.632 40.3317C52.7822 40.2008 52.8978 40.0409 52.9787 39.8522C53.0595 39.6634 53.1 39.4497 53.1 39.2108C53.1 38.8603 52.9998 38.5734 52.7995 38.35C52.6031 38.1227 52.3392 37.9378 52.008 37.7953C51.8539 37.7337 51.6998 37.6797 51.5458 37.6335C51.3955 37.5873 51.2453 37.5411 51.0951 37.4948C50.9449 37.4486 50.7947 37.4043 50.6444 37.362C50.4942 37.3157 50.3459 37.2618 50.1995 37.2002C49.7566 37.0191 49.4099 36.7611 49.1595 36.426C48.913 36.0908 48.7898 35.6864 48.7898 35.2126C48.7898 34.8852 48.8552 34.579 48.9862 34.294C49.121 34.0051 49.3059 33.7547 49.5409 33.5428C49.7797 33.331 50.059 33.1654 50.3787 33.046C50.7022 32.9266 51.0489 32.8668 51.4187 32.8668C51.6305 32.8668 51.8385 32.8784 52.0427 32.9015C52.2468 32.9246 52.4452 32.9535 52.6378 32.9882C52.8304 33.0228 53.0152 33.0633 53.1924 33.1095C53.3735 33.1557 53.5487 33.2039 53.7182 33.254V35.23H53.2675L52.9324 34.1322C52.917 34.0783 52.8824 34.0263 52.8284 33.9762C52.7745 33.9261 52.7264 33.8857 52.684 33.8548C52.5992 33.7971 52.501 33.7451 52.3893 33.6988C52.2815 33.6488 52.1659 33.6064 52.0427 33.5717C51.9232 33.5371 51.8019 33.5101 51.6787 33.4908C51.5554 33.4716 51.4418 33.462 51.3378 33.462C51.0912 33.462 50.8717 33.4947 50.6791 33.5602C50.4865 33.6218 50.3228 33.7085 50.188 33.8202C50.057 33.928 49.955 34.059 49.8818 34.2131C49.8124 34.3671 49.7778 34.5328 49.7778 34.71C49.7778 34.8679 49.7932 35.022 49.824 35.1722C49.8587 35.3186 49.9184 35.4591 50.0031 35.594C50.0878 35.7249 50.2015 35.8463 50.344 35.958C50.4904 36.0697 50.6752 36.166 50.8987 36.2468C51.045 36.2969 51.1875 36.3451 51.3262 36.3913C51.4687 36.4337 51.6112 36.478 51.7538 36.5242C51.9001 36.5666 52.0484 36.6147 52.1987 36.6686C52.3489 36.7187 52.5068 36.7784 52.6724 36.8477C52.8535 36.9209 53.0326 37.0114 53.2098 37.1193C53.387 37.2271 53.5449 37.36 53.6835 37.518C53.8261 37.672 53.9397 37.8569 54.0244 38.0726C54.1092 38.2883 54.1515 38.5426 54.1515 38.8353C54.1515 39.1434 54.0938 39.4477 53.9782 39.7482C53.8665 40.0448 53.6874 40.3106 53.4409 40.5455C53.1944 40.7766 52.8785 40.9654 52.4933 41.1117C52.1081 41.2543 51.6459 41.3255 51.1067 41.3255C50.9256 41.3255 50.735 41.3101 50.5347 41.2793C50.3382 41.2523 50.1341 41.2138 49.9222 41.1637C49.7142 41.1175 49.5024 41.0636 49.2867 41.002C49.0748 40.9403 48.863 40.8768 48.6511 40.8113L48.5529 38.6966ZM55.0781 40.8055L55.8754 40.6033C55.9448 40.584 56.0026 40.5474 56.0488 40.4935C56.0989 40.4357 56.1239 40.3645 56.1239 40.2797V33.9068C56.1239 33.8221 56.0989 33.7528 56.0488 33.6988C56.0026 33.6449 55.9448 33.6083 55.8754 33.5891L55.0781 33.3811V33.0517H58.279V33.3811L57.4874 33.5891C57.4181 33.6083 57.3584 33.6468 57.3083 33.7046C57.2583 33.7586 57.2332 33.826 57.2332 33.9068V36.6571H61.1852V33.9068C61.1852 33.8221 61.1602 33.7547 61.1101 33.7046C61.0639 33.6546 61.0042 33.616 60.931 33.5891L60.1394 33.3811V33.0517H63.3403V33.3811L62.5488 33.5891C62.4756 33.6083 62.414 33.6468 62.3639 33.7046C62.3177 33.7586 62.2946 33.826 62.2946 33.9068V40.2797C62.2946 40.3683 62.3177 40.4396 62.3639 40.4935C62.414 40.5474 62.4756 40.584 62.5488 40.6033L63.3403 40.8055V41.1406H60.1394V40.8055L60.931 40.6033C61.0042 40.5802 61.0639 40.5417 61.1101 40.4877C61.1602 40.4338 61.1852 40.3645 61.1852 40.2797V37.2117H57.2332V40.2797C57.2332 40.3683 57.2563 40.4396 57.3026 40.4935C57.3526 40.5436 57.4143 40.5802 57.4874 40.6033L58.279 40.8055V41.1406H55.0781V40.8055ZM67.9975 41.3255C67.385 41.3255 66.8439 41.2234 66.3739 41.0193C65.904 40.8151 65.5073 40.5282 65.1837 40.1584C64.8601 39.7848 64.6136 39.338 64.4441 38.818C64.2785 38.298 64.1957 37.7221 64.1957 37.0904C64.1957 36.4934 64.2824 35.9387 64.4557 35.4264C64.629 34.9103 64.8794 34.4634 65.2068 34.086C65.5342 33.7046 65.9329 33.4061 66.4028 33.1904C66.8766 32.9747 67.412 32.8668 68.009 32.8668C68.6523 32.8668 69.2127 32.9786 69.6904 33.202C70.168 33.4215 70.5628 33.722 70.8748 34.1033C71.1868 34.4846 71.4199 34.9314 71.5739 35.4437C71.728 35.956 71.805 36.5049 71.805 37.0904C71.805 37.4371 71.7723 37.7818 71.7068 38.1246C71.6413 38.4674 71.5412 38.7968 71.4064 39.1126C71.2754 39.4246 71.1079 39.7154 70.9037 39.9851C70.6996 40.2547 70.455 40.4897 70.1699 40.69C69.8887 40.8864 69.5671 41.0405 69.205 41.1522C68.8468 41.2677 68.4443 41.3255 67.9975 41.3255ZM68.1015 40.8055C68.5136 40.8055 68.8738 40.7169 69.1819 40.5397C69.4939 40.3626 69.752 40.118 69.9561 39.806C70.1641 39.4901 70.3201 39.1165 70.4241 38.6851C70.532 38.2537 70.5859 37.7857 70.5859 37.2811C70.5859 36.6994 70.5301 36.1698 70.4184 35.6922C70.3105 35.2146 70.1449 34.8063 69.9215 34.4673C69.7019 34.1245 69.4227 33.8587 69.0837 33.67C68.7447 33.4812 68.3461 33.3868 67.8877 33.3868C67.4524 33.3868 67.0788 33.4831 66.7668 33.6757C66.4548 33.8645 66.1987 34.1206 65.9984 34.4442C65.7981 34.7639 65.6517 35.1356 65.5593 35.5593C65.4668 35.9791 65.4206 36.4202 65.4206 36.8824C65.4206 37.4563 65.4745 37.984 65.5824 38.4655C65.6902 38.9431 65.8539 39.3553 66.0735 39.702C66.293 40.0486 66.5704 40.3202 66.9055 40.5166C67.2444 40.7092 67.6431 40.8055 68.1015 40.8055ZM72.6865 40.8055L73.4838 40.6033C73.5532 40.584 73.611 40.5474 73.6572 40.4935C73.7072 40.4357 73.7323 40.3645 73.7323 40.2797V33.9068C73.7323 33.8221 73.7072 33.7528 73.6572 33.6988C73.611 33.6449 73.5532 33.6083 73.4838 33.5891L72.6865 33.3811V33.0517H75.7718C76.1801 33.0517 76.5615 33.0922 76.9158 33.1731C77.2741 33.254 77.588 33.383 77.8576 33.5602C78.1272 33.7335 78.3391 33.9569 78.4932 34.2304C78.6472 34.5039 78.7243 34.8313 78.7243 35.2126C78.7243 35.6171 78.655 35.983 78.5163 36.3104C78.3815 36.634 78.1947 36.9094 77.9558 37.1366C77.717 37.3639 77.432 37.5391 77.1007 37.6624C76.7733 37.7818 76.417 37.8415 76.0318 37.8415C75.9394 37.8415 75.8412 37.8319 75.7372 37.8126C75.637 37.7895 75.533 37.7606 75.4252 37.726C75.3212 37.6874 75.2172 37.6451 75.1132 37.5988C75.013 37.5488 74.9225 37.4987 74.8416 37.4486V40.2797C74.8416 40.3683 74.8667 40.4396 74.9167 40.4935C74.9668 40.5474 75.0265 40.584 75.0958 40.6033L75.9683 40.8055V41.1406H72.6865V40.8055ZM74.8416 37.154C74.9032 37.1694 74.9764 37.1848 75.0612 37.2002C75.1459 37.2117 75.2345 37.2214 75.327 37.2291C75.4232 37.2368 75.5195 37.2426 75.6158 37.2464C75.7121 37.2503 75.8046 37.2522 75.8932 37.2522C76.1281 37.2522 76.3304 37.2194 76.4998 37.154C76.6732 37.0885 76.8215 37.0037 76.9447 36.8997C77.068 36.7957 77.1662 36.6783 77.2394 36.5473C77.3164 36.4163 77.3761 36.2854 77.4185 36.1544C77.4609 36.0234 77.4898 35.9002 77.5052 35.7846C77.5206 35.6652 77.5283 35.5651 77.5283 35.4842C77.5283 35.2338 77.4975 34.995 77.4358 34.7677C77.3781 34.5366 77.2741 34.3344 77.1238 34.1611C76.9736 33.9839 76.7714 33.8433 76.5172 33.7393C76.263 33.6314 75.9432 33.5775 75.5581 33.5775H74.8416V37.154Z" fill="#CB7A00"/>
</svg>
